<?xml version="1.0" encoding="UTF-8" standalone="no"?>
<!-- Created with Inkscape (http://www.inkscape.org/) -->

<svg
   width="4248.77mm"
   height="105.35791mm"
   viewBox="0 0 4248.77 105.35791"
   version="1.1"
   id="svg1"
   inkscape:version="1.3.2 (091e20e, 2023-11-25, custom)"
   sodipodi:docname="TB banner &amp; button click states.svg"
   xml:space="preserve"
   inkscape:export-filename="..\OneDrive\Documents\cunting your nan\TTAPILOGO.svg"
   inkscape:export-xdpi="96"
   inkscape:export-ydpi="96"
   xmlns:inkscape="http://www.inkscape.org/namespaces/inkscape"
   xmlns:sodipodi="http://sodipodi.sourceforge.net/DTD/sodipodi-0.dtd"
   xmlns:xlink="http://www.w3.org/1999/xlink"
   xmlns="http://www.w3.org/2000/svg"
   xmlns:svg="http://www.w3.org/2000/svg"><sodipodi:namedview
     id="namedview1"
     pagecolor="#000000"
     bordercolor="#000000"
     borderopacity="0.25"
     inkscape:showpageshadow="2"
     inkscape:pageopacity="0.0"
     inkscape:pagecheckerboard="0"
     inkscape:deskcolor="#000000"
     inkscape:document-units="mm"
     inkscape:zoom="0.028284271"
     inkscape:cx="-56409.443"
     inkscape:cy="32951.176"
     inkscape:window-width="2428"
     inkscape:window-height="1360"
     inkscape:window-x="0"
     inkscape:window-y="0"
     inkscape:window-maximized="0"
     inkscape:current-layer="layer1"
     showguides="false" /><defs
     id="defs1"><linearGradient
       id="linearGradient113"
       inkscape:collect="always"><stop
         style="stop-color:#181818;stop-opacity:1;"
         offset="0.39726028"
         id="stop95" /><stop
         style="stop-color:#414141;stop-opacity:1;"
         offset="0.5"
         id="stop112" /><stop
         style="stop-color:#181818;stop-opacity:1;"
         offset="0.5972603"
         id="stop113" /></linearGradient><linearGradient
       id="swatch15"
       inkscape:swatch="solid"><stop
         style="stop-color:#ffffff;stop-opacity:1;"
         offset="0"
         id="stop16" /></linearGradient><linearGradient
       inkscape:collect="always"
       xlink:href="#linearGradient113"
       id="linearGradient83"
       gradientUnits="userSpaceOnUse"
       x1="-3214.7888"
       y1="-619.64105"
       x2="2299.1682"
       y2="2778.4766"
       gradientTransform="translate(-14201.632,8630.5523)" /></defs><g
     inkscape:label="Layer 1"
     inkscape:groupmode="layer"
     id="layer1"
     transform="translate(16703.145,-9657.2917)"><path
       id="path333-6"
       style="fill:url(#linearGradient83);fill-opacity:1;fill-rule:evenodd;stroke-width:2.80001;stroke-linecap:round;stroke-linejoin:round"
       d="m -16703.145,9657.2917 v 105.3569 h 382.531 c 15.051,-29.7541 15.706,-71.6117 21.455,-105.3569 z m 403.986,0 c -5.749,33.7452 -6.404,75.6028 -21.455,105.3569 h 3483.708 c -15.052,-29.7541 -15.707,-71.6117 -21.456,-105.3569 z m 3440.797,0 c 5.749,33.7452 6.404,75.6028 21.456,105.3569 h 382.531 v -105.3569 z" /><path
       fill="#ffa25a"
       opacity="1"
       stroke="none"
       d="m -16566.854,9695.8906 c -0.918,3.4227 -1.834,6.8448 -2.775,10.2703 -0.138,0.1458 -0.273,0.2772 -0.367,0.4318 -0.24,0.3909 -0.666,0.5246 -1.031,0.5037 -1.324,-0.077 -2.644,-0.2341 -3.965,-0.3683 -1.382,-0.1399 -2.76,-0.2945 -4.143,-0.4252 -0.22,-0.02 -0.447,-0.066 -0.644,0.1955 -0.743,0.9912 -1.527,1.952 -2.283,2.9326 -0.06,0.081 -0.09,0.243 -0.06,0.3354 0.734,1.8365 1.492,3.6632 2.216,5.5034 0.304,0.7689 0.724,1.5089 0.729,2.3702 0,0.1974 0.05,0.4363 -0.05,0.5847 -0.305,0.4941 -0.574,1.0222 -1.17,1.2751 -0.482,0.2048 -0.935,0.4842 -1.395,0.7362 -1.294,0.7053 -2.589,1.4093 -3.878,2.1212 -1.091,0.6035 -2.18,1.2138 -3.268,1.8277 -0.665,0.3762 -1.368,0.3562 -1.89,-0.181 -0.52,-0.5375 -0.975,-1.1431 -1.435,-1.7372 -1.126,-1.452 -2.235,-2.9175 -3.364,-4.3682 -0.08,-0.1014 -0.272,-0.1886 -0.396,-0.1705 -0.602,0.086 -1.196,0.2468 -1.801,0.311 -0.835,0.089 -1.678,0.1118 -2.517,0.1724 -0.136,0.01 -0.263,0.01 -0.34,0.2101 -0.204,0.5369 -0.474,1.0478 -0.701,1.5764 -0.358,0.8336 -0.696,1.6767 -1.054,2.5103 -0.438,1.0158 -0.849,2.0452 -1.348,3.0313 -0.289,0.5737 -0.602,1.2254 -1.448,1.1643 -0.07,-0.01 -0.156,0.095 -0.233,0.1464 -3.446,-0.9233 -6.892,-1.8463 -10.341,-2.7905 -0.13,-0.1402 -0.238,-0.3007 -0.388,-0.3672 -0.3,-0.1344 -0.368,-0.3691 -0.418,-0.6583 -0.165,-0.9454 0.05,-1.8708 0.131,-2.8008 0.08,-0.8797 0.215,-1.7545 0.314,-2.6331 0.102,-0.8999 0.168,-1.8046 0.294,-2.7012 0.102,-0.722 0.102,-0.7088 -0.513,-1.1608 -0.882,-0.6527 -1.751,-1.3299 -2.584,-2.0444 -0.247,-0.2102 -0.399,-0.2511 -0.675,-0.1209 -0.577,0.2711 -1.168,0.5084 -1.753,0.757 -0.956,0.4047 -1.907,0.8204 -2.869,1.2075 -0.974,0.3917 -1.899,0.9358 -2.997,0.9585 -0.55,0.011 -0.976,-0.2479 -1.329,-0.5993 -0.264,-0.2625 -0.434,-0.6243 -0.626,-0.9545 -1.328,-2.2918 -2.651,-4.5868 -3.976,-6.881 -0.06,-0.093 -0.102,-0.1968 -0.168,-0.2776 -0.45,-0.5194 -0.702,-1.1106 -0.692,-1.8069 0,-0.2314 -0.104,-0.515 0,-0.6843 0.233,-0.397 0.518,-0.7816 0.854,-1.0954 0.411,-0.3843 0.896,-0.6896 1.348,-1.031 1.588,-1.2 3.177,-2.4009 4.78,-3.612 -0.402,-1.2346 -0.692,-2.4888 -0.648,-3.7908 0.02,-0.4619 -0.216,-0.6496 -0.591,-0.7984 -1.075,-0.4268 -2.145,-0.8649 -3.214,-1.3092 -1.293,-0.5392 -2.594,-1.0646 -3.869,-1.6476 -0.489,-0.2233 -0.877,-0.6133 -0.922,-1.2209 0,-0.083 -0.07,-0.1582 -0.107,-0.237 0.949,-3.5388 1.897,-7.0774 2.867,-10.6202 0.07,-0.06 0.124,-0.1232 0.182,-0.1742 0.232,-0.2018 0.444,-0.519 0.709,-0.5751 0.565,-0.1194 1.148,-0.1345 1.743,-0.045 1.234,0.1852 2.479,0.2749 3.72,0.4195 1.075,0.1258 2.15,0.2819 3.228,0.4006 0.125,0.013 0.307,-0.095 0.392,-0.2029 0.774,-0.9819 1.526,-1.9828 2.303,-2.9622 0.16,-0.2017 0.189,-0.3676 0.09,-0.5894 -0.15,-0.3334 -0.285,-0.6725 -0.424,-1.0098 -0.416,-1.0008 -0.811,-2.0113 -1.252,-3.0009 -0.553,-1.2386 -1.028,-2.4999 -1.309,-3.8295 -0.02,-0.088 0,-0.2016 0.04,-0.282 0.329,-0.6418 0.715,-1.163 1.433,-1.5072 1.522,-0.7299 2.977,-1.6015 4.455,-2.4225 1.259,-0.7 2.525,-1.3918 3.765,-2.1258 0.476,-0.2819 0.986,-0.2739 1.491,-0.353 0.06,-0.01 0.147,0.026 0.197,0.07 0.294,0.2504 0.621,0.4768 0.86,0.7728 0.488,0.6049 0.929,1.2489 1.392,1.8757 0.892,1.2066 1.795,2.4046 2.67,3.6217 0.437,0.6071 0.476,0.6644 0.973,0.4975 1.086,-0.3641 2.198,-0.5816 3.341,-0.5667 0.553,0.01 0.899,-0.09 1.099,-0.7076 0.272,-0.8457 0.707,-1.6384 1.072,-2.4542 0.308,-0.6875 0.618,-1.3738 0.92,-2.063 0.276,-0.6261 0.54,-1.2563 0.812,-1.8832 0.307,-0.7049 0.744,-1.2617 1.566,-1.393 0.102,-0.015 0.179,-0.097 0.268,-0.1484 3.423,0.9169 6.845,1.834 10.271,2.7719 0.08,0.1041 0.157,0.1943 0.245,0.2675 0.17,0.1417 0.446,0.2404 0.505,0.4159 0.143,0.4151 0.275,0.8692 0.255,1.2999 -0.04,0.8567 -0.19,1.7085 -0.291,2.5624 -0.102,0.8422 -0.2,1.6847 -0.294,2.5274 -0.102,0.9002 -0.194,1.8012 -0.279,2.7027 0,0.094 0.04,0.2415 0.104,0.2879 1.106,0.736 2.129,1.5717 3.104,2.4728 0.08,0.076 0.282,0.095 0.392,0.053 0.832,-0.3269 1.659,-0.6701 2.482,-1.0197 0.839,-0.355 1.661,-0.744 2.504,-1.0788 0.786,-0.3107 1.526,-0.7537 2.388,-0.8485 0.301,-0.034 0.689,-0.1842 0.886,-0.054 0.529,0.3482 1.132,0.6472 1.405,1.2962 0.153,0.3616 0.353,0.7041 0.542,1.0491 0.498,0.9039 0.998,1.8061 1.503,2.7058 0.823,1.4668 1.651,2.9307 2.478,4.3955 0.112,0.1993 0.231,0.3954 0.343,0.5947 0.04,0.072 0.09,0.1464 0.103,0.2249 0.122,0.9029 -0.261,1.62 -0.894,2.2021 -0.423,0.3894 -0.915,0.7043 -1.381,1.0457 -1.42,1.0394 -2.833,2.09 -4.273,3.1008 -0.294,0.2056 -0.326,0.3896 -0.283,0.6994 0.162,1.216 0.299,2.436 0.459,3.6529 0.02,0.1303 0.09,0.2979 0.191,0.3628 0.185,0.1194 0.413,0.1702 0.621,0.2546 0.721,0.2937 1.445,0.5812 2.163,0.8861 0.878,0.373 1.745,0.7705 2.623,1.1409 0.853,0.36 1.699,0.7049 2.449,1.2912 0.422,0.33 0.572,0.6537 0.543,1.1342 0,0.066 0,0.1351 0.02,0.2018 0,0 0.05,2e-4 0.07,-0.01 m -49.363,4.512 c 2.786,4.69 6.865,7.4994 12.266,8.2909 4.256,0.6232 8.181,-0.3388 11.751,-2.7321 3.107,-2.0827 5.238,-4.9419 6.473,-8.4418 0.417,-1.1787 0.645,-2.448 0.784,-3.6953 0.451,-4.0713 -0.492,-7.8361 -2.821,-11.203 -3.091,-4.4654 -7.394,-6.9053 -12.801,-7.3048 -3.87,-0.2863 -7.43,0.7285 -10.617,2.9415 -4.137,2.8733 -6.488,6.8708 -7.132,11.8368 -0.469,3.6319 0.266,7.067 2.097,10.3078 z"
       id="path1-6-7-6-0-5-7-2-5-1"
       style="fill:#2b2b2b;fill-opacity:1;stroke-width:0.0722737" /><path
       d="m -16615.348,9688.2205 c -0.366,1.3857 -0.519,2.8691 -0.454,4.446 0.207,4.9764 2.556,8.8115 6.768,11.528 1.819,1.1111 3.766,1.7802 5.852,1.9966 3.54,0.3675 6.802,-0.4483 9.707,-2.5131 3.665,-2.6045 5.663,-6.1915 6.005,-10.664 0.254,-3.3262 -0.628,-6.3746 -2.551,-9.0971 -2.468,-3.4892 -5.866,-5.4737 -10.091,-5.9601 -3.577,-0.4116 -6.885,0.4573 -9.79,2.584 -2.807,2.0543 -4.641,4.6303 -5.446,7.6797 z m 1.276,0.3588 c 0.73,-2.7648 2.393,-5.1008 4.938,-6.9639 2.634,-1.9282 5.634,-2.7164 8.878,-2.343 3.832,0.4409 6.914,2.2407 9.15,5.4047 1.745,2.4686 2.544,5.2331 2.314,8.2494 -0.31,4.0556 -2.122,7.3081 -5.446,9.67 -2.634,1.8726 -5.592,2.6122 -8.802,2.2792 -1.891,-0.1964 -3.657,-0.8029 -5.306,-1.8105 -3.819,-2.4635 -5.95,-5.9413 -6.136,-10.4538 -0.06,-1.4297 0.08,-2.7752 0.41,-4.0321 z"
       style="fill:#c7c7c7;fill-opacity:1;stroke-width:0.0722737"
       id="path326-0-2-6-7-2-5-0-3" /><path
       fill="#ffa25a"
       opacity="1"
       stroke="none"
       d="m -16637.124,9709.766 c -1.648,1.6468 -3.294,3.2938 -4.956,4.9355 -0.127,0.038 -0.245,0.069 -0.35,0.1251 -0.265,0.1439 -0.553,0.081 -0.752,-0.052 -0.73,-0.4787 -1.429,-1.0026 -2.138,-1.5131 -0.74,-0.5338 -1.474,-1.075 -2.218,-1.6036 -0.119,-0.085 -0.233,-0.1852 -0.431,-0.1013 -0.748,0.3201 -1.511,0.6098 -2.264,0.9191 -0.07,0.026 -0.13,0.1088 -0.14,0.1736 -0.185,1.2867 -0.355,2.5759 -0.547,3.8619 -0.08,0.5372 -0.08,1.0962 -0.364,1.5886 -0.07,0.1126 -0.119,0.2634 -0.219,0.3176 -0.336,0.1812 -0.664,0.3931 -1.086,0.3414 -0.342,-0.042 -0.69,-0.032 -1.036,-0.039 -0.968,-0.023 -1.936,-0.048 -2.904,-0.066 -0.821,-0.015 -1.642,-0.026 -2.462,-0.034 -0.504,-0.01 -0.896,-0.2486 -1.016,-0.7239 -0.12,-0.4776 -0.179,-0.9715 -0.247,-1.4609 -0.163,-1.1971 -0.313,-2.396 -0.479,-3.5924 0,-0.085 -0.09,-0.1969 -0.169,-0.2276 -0.371,-0.1492 -0.762,-0.2526 -1.128,-0.4146 -0.505,-0.2238 -0.991,-0.4882 -1.489,-0.7294 -0.08,-0.037 -0.152,-0.082 -0.263,0.01 -0.293,0.2387 -0.614,0.4408 -0.918,0.6672 -0.478,0.357 -0.947,0.7256 -1.426,1.0825 -0.582,0.4345 -1.155,0.8852 -1.762,1.2829 -0.354,0.2315 -0.745,0.4994 -1.207,0.187 -0.04,-0.027 -0.12,0.01 -0.181,0.01 -1.659,-1.6582 -3.316,-3.3163 -4.97,-4.9878 -0.03,-0.1227 -0.04,-0.2494 -0.102,-0.337 -0.127,-0.175 -0.09,-0.3309 -0.02,-0.5122 0.217,-0.5924 0.641,-1.0506 0.996,-1.5514 0.337,-0.4741 0.699,-0.9285 1.045,-1.3957 0.354,-0.4787 0.689,-0.972 1.055,-1.4412 0.295,-0.3777 0.29,-0.371 0.09,-0.8294 -0.289,-0.6619 -0.561,-1.333 -0.801,-2.0138 -0.07,-0.2007 -0.143,-0.2737 -0.343,-0.2903 -0.417,-0.036 -0.832,-0.094 -1.248,-0.1457 -0.677,-0.083 -1.355,-0.1595 -2.029,-0.2556 -0.684,-0.097 -1.389,-0.091 -2.022,-0.4388 -0.317,-0.1741 -0.476,-0.4622 -0.559,-0.7783 -0.07,-0.236 -0.05,-0.4982 -0.05,-0.749 0,-1.7418 0,-3.4828 0,-5.2247 0,-0.071 0,-0.144 0,-0.2128 -0.08,-0.4439 -0.04,-0.8634 0.199,-1.2565 0.08,-0.1305 0.111,-0.3276 0.221,-0.3919 0.263,-0.1501 0.553,-0.2748 0.847,-0.3428 0.361,-0.084 0.736,-0.098 1.106,-0.144 1.3,-0.161 2.598,-0.3226 3.909,-0.4853 0.178,-0.8348 0.423,-1.645 0.878,-2.3714 0.159,-0.2578 0.09,-0.4408 -0.07,-0.6487 -0.473,-0.596 -0.937,-1.1973 -1.399,-1.8016 -0.561,-0.7324 -1.129,-1.459 -1.663,-2.2099 -0.205,-0.2879 -0.297,-0.6372 -0.122,-0.9979 0.03,-0.048 0,-0.1125 0.02,-0.1699 1.702,-1.7031 3.406,-3.406 5.122,-5.1041 0.07,-0.011 0.112,-0.03 0.163,-0.039 0.197,-0.038 0.422,-0.15 0.59,-0.094 0.362,0.1166 0.698,0.3007 1.008,0.5476 0.642,0.5108 1.321,0.9717 1.981,1.4613 0.57,0.4259 1.131,0.8676 1.705,1.2897 0.06,0.048 0.207,0.046 0.289,0.012 0.765,-0.3045 1.522,-0.6273 2.287,-0.9293 0.157,-0.062 0.226,-0.1473 0.243,-0.3058 0.03,-0.2385 0.06,-0.4759 0.09,-0.7138 0.09,-0.7067 0.2,-1.4119 0.272,-2.1206 0.102,-0.8865 0.237,-1.7609 0.516,-2.61 0.02,-0.056 0.06,-0.1159 0.115,-0.1476 0.397,-0.2577 0.789,-0.4272 1.31,-0.3873 1.107,0.085 2.222,0.066 3.333,0.085 0.947,0.015 1.895,0.037 2.842,0.028 0.365,-0.01 0.652,0.1692 0.965,0.2892 0.04,0.015 0.07,0.062 0.09,0.1049 0.08,0.2387 0.195,0.475 0.235,0.7222 0.08,0.5051 0.119,1.017 0.176,1.5258 0.112,0.9798 0.231,1.9589 0.33,2.9399 0.05,0.4889 0.06,0.5339 0.39,0.6021 0.737,0.1498 1.442,0.3923 2.089,0.7761 0.312,0.1862 0.54,0.2432 0.856,-0.043 0.434,-0.3918 0.943,-0.6998 1.419,-1.0445 0.401,-0.2901 0.803,-0.5788 1.201,-0.8719 0.362,-0.266 0.721,-0.5379 1.082,-0.8053 0.406,-0.3007 0.838,-0.474 1.349,-0.2784 0.06,0.025 0.134,0.01 0.202,0.01 1.647,1.6473 3.294,3.294 4.937,4.9547 0,0.086 0.03,0.162 0.05,0.2326 0.05,0.1365 0.174,0.2829 0.151,0.4025 -0.06,0.2839 -0.128,0.5856 -0.283,0.8238 -0.304,0.4742 -0.669,0.9103 -1.008,1.3631 -0.333,0.4468 -0.667,0.8933 -0.997,1.3426 -0.353,0.4798 -0.704,0.9616 -1.047,1.4469 -0.04,0.051 -0.06,0.1487 -0.04,0.198 0.389,0.7826 0.696,1.5945 0.954,2.4277 0.02,0.07 0.129,0.1473 0.207,0.159 0.581,0.087 1.166,0.1641 1.749,0.2357 0.593,0.074 1.188,0.1222 1.781,0.2091 0.547,0.082 1.114,0.073 1.636,0.3016 0.183,0.081 0.453,0.1211 0.522,0.2603 0.187,0.372 0.432,0.7406 0.375,1.2001 -0.04,0.2562 -0.04,0.5167 -0.04,0.7755 0,0.678 -0.03,1.3562 -0.04,2.0343 0,1.106 -0.03,2.2113 -0.04,3.3168 0,0.1508 0,0.3012 0,0.4515 0,0.055 0,0.1139 -0.02,0.1621 -0.226,0.5541 -0.681,0.8361 -1.233,0.9596 -0.368,0.083 -0.752,0.1004 -1.131,0.1415 -1.15,0.1251 -2.299,0.2587 -3.451,0.3609 -0.235,0.02 -0.314,0.1143 -0.392,0.3046 -0.306,0.7467 -0.629,1.4858 -0.938,2.2309 -0.04,0.081 -0.05,0.1989 0,0.2695 0.06,0.1283 0.179,0.2325 0.269,0.3489 0.314,0.4046 0.632,0.8063 0.94,1.2156 0.377,0.5011 0.74,1.0123 1.119,1.5119 0.368,0.4853 0.735,0.9595 0.97,1.5398 0.13,0.327 0.111,0.5608 -0.07,0.8252 -0.03,0.036 -0.04,0.081 -0.06,0.1209 0,0 0.03,0.016 0.05,0.026 m -29.588,-13.6569 c 0.05,3.5863 1.445,6.5266 4.26,8.7522 2.218,1.7534 4.769,2.4962 7.588,2.3071 2.454,-0.1645 4.607,-1.0915 6.461,-2.6782 0.624,-0.5343 1.172,-1.1816 1.661,-1.8464 1.594,-2.1694 2.294,-4.6227 2.075,-7.3056 -0.291,-3.5579 -1.939,-6.3617 -4.886,-8.3663 -2.109,-1.4348 -4.47,-2.0272 -7.012,-1.8147 -3.299,0.2756 -5.952,1.7787 -7.95,4.3944 -1.462,1.9136 -2.174,4.1106 -2.197,6.5575 z"
       id="path1-6-7-2-1-1-5-80-3-4-5"
       style="fill:#2b2b2b;fill-opacity:1;stroke-width:0.0475129" /><path
       d="m -16662.212,9689.4592 c -0.662,0.6687 -1.238,1.4629 -1.719,2.3822 -1.519,2.9008 -1.442,5.8565 0.06,8.7877 0.669,1.2304 1.557,2.2512 2.674,3.0602 1.896,1.3727 4.02,1.9803 6.353,1.7598 2.943,-0.2785 5.26,-1.6632 6.924,-4.0975 1.239,-1.8102 1.739,-3.8355 1.538,-6.018 -0.258,-2.7969 -1.54,-5.0438 -3.785,-6.7098 -1.903,-1.4106 -4.072,-2.0027 -6.425,-1.7464 -2.272,0.2469 -4.163,1.1107 -5.624,2.5823 z m 0.609,0.6236 c 1.323,-1.3342 3.039,-2.1176 5.1,-2.3417 2.134,-0.2317 4.1,0.3054 5.825,1.5834 2.037,1.5107 3.199,3.5479 3.433,6.0846 0.182,1.9791 -0.272,3.8155 -1.395,5.457 -1.509,2.2071 -3.609,3.4633 -6.278,3.7155 -2.116,0.2003 -4.042,-0.3506 -5.762,-1.5958 -1.012,-0.7336 -1.816,-1.6589 -2.425,-2.7749 -1.365,-2.6581 -1.434,-5.3382 -0.06,-7.9688 0.435,-0.8333 0.958,-1.5536 1.56,-2.1603 z"
       style="fill:#c7c7c7;fill-opacity:1;stroke-width:0.0475129"
       id="path326-0-3-0-9-0-4-9-9-4" /><path
       fill="#ffa25a"
       opacity="1"
       stroke="none"
       d="m -16659.281,9753.2337 c -0.778,1.3368 -1.559,2.6738 -2.351,4.0096 -0.07,0.045 -0.146,0.085 -0.203,0.1397 -0.147,0.1373 -0.341,0.1446 -0.493,0.093 -0.549,-0.1847 -1.088,-0.4033 -1.63,-0.6119 -0.565,-0.2182 -1.13,-0.442 -1.696,-0.6563 -0.09,-0.035 -0.182,-0.08 -0.295,0.01 -0.426,0.3321 -0.868,0.6472 -1.299,0.9732 -0.04,0.027 -0.06,0.092 -0.06,0.1352 0.102,0.8587 0.208,1.7161 0.301,2.5754 0.04,0.3588 0.131,0.7189 0.03,1.0827 -0.02,0.084 -0.03,0.1894 -0.08,0.2411 -0.184,0.1733 -0.359,0.3649 -0.64,0.4028 -0.226,0.032 -0.449,0.097 -0.673,0.15 -0.627,0.148 -1.253,0.2958 -1.878,0.4473 -0.53,0.1288 -1.06,0.2608 -1.589,0.394 -0.323,0.082 -0.616,-0.01 -0.775,-0.2938 -0.157,-0.2867 -0.279,-0.5942 -0.405,-0.8975 -0.307,-0.742 -0.607,-1.4875 -0.914,-2.2287 -0.02,-0.052 -0.102,-0.1109 -0.148,-0.1177 -0.264,-0.034 -0.533,-0.034 -0.795,-0.077 -0.362,-0.058 -0.72,-0.1463 -1.081,-0.2174 -0.06,-0.01 -0.111,-0.027 -0.167,0.049 -0.149,0.2029 -0.322,0.3872 -0.476,0.5838 -0.248,0.3102 -0.487,0.6265 -0.736,0.9367 -0.301,0.3778 -0.593,0.7643 -0.916,1.1226 -0.187,0.2086 -0.395,0.4469 -0.745,0.3241 -0.03,-0.01 -0.07,0.022 -0.115,0.035 -1.345,-0.7859 -2.692,-1.572 -4.036,-2.3672 -0.04,-0.074 -0.06,-0.1541 -0.123,-0.1997 -0.111,-0.091 -0.113,-0.1979 -0.103,-0.3259 0.04,-0.4176 0.236,-0.7835 0.379,-1.1654 0.135,-0.3614 0.293,-0.715 0.436,-1.0738 0.147,-0.3676 0.278,-0.7412 0.435,-1.1046 0.125,-0.2926 0.124,-0.2875 -0.08,-0.5485 -0.298,-0.3767 -0.585,-0.7623 -0.854,-1.1594 -0.08,-0.1172 -0.139,-0.1518 -0.27,-0.1287 -0.274,0.048 -0.551,0.081 -0.827,0.1171 -0.449,0.06 -0.898,0.1263 -1.349,0.1785 -0.455,0.053 -0.907,0.176 -1.372,0.059 -0.234,-0.058 -0.384,-0.217 -0.491,-0.4058 -0.08,-0.1409 -0.112,-0.3131 -0.154,-0.4744 -0.295,-1.1197 -0.588,-2.239 -0.883,-3.3588 0,-0.045 -0.02,-0.094 -0.04,-0.1362 -0.13,-0.271 -0.166,-0.5495 -0.08,-0.8416 0.03,-0.097 0.02,-0.2292 0.07,-0.2891 0.144,-0.1409 0.308,-0.2699 0.486,-0.3634 0.218,-0.1146 0.457,-0.1877 0.687,-0.2794 0.808,-0.3228 1.615,-0.6459 2.43,-0.972 -0.03,-0.5666 0,-1.129 0.164,-1.6727 0.06,-0.193 -0.02,-0.2985 -0.156,-0.4045 -0.405,-0.3035 -0.805,-0.6115 -1.204,-0.9221 -0.484,-0.3761 -0.971,-0.7474 -1.442,-1.14 -0.18,-0.1504 -0.299,-0.3594 -0.248,-0.6207 0,-0.035 0,-0.075 -0.02,-0.1121 0.808,-1.3825 1.614,-2.7649 2.431,-4.1465 0.04,-0.018 0.07,-0.037 0.103,-0.052 0.122,-0.058 0.248,-0.1679 0.365,-0.1608 0.252,0.014 0.499,0.076 0.739,0.1819 0.499,0.2202 1.014,0.4015 1.52,0.6053 0.44,0.1771 0.875,0.3665 1.316,0.5408 0.05,0.02 0.139,-0.01 0.188,-0.04 0.44,-0.3249 0.872,-0.66 1.313,-0.9836 0.09,-0.067 0.121,-0.133 0.104,-0.2377 -0.03,-0.1576 -0.05,-0.3162 -0.06,-0.4745 -0.06,-0.4698 -0.111,-0.9413 -0.182,-1.4094 -0.09,-0.5855 -0.146,-1.172 -0.11,-1.7649 0,-0.04 0.02,-0.085 0.05,-0.1142 0.212,-0.2328 0.436,-0.4078 0.778,-0.4703 0.725,-0.1322 1.439,-0.3323 2.157,-0.5081 0.612,-0.1497 1.224,-0.2957 1.832,-0.4624 0.232,-0.063 0.447,0 0.669,0.023 0.03,0.01 0.06,0.028 0.07,0.052 0.102,0.139 0.206,0.2723 0.273,0.4246 0.136,0.3112 0.249,0.6336 0.371,0.9511 0.238,0.6112 0.479,1.2203 0.709,1.8343 0.115,0.306 0.122,0.3344 0.353,0.3213 0.499,-0.029 0.993,0.01 1.474,0.1463 0.231,0.068 0.387,0.064 0.544,-0.172 0.212,-0.3251 0.487,-0.609 0.735,-0.9111 0.209,-0.2543 0.418,-0.5075 0.625,-0.7634 0.189,-0.2322 0.372,-0.4674 0.559,-0.7004 0.21,-0.2618 0.459,-0.4462 0.82,-0.4067 0.05,0.01 0.09,-0.02 0.131,-0.032 1.337,0.781 2.674,1.5614 4.01,2.3517 0.02,0.054 0.05,0.1003 0.07,0.1408 0.06,0.08 0.158,0.1526 0.164,0.2333 0,0.1916 0.02,0.3981 -0.05,0.5775 -0.116,0.3561 -0.277,0.6981 -0.418,1.0464 -0.14,0.3435 -0.279,0.6869 -0.415,1.0316 -0.145,0.368 -0.29,0.7368 -0.43,1.1071 -0.02,0.038 0,0.1057 0.01,0.1335 0.38,0.4378 0.715,0.9077 1.022,1.3999 0.03,0.042 0.107,0.073 0.16,0.067 0.388,-0.041 0.776,-0.091 1.163,-0.1439 0.393,-0.053 0.786,-0.1223 1.181,-0.1663 0.366,-0.04 0.729,-0.1418 1.103,-0.083 0.131,0.021 0.311,0.01 0.38,0.08 0.183,0.2078 0.403,0.4032 0.443,0.7085 0.02,0.1702 0.06,0.3376 0.107,0.5047 0.107,0.4379 0.214,0.876 0.322,1.3134 0.181,0.7131 0.358,1.4257 0.541,2.1379 0.03,0.097 0.05,0.1936 0.07,0.2902 0,0.035 0.02,0.073 0.02,0.1071 -0.06,0.3946 -0.297,0.6526 -0.63,0.825 -0.224,0.1157 -0.467,0.1916 -0.704,0.2819 -0.718,0.2745 -1.434,0.5546 -2.158,0.815 -0.147,0.053 -0.181,0.1264 -0.201,0.2618 -0.07,0.5319 -0.153,1.0616 -0.226,1.593 0,0.056 0,0.1358 0.04,0.1752 0.06,0.071 0.154,0.1193 0.232,0.1787 0.271,0.2071 0.544,0.4116 0.81,0.6228 0.326,0.2583 0.648,0.5259 0.974,0.783 0.319,0.2499 0.636,0.4928 0.885,0.8261 0.14,0.1881 0.166,0.3418 0.102,0.5413 0,0.028 0,0.057 -0.02,0.087 0,0 0.02,0.01 0.04,0.01 m -21.328,-3.7833 c 0.635,2.2978 2.03,3.9519 4.217,4.9073 1.721,0.7528 3.487,0.7996 5.268,0.2019 1.549,-0.5201 2.777,-1.4797 3.699,-2.8127 0.313,-0.4491 0.555,-0.9577 0.758,-1.4675 0.659,-1.6643 0.695,-3.3596 0.102,-5.0474 -0.787,-2.2381 -2.321,-3.7623 -4.554,-4.5533 -1.598,-0.5663 -3.216,-0.5487 -4.814,0.017 -2.074,0.7346 -3.526,2.1489 -4.369,4.168 -0.617,1.4769 -0.702,3.0096 -0.305,4.5865 z"
       id="path1-6-7-2-1-1-5-8-6-9-4-54"
       style="fill:#2b2b2b;fill-opacity:1;stroke-width:0.0315816" /><path
       d="m -16678.836,9744.4152 c -0.315,0.5419 -0.55,1.1496 -0.704,1.8218 -0.486,2.1214 0.07,4.0085 1.524,5.6388 0.639,0.6778 1.383,1.184 2.237,1.5156 1.451,0.5626 2.92,0.5943 4.38,0.058 1.847,-0.6758 3.101,-1.9574 3.761,-3.8034 0.49,-1.3728 0.47,-2.7594 -0.03,-4.1287 -0.638,-1.7545 -1.841,-2.9826 -3.567,-3.6742 -1.461,-0.5859 -2.955,-0.6002 -4.424,-0.038 -1.419,0.5426 -2.49,1.4172 -3.18,2.61 z m 0.496,0.2981 c 0.625,-1.0815 1.596,-1.8745 2.883,-2.3668 1.333,-0.5092 2.689,-0.4961 4.012,0.035 1.564,0.6272 2.656,1.7408 3.235,3.332 0.452,1.2416 0.468,2.4989 0.03,3.7437 -0.6,1.6739 -1.738,2.8362 -3.41,3.449 -1.326,0.4859 -2.658,0.4572 -3.973,-0.053 -0.774,-0.3008 -1.449,-0.7596 -2.028,-1.3743 -1.326,-1.4784 -1.824,-3.1896 -1.383,-5.1134 0.14,-0.6093 0.355,-1.1604 0.639,-1.6523 z"
       style="fill:#c7c7c7;fill-opacity:1;stroke-width:0.0315816"
       id="path326-0-3-0-9-0-5-3-2-1-8" /><path
       fill="#ffa25a"
       opacity="1"
       stroke="none"
       d="m -16638.68,9752.828 c -1.919,0.2613 -3.837,0.5224 -5.761,0.7733 -0.102,-0.04 -0.195,-0.082 -0.295,-0.093 -0.247,-0.038 -0.406,-0.2244 -0.473,-0.4127 -0.24,-0.6836 -0.441,-1.3822 -0.653,-2.0761 -0.221,-0.7253 -0.434,-1.4529 -0.661,-2.177 -0.04,-0.1156 -0.06,-0.2402 -0.233,-0.2838 -0.657,-0.1646 -1.307,-0.3554 -1.96,-0.5309 -0.06,-0.013 -0.142,0.01 -0.179,0.044 -0.772,0.7574 -1.532,1.5255 -2.306,2.2801 -0.323,0.3148 -0.607,0.6826 -1.04,0.8677 -0.102,0.043 -0.211,0.1151 -0.305,0.1003 -0.314,-0.049 -0.637,-0.074 -0.889,-0.3207 -0.205,-0.1994 -0.442,-0.3675 -0.666,-0.5467 -0.628,-0.5027 -1.258,-1.0059 -1.888,-1.5052 -0.536,-0.4226 -1.074,-0.8421 -1.612,-1.2604 -0.33,-0.2563 -0.468,-0.6147 -0.308,-0.9902 0.161,-0.3764 0.368,-0.7333 0.571,-1.0907 0.493,-0.8743 0.999,-1.7431 1.489,-2.6179 0.04,-0.061 0.04,-0.1768 0,-0.2358 -0.169,-0.2858 -0.376,-0.5504 -0.537,-0.8414 -0.22,-0.4017 -0.411,-0.8217 -0.617,-1.2316 -0.04,-0.067 -0.07,-0.1312 -0.178,-0.1277 -0.315,0.011 -0.629,-0.017 -0.942,-0.019 -0.496,-0.01 -0.993,0.01 -1.489,0 -0.605,-0.01 -1.21,0.01 -1.812,-0.038 -0.35,-0.025 -0.744,-0.045 -0.893,-0.4839 0,-0.039 -0.08,-0.059 -0.122,-0.086 -0.264,-1.9309 -0.527,-3.8621 -0.781,-5.7999 0.05,-0.096 0.102,-0.1834 0.104,-0.2731 0,-0.1801 0.108,-0.2639 0.243,-0.3505 0.441,-0.2826 0.952,-0.3729 1.439,-0.5261 0.462,-0.1444 0.928,-0.2621 1.393,-0.3975 0.475,-0.1389 0.945,-0.2968 1.423,-0.423 0.385,-0.1024 0.377,-0.099 0.476,-0.5038 0.142,-0.5833 0.301,-1.1635 0.486,-1.7346 0.06,-0.1679 0.05,-0.2532 -0.08,-0.3651 -0.258,-0.2329 -0.503,-0.4805 -0.751,-0.7239 -0.407,-0.3952 -0.817,-0.7869 -1.215,-1.1903 -0.403,-0.4076 -0.873,-0.7578 -1.117,-1.3063 -0.123,-0.2752 -0.08,-0.5451 0.02,-0.7969 0.07,-0.1886 0.224,-0.3509 0.351,-0.517 0.873,-1.1538 1.749,-2.3053 2.625,-3.4579 0.04,-0.047 0.08,-0.091 0.105,-0.1432 0.167,-0.3366 0.412,-0.5887 0.764,-0.7307 0.117,-0.047 0.237,-0.1617 0.344,-0.1482 0.248,0.033 0.502,0.096 0.731,0.1965 0.282,0.1262 0.539,0.3041 0.806,0.4611 0.94,0.5464 1.88,1.0928 2.831,1.6439 0.536,-0.463 1.107,-0.8752 1.773,-1.1283 0.235,-0.089 0.281,-0.2458 0.278,-0.4662 -0.01,-0.6314 -0.02,-1.2639 -0.02,-1.8955 0,-0.7658 0,-1.5328 0,-2.2983 0,-0.2932 0.125,-0.5713 0.422,-0.722 0.04,-0.019 0.06,-0.069 0.103,-0.1041 1.983,-0.2702 3.966,-0.5404 5.955,-0.8004 0.05,0.024 0.09,0.035 0.128,0.052 0.152,0.075 0.357,0.1123 0.44,0.235 0.182,0.2586 0.31,0.5499 0.392,0.8692 0.167,0.6598 0.386,1.3072 0.574,1.9621 0.164,0.5695 0.314,1.1433 0.48,1.7119 0.02,0.066 0.114,0.134 0.187,0.154 0.658,0.182 1.321,0.3485 1.979,0.5333 0.136,0.036 0.225,0.017 0.315,-0.08 0.139,-0.1453 0.281,-0.2849 0.421,-0.4267 0.417,-0.4211 0.841,-0.834 1.247,-1.2656 0.508,-0.5398 1.043,-1.0464 1.654,-1.4682 0.05,-0.028 0.102,-0.043 0.149,-0.04 0.393,0.03 0.738,0.1143 1.061,0.4045 0.691,0.613 1.437,1.1614 2.164,1.7323 0.618,0.4868 1.234,0.9784 1.865,1.4482 0.243,0.1799 0.347,0.4392 0.495,0.6767 0.02,0.03 0.02,0.08 0,0.1143 -0.06,0.2004 -0.111,0.4121 -0.209,0.5956 -0.2,0.3749 -0.432,0.7327 -0.649,1.0987 -0.421,0.704 -0.834,1.4119 -1.261,2.1108 -0.214,0.3483 -0.235,0.3794 -0.05,0.5945 0.413,0.4703 0.757,0.9852 0.993,1.5649 0.114,0.2795 0.236,0.4326 0.588,0.4027 0.483,-0.041 0.975,0.011 1.463,0.021 0.412,0.01 0.822,0.021 1.234,0.028 0.373,0.01 0.747,0.01 1.12,0.01 0.42,0.01 0.794,0.1081 1.033,0.4947 0.03,0.046 0.09,0.069 0.131,0.1041 0.262,1.9181 0.523,3.836 0.775,5.7604 -0.04,0.065 -0.06,0.1208 -0.08,0.1807 -0.04,0.1157 -0.03,0.2742 -0.102,0.3419 -0.181,0.1603 -0.381,0.3222 -0.602,0.4029 -0.441,0.1604 -0.901,0.2655 -1.353,0.3955 -0.447,0.1272 -0.891,0.2546 -1.337,0.3859 -0.474,0.1405 -0.948,0.2831 -1.42,0.4308 -0.05,0.015 -0.114,0.069 -0.122,0.1135 -0.138,0.7126 -0.342,1.4049 -0.59,2.0858 -0.02,0.057 0,0.1627 0.06,0.2093 0.34,0.3505 0.688,0.6942 1.037,1.0355 0.358,0.3466 0.727,0.6789 1.075,1.0336 0.321,0.3296 0.703,0.6093 0.931,1.0234 0.08,0.144 0.239,0.3077 0.214,0.4347 -0.06,0.3403 -0.08,0.7074 -0.355,0.9823 -0.15,0.1533 -0.28,0.3263 -0.413,0.4947 -0.351,0.4419 -0.7,0.8849 -1.046,1.3295 -0.566,0.7248 -1.129,1.4514 -1.691,2.1775 -0.08,0.099 -0.152,0.2 -0.228,0.2985 -0.03,0.035 -0.06,0.078 -0.09,0.099 -0.427,0.2531 -0.871,0.2107 -1.298,0.015 -0.286,-0.1317 -0.548,-0.3132 -0.819,-0.4734 -0.825,-0.495 -1.653,-0.9856 -2.466,-1.4978 -0.166,-0.1048 -0.266,-0.083 -0.412,0.01 -0.578,0.3402 -1.165,0.6661 -1.744,1.0036 -0.06,0.036 -0.13,0.1087 -0.142,0.1728 -0.02,0.1191 0,0.2443 0,0.3671 0,0.426 0.01,0.8515 0.01,1.2774 0,0.5212 -0.02,1.0416 -0.02,1.5626 0,0.5062 0,1.0049 -0.133,1.5069 -0.07,0.283 -0.209,0.4269 -0.457,0.5142 -0.04,0.013 -0.07,0.033 -0.103,0.052 0,0 0,0.026 0.02,0.037 m -12.709,-23.918 c -1.773,2.3958 -2.325,5.045 -1.584,7.9336 0.586,2.2755 1.9,4.0504 3.861,5.3426 1.707,1.1254 3.598,1.5953 5.622,1.4777 0.682,-0.04 1.37,-0.1921 2.028,-0.3862 2.146,-0.6332 3.843,-1.9043 5.048,-3.7899 1.597,-2.5011 1.916,-5.1851 0.975,-7.9935 -0.674,-2.0102 -1.938,-3.5897 -3.727,-4.7272 -2.322,-1.4777 -4.833,-1.8172 -7.472,-1.0919 -1.929,0.5313 -3.504,1.6277 -4.751,3.2348 z"
       id="path1-6-7-2-8-2-2-4-8-5-9-2"
       style="fill:#2b2b2b;fill-opacity:1;stroke-width:0.0394902" /><path
       d="m -16637.955,9737.8994 c 0.95,-1.6992 1.139,-3.5167 0.588,-5.414 -0.498,-1.7134 -1.53,-3.058 -3.058,-3.978 -1.476,-0.8885 -3.006,-1.2329 -4.552,-1.016 -0.704,0.099 -1.411,0.3125 -2.118,0.6441 -2.234,1.0486 -3.536,2.8572 -3.97,5.3026 -0.159,1.0441 -0.09,2.0617 0.209,3.0566 0.513,1.6875 1.509,3.021 3.009,3.9525 1.893,1.1755 3.915,1.4011 6.024,0.7 1.568,-0.5214 2.792,-1.5083 3.667,-2.9095 0.07,-0.1122 0.137,-0.2251 0.2,-0.3384 z"
       style="fill:#c7c7c7;stroke-width:0.0394902"
       id="path328-6-9-6-3-4-2" /><path
       fill="#ffa25a"
       opacity="1"
       stroke="none"
       d="m -12576.09,9695.8906 c 0.918,3.4227 1.834,6.8448 2.775,10.2703 0.138,0.1458 0.273,0.2772 0.367,0.4318 0.24,0.3909 0.666,0.5246 1.031,0.5037 1.324,-0.077 2.644,-0.2341 3.965,-0.3683 1.382,-0.1399 2.76,-0.2945 4.143,-0.4252 0.22,-0.02 0.447,-0.066 0.644,0.1955 0.743,0.9912 1.527,1.952 2.283,2.9326 0.06,0.081 0.09,0.243 0.06,0.3354 -0.734,1.8365 -1.492,3.6632 -2.216,5.5034 -0.304,0.7689 -0.724,1.5089 -0.729,2.3702 0,0.1973 -0.05,0.4362 0.05,0.5846 0.305,0.4941 0.574,1.0222 1.17,1.2752 0.482,0.2048 0.935,0.4842 1.395,0.7362 1.294,0.7052 2.589,1.4092 3.878,2.1211 1.091,0.6035 2.18,1.2138 3.268,1.8277 0.665,0.3763 1.368,0.3562 1.89,-0.181 0.52,-0.5375 0.975,-1.1431 1.435,-1.7372 1.126,-1.4519 2.235,-2.9175 3.364,-4.3682 0.08,-0.1014 0.272,-0.1886 0.396,-0.1705 0.602,0.086 1.196,0.2468 1.801,0.311 0.835,0.089 1.678,0.1118 2.517,0.1724 0.136,0.01 0.263,0.01 0.34,0.2101 0.204,0.5369 0.474,1.0478 0.701,1.5764 0.358,0.8336 0.696,1.6767 1.054,2.5103 0.438,1.0158 0.849,2.0452 1.348,3.0313 0.289,0.5737 0.602,1.2254 1.448,1.1643 0.07,-0.01 0.156,0.095 0.233,0.1464 3.446,-0.9233 6.892,-1.8463 10.341,-2.7905 0.13,-0.1402 0.238,-0.3007 0.388,-0.3672 0.3,-0.1344 0.368,-0.3691 0.418,-0.6583 0.165,-0.9454 -0.05,-1.8708 -0.131,-2.8008 -0.08,-0.8797 -0.215,-1.7545 -0.314,-2.6331 -0.102,-0.8999 -0.168,-1.8046 -0.294,-2.7012 -0.102,-0.7219 -0.102,-0.7088 0.513,-1.1607 0.882,-0.6528 1.751,-1.33 2.584,-2.0445 0.247,-0.2102 0.399,-0.2511 0.675,-0.1209 0.577,0.2711 1.168,0.5085 1.753,0.757 0.956,0.4047 1.907,0.8204 2.869,1.2075 0.974,0.3917 1.899,0.9358 2.997,0.9586 0.55,0.011 0.976,-0.248 1.329,-0.5993 0.264,-0.2626 0.434,-0.6243 0.626,-0.9545 1.328,-2.2919 2.651,-4.5868 3.976,-6.881 0.06,-0.093 0.102,-0.1968 0.168,-0.2776 0.45,-0.5194 0.702,-1.1106 0.692,-1.8069 0,-0.2314 0.104,-0.515 0,-0.6843 -0.233,-0.397 -0.518,-0.7816 -0.854,-1.0954 -0.411,-0.3843 -0.896,-0.6896 -1.348,-1.031 -1.588,-1.2001 -3.177,-2.401 -4.78,-3.612 0.402,-1.2346 0.692,-2.4888 0.648,-3.7908 -0.02,-0.4619 0.216,-0.6497 0.591,-0.7984 1.075,-0.4268 2.145,-0.8649 3.214,-1.3092 1.293,-0.5392 2.594,-1.0646 3.869,-1.6476 0.489,-0.2233 0.877,-0.6134 0.922,-1.2209 0,-0.083 0.07,-0.1582 0.107,-0.237 -0.949,-3.5388 -1.897,-7.0774 -2.867,-10.6202 -0.07,-0.06 -0.124,-0.1232 -0.182,-0.1742 -0.232,-0.2018 -0.444,-0.519 -0.709,-0.5751 -0.565,-0.1194 -1.148,-0.1345 -1.743,-0.045 -1.234,0.1852 -2.479,0.2749 -3.72,0.4195 -1.075,0.1258 -2.15,0.2819 -3.228,0.4006 -0.125,0.013 -0.307,-0.095 -0.392,-0.2029 -0.774,-0.9819 -1.526,-1.9828 -2.303,-2.9622 -0.16,-0.2017 -0.189,-0.3676 -0.09,-0.5894 0.15,-0.3334 0.285,-0.6725 0.424,-1.0098 0.416,-1.0008 0.811,-2.0113 1.252,-3.0009 0.553,-1.2386 1.028,-2.4999 1.309,-3.8295 0.02,-0.088 0,-0.2016 -0.04,-0.282 -0.329,-0.6418 -0.715,-1.163 -1.433,-1.5072 -1.522,-0.7299 -2.977,-1.6015 -4.455,-2.4225 -1.259,-0.7 -2.525,-1.3918 -3.765,-2.1258 -0.476,-0.2819 -0.986,-0.2739 -1.491,-0.353 -0.06,-0.01 -0.147,0.026 -0.197,0.07 -0.294,0.2504 -0.621,0.4768 -0.86,0.7728 -0.488,0.6049 -0.929,1.2489 -1.392,1.8757 -0.892,1.2066 -1.795,2.4046 -2.67,3.6217 -0.437,0.6071 -0.476,0.6644 -0.973,0.4975 -1.086,-0.3641 -2.198,-0.5816 -3.341,-0.5667 -0.553,0.01 -0.899,-0.09 -1.099,-0.7076 -0.272,-0.8457 -0.707,-1.6384 -1.072,-2.4542 -0.308,-0.6875 -0.618,-1.3738 -0.92,-2.063 -0.276,-0.6261 -0.54,-1.2563 -0.812,-1.8832 -0.307,-0.7049 -0.744,-1.2617 -1.566,-1.393 -0.102,-0.015 -0.179,-0.097 -0.268,-0.1484 -3.423,0.9169 -6.845,1.834 -10.271,2.7719 -0.08,0.1041 -0.157,0.1943 -0.245,0.2675 -0.17,0.1417 -0.446,0.2404 -0.505,0.4159 -0.143,0.4151 -0.275,0.8692 -0.255,1.2999 0.04,0.8567 0.19,1.7085 0.291,2.5624 0.102,0.8422 0.2,1.6847 0.294,2.5274 0.102,0.9002 0.194,1.8012 0.279,2.7027 0,0.094 -0.04,0.2415 -0.104,0.2879 -1.106,0.736 -2.129,1.5717 -3.104,2.4728 -0.08,0.076 -0.282,0.095 -0.392,0.053 -0.832,-0.3269 -1.659,-0.6701 -2.482,-1.0197 -0.839,-0.355 -1.661,-0.744 -2.504,-1.0788 -0.786,-0.3107 -1.526,-0.7537 -2.388,-0.8485 -0.301,-0.034 -0.689,-0.1842 -0.886,-0.054 -0.529,0.3482 -1.132,0.6472 -1.405,1.2962 -0.153,0.3616 -0.353,0.7041 -0.542,1.0491 -0.498,0.9039 -0.998,1.8061 -1.503,2.7058 -0.823,1.4668 -1.651,2.9307 -2.478,4.3955 -0.112,0.1993 -0.231,0.3954 -0.343,0.5947 -0.04,0.072 -0.09,0.1464 -0.103,0.2249 -0.122,0.9029 0.261,1.62 0.894,2.2021 0.423,0.3894 0.915,0.7043 1.381,1.0457 1.42,1.0394 2.833,2.09 4.273,3.1008 0.294,0.2056 0.326,0.3896 0.283,0.6994 -0.162,1.216 -0.299,2.436 -0.459,3.6529 -0.02,0.1303 -0.09,0.2979 -0.191,0.3628 -0.185,0.1194 -0.413,0.1702 -0.621,0.2546 -0.721,0.2937 -1.445,0.5812 -2.163,0.8861 -0.878,0.373 -1.745,0.7705 -2.623,1.1409 -0.853,0.36 -1.699,0.7049 -2.449,1.2912 -0.422,0.33 -0.572,0.6537 -0.543,1.1342 0,0.066 0,0.1351 -0.02,0.2018 0,0 -0.05,2e-4 -0.07,-0.01 m 49.363,4.512 c -2.786,4.69 -6.865,7.4994 -12.266,8.2909 -4.256,0.6232 -8.181,-0.3388 -11.751,-2.7321 -3.107,-2.0827 -5.238,-4.9419 -6.473,-8.4418 -0.417,-1.1787 -0.645,-2.448 -0.784,-3.6953 -0.451,-4.0713 0.492,-7.8361 2.821,-11.203 3.091,-4.4654 7.394,-6.9053 12.801,-7.3048 3.87,-0.2863 7.43,0.7285 10.617,2.9415 4.137,2.8733 6.488,6.8708 7.132,11.8368 0.469,3.6319 -0.266,7.067 -2.097,10.3078 z"
       id="path1-6-7-6-0-5-7-2-5-1-8"
       style="fill:#5f5f5f;fill-opacity:1;stroke-width:0.0722737" /><path
       d="m -12527.596,9688.2205 c 0.366,1.3857 0.519,2.8691 0.454,4.446 -0.207,4.9763 -2.556,8.8115 -6.768,11.528 -1.819,1.1111 -3.766,1.7801 -5.852,1.9966 -3.54,0.3675 -6.802,-0.4483 -9.707,-2.5131 -3.665,-2.6045 -5.663,-6.1915 -6.005,-10.664 -0.254,-3.3262 0.628,-6.3746 2.551,-9.0972 2.468,-3.4892 5.866,-5.4737 10.091,-5.9601 3.577,-0.4116 6.885,0.4573 9.79,2.584 2.807,2.0543 4.641,4.6304 5.446,7.6798 z m -1.276,0.3588 c -0.73,-2.7649 -2.393,-5.1008 -4.938,-6.964 -2.634,-1.9282 -5.634,-2.7163 -8.878,-2.343 -3.832,0.4409 -6.914,2.2407 -9.15,5.4047 -1.745,2.4686 -2.544,5.2331 -2.314,8.2494 0.31,4.0556 2.122,7.3081 5.446,9.67 2.634,1.8726 5.592,2.6122 8.802,2.2792 1.891,-0.1964 3.657,-0.8029 5.306,-1.8104 3.819,-2.4635 5.95,-5.9414 6.136,-10.4538 0.06,-1.4297 -0.08,-2.7752 -0.41,-4.0321 z"
       style="fill:#c7c7c7;fill-opacity:1;stroke-width:0.0722737"
       id="path326-0-2-6-7-2-5-0-3-4" /><path
       fill="#ffa25a"
       opacity="1"
       stroke="none"
       d="m -12505.82,9709.766 c 1.648,1.6468 3.294,3.2938 4.956,4.9355 0.127,0.038 0.245,0.069 0.35,0.125 0.265,0.1439 0.553,0.081 0.752,-0.052 0.73,-0.4786 1.429,-1.0025 2.138,-1.5131 0.74,-0.5337 1.474,-1.075 2.218,-1.6036 0.119,-0.085 0.233,-0.1852 0.431,-0.1013 0.748,0.3201 1.511,0.6098 2.264,0.9191 0.07,0.026 0.13,0.1088 0.14,0.1736 0.185,1.2867 0.355,2.5759 0.547,3.8619 0.08,0.5372 0.08,1.0962 0.364,1.5886 0.07,0.1126 0.119,0.2634 0.219,0.3176 0.336,0.1812 0.664,0.3931 1.086,0.3414 0.342,-0.042 0.69,-0.032 1.036,-0.039 0.968,-0.023 1.936,-0.048 2.904,-0.066 0.821,-0.015 1.642,-0.026 2.462,-0.034 0.504,-0.01 0.896,-0.2486 1.016,-0.7239 0.12,-0.4776 0.179,-0.9715 0.247,-1.4609 0.163,-1.1971 0.313,-2.396 0.479,-3.5924 0,-0.085 0.09,-0.1969 0.169,-0.2276 0.371,-0.1492 0.762,-0.2526 1.128,-0.4146 0.505,-0.2238 0.991,-0.4882 1.489,-0.7294 0.08,-0.037 0.152,-0.082 0.263,0.01 0.293,0.2387 0.614,0.4408 0.918,0.6672 0.478,0.357 0.947,0.7256 1.426,1.0825 0.582,0.4345 1.155,0.8852 1.762,1.2829 0.354,0.2315 0.745,0.4994 1.207,0.187 0.04,-0.027 0.12,0.01 0.181,0.01 1.659,-1.6582 3.316,-3.3163 4.97,-4.9878 0.03,-0.1227 0.04,-0.2494 0.102,-0.337 0.127,-0.175 0.09,-0.3309 0.02,-0.5122 -0.217,-0.5924 -0.641,-1.0506 -0.996,-1.5514 -0.337,-0.4741 -0.699,-0.9285 -1.045,-1.3957 -0.354,-0.4787 -0.689,-0.972 -1.055,-1.4412 -0.295,-0.3777 -0.29,-0.371 -0.09,-0.8294 0.289,-0.6619 0.561,-1.333 0.801,-2.0138 0.07,-0.2007 0.143,-0.2737 0.343,-0.2903 0.417,-0.036 0.832,-0.094 1.248,-0.1457 0.677,-0.083 1.355,-0.1595 2.029,-0.2556 0.684,-0.097 1.389,-0.091 2.022,-0.4388 0.317,-0.1741 0.476,-0.4622 0.559,-0.7783 0.07,-0.236 0.05,-0.4982 0.05,-0.749 0,-1.7418 0,-3.4828 0,-5.2247 0,-0.071 0,-0.144 0,-0.2128 0.08,-0.4439 0.04,-0.8634 -0.199,-1.2565 -0.08,-0.1305 -0.111,-0.3276 -0.221,-0.3919 -0.263,-0.1501 -0.553,-0.2748 -0.847,-0.3428 -0.361,-0.084 -0.736,-0.098 -1.106,-0.144 -1.3,-0.161 -2.598,-0.3226 -3.909,-0.4853 -0.178,-0.8348 -0.423,-1.645 -0.878,-2.3714 -0.159,-0.2578 -0.09,-0.4408 0.07,-0.6487 0.473,-0.596 0.937,-1.1973 1.399,-1.8016 0.561,-0.7324 1.129,-1.459 1.663,-2.2099 0.205,-0.2879 0.297,-0.6372 0.122,-0.9979 -0.03,-0.048 0,-0.1125 -0.02,-0.1699 -1.702,-1.7031 -3.406,-3.406 -5.122,-5.1041 -0.07,-0.011 -0.112,-0.03 -0.163,-0.039 -0.197,-0.038 -0.422,-0.15 -0.59,-0.094 -0.362,0.1166 -0.698,0.3007 -1.008,0.5476 -0.642,0.5108 -1.321,0.9717 -1.981,1.4613 -0.57,0.4259 -1.131,0.8676 -1.705,1.2897 -0.06,0.048 -0.207,0.046 -0.289,0.012 -0.765,-0.3045 -1.522,-0.6273 -2.287,-0.9293 -0.157,-0.062 -0.226,-0.1473 -0.243,-0.3058 -0.03,-0.2385 -0.06,-0.4759 -0.09,-0.7138 -0.09,-0.7067 -0.2,-1.4119 -0.272,-2.1206 -0.102,-0.8865 -0.237,-1.7609 -0.516,-2.61 -0.02,-0.056 -0.06,-0.1159 -0.115,-0.1476 -0.397,-0.2577 -0.789,-0.4272 -1.31,-0.3873 -1.107,0.085 -2.222,0.066 -3.333,0.085 -0.947,0.015 -1.895,0.037 -2.842,0.028 -0.365,-0.01 -0.652,0.1692 -0.965,0.2892 -0.04,0.015 -0.07,0.062 -0.09,0.1049 -0.08,0.2387 -0.195,0.475 -0.235,0.7222 -0.08,0.5051 -0.119,1.017 -0.176,1.5258 -0.112,0.9798 -0.231,1.9589 -0.33,2.9399 -0.05,0.4889 -0.06,0.5339 -0.39,0.6021 -0.737,0.1498 -1.442,0.3923 -2.089,0.7761 -0.312,0.1862 -0.54,0.2432 -0.856,-0.043 -0.434,-0.3918 -0.943,-0.6998 -1.419,-1.0445 -0.401,-0.2901 -0.803,-0.5788 -1.201,-0.8719 -0.362,-0.266 -0.721,-0.5379 -1.082,-0.8053 -0.406,-0.3007 -0.838,-0.474 -1.349,-0.2784 -0.06,0.025 -0.134,0.01 -0.202,0.01 -1.647,1.6473 -3.294,3.294 -4.937,4.9547 0,0.086 -0.03,0.162 -0.05,0.2326 -0.05,0.1365 -0.174,0.2829 -0.151,0.4025 0.06,0.2839 0.128,0.5856 0.283,0.8238 0.304,0.4742 0.669,0.9103 1.008,1.3631 0.333,0.4468 0.667,0.8933 0.997,1.3426 0.353,0.4798 0.704,0.9616 1.047,1.4469 0.04,0.051 0.06,0.1487 0.04,0.198 -0.389,0.7826 -0.696,1.5945 -0.954,2.4277 -0.02,0.07 -0.129,0.1473 -0.207,0.159 -0.581,0.087 -1.166,0.1641 -1.749,0.2357 -0.593,0.074 -1.188,0.1222 -1.781,0.2091 -0.547,0.082 -1.114,0.073 -1.636,0.3016 -0.183,0.081 -0.453,0.1211 -0.522,0.2603 -0.187,0.372 -0.432,0.7406 -0.375,1.2001 0.04,0.2562 0.04,0.5167 0.04,0.7755 0,0.678 0.03,1.3562 0.04,2.0343 0,1.106 0.03,2.2113 0.04,3.3168 0,0.1508 0,0.3012 0,0.4515 0,0.055 0,0.1139 0.02,0.1621 0.226,0.5541 0.681,0.8361 1.233,0.9596 0.368,0.083 0.752,0.1004 1.131,0.1415 1.15,0.1251 2.299,0.2587 3.451,0.3609 0.235,0.02 0.314,0.1143 0.392,0.3046 0.306,0.7467 0.629,1.4858 0.938,2.2309 0.04,0.081 0.05,0.1989 0,0.2695 -0.06,0.1283 -0.179,0.2325 -0.269,0.3489 -0.314,0.4046 -0.632,0.8063 -0.94,1.2156 -0.377,0.5011 -0.74,1.0123 -1.119,1.5119 -0.368,0.4853 -0.735,0.9595 -0.97,1.5398 -0.13,0.327 -0.111,0.5608 0.07,0.8252 0.03,0.036 0.04,0.081 0.06,0.1209 0,0 -0.03,0.016 -0.05,0.026 m 29.588,-13.6569 c -0.05,3.5863 -1.445,6.5266 -4.26,8.7522 -2.218,1.7534 -4.769,2.4962 -7.588,2.3071 -2.454,-0.1645 -4.607,-1.0915 -6.461,-2.6782 -0.624,-0.5343 -1.172,-1.1816 -1.661,-1.8464 -1.594,-2.1694 -2.294,-4.6227 -2.075,-7.3056 0.291,-3.5579 1.939,-6.3617 4.886,-8.3663 2.109,-1.4348 4.47,-2.0272 7.012,-1.8147 3.299,0.2756 5.952,1.7787 7.95,4.3944 1.462,1.9136 2.174,4.1106 2.197,6.5575 z"
       id="path1-6-7-2-1-1-5-80-3-4-5-2"
       style="fill:#5f5f5f;fill-opacity:1;stroke-width:0.0475129" /><path
       d="m -12480.732,9689.4592 c 0.662,0.6687 1.238,1.4629 1.719,2.3822 1.519,2.9007 1.442,5.8565 -0.06,8.7877 -0.669,1.2304 -1.557,2.2512 -2.674,3.0602 -1.896,1.3727 -4.02,1.9803 -6.353,1.7598 -2.943,-0.2785 -5.26,-1.6632 -6.924,-4.0975 -1.239,-1.8102 -1.739,-3.8355 -1.538,-6.018 0.258,-2.7969 1.54,-5.0438 3.785,-6.7098 1.903,-1.4106 4.072,-2.0027 6.425,-1.7464 2.272,0.2469 4.163,1.1106 5.624,2.5823 z m -0.609,0.6236 c -1.323,-1.3342 -3.039,-2.1176 -5.1,-2.3417 -2.134,-0.2317 -4.1,0.3053 -5.825,1.5833 -2.037,1.5108 -3.199,3.5479 -3.433,6.0846 -0.182,1.9792 0.272,3.8156 1.395,5.4571 1.509,2.207 3.609,3.4632 6.278,3.7155 2.116,0.2003 4.042,-0.3506 5.762,-1.5958 1.012,-0.7336 1.816,-1.6589 2.425,-2.7749 1.365,-2.6581 1.434,-5.3382 0.06,-7.9688 -0.435,-0.8333 -0.958,-1.5536 -1.56,-2.1603 z"
       style="fill:#c7c7c7;fill-opacity:1;stroke-width:0.0475129"
       id="path326-0-3-0-9-0-4-9-9-4-1" /><path
       fill="#ffa25a"
       opacity="1"
       stroke="none"
       d="m -12483.663,9753.2337 c 0.778,1.3368 1.559,2.6738 2.351,4.0096 0.07,0.045 0.146,0.085 0.203,0.1397 0.147,0.1373 0.341,0.1446 0.493,0.093 0.549,-0.1847 1.088,-0.4033 1.63,-0.6119 0.565,-0.2182 1.13,-0.442 1.696,-0.6563 0.09,-0.035 0.182,-0.08 0.295,0.01 0.426,0.3321 0.868,0.6472 1.299,0.9732 0.04,0.027 0.06,0.092 0.06,0.1352 -0.102,0.8587 -0.208,1.7161 -0.301,2.5754 -0.04,0.3588 -0.131,0.7189 -0.03,1.0827 0.02,0.084 0.03,0.1894 0.08,0.2411 0.184,0.1733 0.359,0.3649 0.64,0.4028 0.226,0.032 0.449,0.097 0.673,0.15 0.627,0.148 1.253,0.2958 1.878,0.4473 0.53,0.1288 1.06,0.2608 1.589,0.394 0.323,0.082 0.616,-0.01 0.775,-0.2938 0.157,-0.2867 0.279,-0.5942 0.405,-0.8975 0.307,-0.742 0.607,-1.4875 0.914,-2.2287 0.02,-0.052 0.102,-0.1109 0.148,-0.1177 0.264,-0.034 0.533,-0.034 0.795,-0.077 0.362,-0.058 0.72,-0.1463 1.081,-0.2174 0.06,-0.01 0.111,-0.027 0.167,0.049 0.149,0.2029 0.322,0.3872 0.476,0.5838 0.248,0.3102 0.487,0.6265 0.736,0.9367 0.301,0.3778 0.593,0.7643 0.916,1.1226 0.187,0.2086 0.395,0.4469 0.745,0.3241 0.03,-0.01 0.07,0.022 0.115,0.035 1.345,-0.7859 2.692,-1.572 4.036,-2.3672 0.04,-0.074 0.06,-0.1541 0.123,-0.1997 0.111,-0.091 0.113,-0.1979 0.103,-0.3259 -0.04,-0.4176 -0.236,-0.7835 -0.379,-1.1654 -0.135,-0.3614 -0.293,-0.715 -0.436,-1.0738 -0.147,-0.3676 -0.278,-0.7412 -0.435,-1.1046 -0.125,-0.2926 -0.124,-0.2875 0.08,-0.5485 0.298,-0.3767 0.585,-0.7623 0.854,-1.1594 0.08,-0.1172 0.139,-0.1518 0.27,-0.1287 0.274,0.048 0.551,0.081 0.827,0.1171 0.449,0.06 0.898,0.1263 1.349,0.1785 0.455,0.053 0.907,0.176 1.372,0.059 0.234,-0.058 0.384,-0.217 0.491,-0.4058 0.08,-0.1409 0.112,-0.3131 0.154,-0.4744 0.295,-1.1197 0.588,-2.239 0.883,-3.3588 0,-0.045 0.02,-0.094 0.04,-0.1362 0.13,-0.271 0.166,-0.5495 0.08,-0.8416 -0.03,-0.097 -0.02,-0.2292 -0.07,-0.2891 -0.144,-0.1409 -0.308,-0.2699 -0.486,-0.3634 -0.218,-0.1146 -0.457,-0.1877 -0.687,-0.2794 -0.808,-0.3228 -1.615,-0.6459 -2.43,-0.972 0.03,-0.5666 0,-1.129 -0.164,-1.6727 -0.06,-0.193 0.02,-0.2985 0.156,-0.4045 0.405,-0.3035 0.805,-0.6115 1.204,-0.9221 0.484,-0.3761 0.971,-0.7474 1.442,-1.14 0.18,-0.1504 0.299,-0.3594 0.248,-0.6207 0,-0.035 0,-0.075 0.02,-0.1121 -0.808,-1.3825 -1.614,-2.7649 -2.431,-4.1465 -0.04,-0.018 -0.07,-0.037 -0.103,-0.052 -0.122,-0.058 -0.248,-0.1679 -0.365,-0.1608 -0.252,0.014 -0.499,0.076 -0.739,0.1819 -0.499,0.2202 -1.014,0.4015 -1.52,0.6053 -0.44,0.1771 -0.875,0.3665 -1.316,0.5408 -0.05,0.02 -0.139,-0.01 -0.188,-0.04 -0.44,-0.3249 -0.872,-0.66 -1.313,-0.9836 -0.09,-0.067 -0.121,-0.133 -0.104,-0.2377 0.03,-0.1576 0.05,-0.3162 0.06,-0.4745 0.06,-0.4698 0.111,-0.9413 0.182,-1.4094 0.09,-0.5855 0.146,-1.172 0.11,-1.7649 0,-0.04 -0.02,-0.085 -0.05,-0.1142 -0.212,-0.2328 -0.436,-0.4078 -0.778,-0.4703 -0.725,-0.1322 -1.439,-0.3323 -2.157,-0.5081 -0.612,-0.1497 -1.224,-0.2957 -1.832,-0.4624 -0.232,-0.063 -0.447,0 -0.669,0.023 -0.03,0.01 -0.06,0.028 -0.07,0.052 -0.102,0.139 -0.206,0.2723 -0.273,0.4246 -0.136,0.3112 -0.249,0.6336 -0.371,0.9511 -0.238,0.6112 -0.479,1.2203 -0.709,1.8343 -0.115,0.306 -0.122,0.3344 -0.353,0.3213 -0.499,-0.029 -0.993,0.01 -1.474,0.1463 -0.231,0.068 -0.387,0.064 -0.544,-0.172 -0.212,-0.3251 -0.487,-0.609 -0.735,-0.9111 -0.209,-0.2543 -0.418,-0.5075 -0.625,-0.7634 -0.189,-0.2322 -0.372,-0.4674 -0.559,-0.7004 -0.21,-0.2618 -0.459,-0.4462 -0.82,-0.4067 -0.05,0.01 -0.09,-0.02 -0.131,-0.032 -1.337,0.781 -2.674,1.5614 -4.01,2.3517 -0.02,0.054 -0.05,0.1003 -0.07,0.1408 -0.06,0.08 -0.158,0.1526 -0.164,0.2333 0,0.1916 -0.02,0.3981 0.05,0.5775 0.116,0.3561 0.277,0.6981 0.418,1.0464 0.14,0.3435 0.279,0.6869 0.415,1.0316 0.145,0.368 0.29,0.7368 0.43,1.1071 0.02,0.038 0,0.1057 -0.01,0.1335 -0.38,0.4378 -0.715,0.9077 -1.022,1.3999 -0.03,0.042 -0.107,0.073 -0.16,0.067 -0.388,-0.041 -0.776,-0.091 -1.163,-0.1439 -0.393,-0.053 -0.786,-0.1223 -1.181,-0.1663 -0.366,-0.04 -0.729,-0.1418 -1.103,-0.083 -0.131,0.021 -0.311,0.01 -0.38,0.08 -0.183,0.2078 -0.403,0.4032 -0.443,0.7085 -0.02,0.1702 -0.06,0.3376 -0.107,0.5047 -0.107,0.4379 -0.214,0.876 -0.322,1.3133 -0.181,0.7132 -0.358,1.4257 -0.541,2.1379 -0.03,0.097 -0.05,0.1937 -0.07,0.2902 0,0.035 -0.02,0.073 -0.02,0.1071 0.06,0.3946 0.297,0.6526 0.63,0.825 0.224,0.1157 0.467,0.1916 0.704,0.2819 0.718,0.2745 1.434,0.5546 2.158,0.815 0.147,0.053 0.181,0.1264 0.201,0.2618 0.07,0.5319 0.153,1.0617 0.226,1.5931 0,0.056 0,0.1358 -0.04,0.1752 -0.06,0.071 -0.154,0.1193 -0.232,0.1787 -0.271,0.2071 -0.544,0.4116 -0.81,0.6227 -0.326,0.2583 -0.648,0.526 -0.974,0.783 -0.319,0.2499 -0.636,0.4928 -0.885,0.8261 -0.14,0.1881 -0.166,0.3418 -0.102,0.5414 0,0.028 0,0.057 0.02,0.087 0,0 -0.02,0.01 -0.04,0.01 m 21.328,-3.7833 c -0.635,2.2978 -2.03,3.9519 -4.217,4.9073 -1.721,0.7528 -3.487,0.7996 -5.268,0.2019 -1.549,-0.5201 -2.777,-1.4797 -3.699,-2.8127 -0.313,-0.4491 -0.555,-0.9577 -0.758,-1.4675 -0.659,-1.6643 -0.695,-3.3596 -0.102,-5.0474 0.787,-2.2381 2.321,-3.7623 4.554,-4.5533 1.598,-0.5663 3.216,-0.5487 4.814,0.017 2.074,0.7346 3.526,2.1489 4.369,4.168 0.617,1.4769 0.702,3.0096 0.305,4.5865 z"
       id="path1-6-7-2-1-1-5-8-6-9-4-54-2"
       style="fill:#5f5f5f;fill-opacity:1;stroke-width:0.0315816" /><path
       d="m -12464.108,9744.4152 c 0.315,0.5419 0.55,1.1496 0.704,1.8218 0.486,2.1214 -0.07,4.0085 -1.524,5.6388 -0.639,0.6778 -1.383,1.184 -2.237,1.5156 -1.451,0.5626 -2.92,0.5943 -4.38,0.058 -1.847,-0.6758 -3.101,-1.9574 -3.761,-3.8034 -0.49,-1.3728 -0.47,-2.7594 0.03,-4.1287 0.638,-1.7545 1.841,-2.9826 3.567,-3.6742 1.461,-0.5859 2.955,-0.6002 4.424,-0.038 1.419,0.5426 2.49,1.4172 3.18,2.61 z m -0.496,0.2981 c -0.625,-1.0815 -1.596,-1.8745 -2.883,-2.3668 -1.333,-0.5092 -2.689,-0.4961 -4.012,0.035 -1.564,0.6272 -2.656,1.7408 -3.235,3.332 -0.452,1.2416 -0.468,2.4989 -0.03,3.7437 0.6,1.6739 1.738,2.8362 3.41,3.449 1.326,0.4859 2.658,0.4572 3.973,-0.053 0.774,-0.3008 1.449,-0.7596 2.028,-1.3743 1.326,-1.4784 1.824,-3.1896 1.383,-5.1134 -0.14,-0.6093 -0.355,-1.1604 -0.639,-1.6523 z"
       style="fill:#c7c7c7;fill-opacity:1;stroke-width:0.0315816"
       id="path326-0-3-0-9-0-5-3-2-1-8-5" /><path
       fill="#ffa25a"
       opacity="1"
       stroke="none"
       d="m -12504.264,9752.828 c 1.919,0.2613 3.837,0.5224 5.761,0.7733 0.102,-0.04 0.195,-0.082 0.295,-0.093 0.247,-0.038 0.406,-0.2244 0.473,-0.4128 0.24,-0.6836 0.441,-1.3822 0.653,-2.0761 0.221,-0.7253 0.434,-1.4529 0.661,-2.177 0.04,-0.1155 0.06,-0.2402 0.233,-0.2837 0.657,-0.1646 1.307,-0.3554 1.96,-0.5309 0.06,-0.013 0.142,0.01 0.179,0.044 0.772,0.7574 1.532,1.5255 2.306,2.2801 0.323,0.3148 0.607,0.6826 1.04,0.8677 0.102,0.043 0.211,0.1151 0.305,0.1003 0.314,-0.049 0.637,-0.074 0.889,-0.3207 0.205,-0.1994 0.442,-0.3675 0.666,-0.5467 0.628,-0.5027 1.258,-1.0059 1.888,-1.5052 0.536,-0.4226 1.074,-0.8421 1.612,-1.2604 0.33,-0.2563 0.468,-0.6147 0.308,-0.9902 -0.161,-0.3764 -0.368,-0.7333 -0.571,-1.0907 -0.493,-0.8743 -0.999,-1.7431 -1.489,-2.6179 -0.04,-0.061 -0.04,-0.1768 0,-0.2358 0.169,-0.2858 0.376,-0.5504 0.537,-0.8414 0.22,-0.4017 0.411,-0.8217 0.617,-1.2316 0.04,-0.067 0.07,-0.1312 0.178,-0.1277 0.315,0.011 0.629,-0.017 0.942,-0.019 0.496,-0.01 0.993,0.01 1.489,0 0.605,-0.01 1.21,0.01 1.812,-0.038 0.35,-0.025 0.744,-0.045 0.893,-0.4839 0,-0.039 0.08,-0.059 0.122,-0.086 0.264,-1.9309 0.527,-3.8621 0.781,-5.7999 -0.05,-0.096 -0.102,-0.1834 -0.104,-0.2731 0,-0.1801 -0.108,-0.2639 -0.243,-0.3505 -0.441,-0.2826 -0.952,-0.3729 -1.439,-0.5261 -0.462,-0.1444 -0.928,-0.2621 -1.393,-0.3975 -0.475,-0.1389 -0.945,-0.2968 -1.423,-0.423 -0.385,-0.1024 -0.377,-0.099 -0.476,-0.5038 -0.142,-0.5833 -0.301,-1.1635 -0.486,-1.7346 -0.06,-0.1679 -0.05,-0.2532 0.08,-0.3651 0.258,-0.2329 0.503,-0.4805 0.751,-0.7239 0.407,-0.3952 0.817,-0.7869 1.215,-1.1903 0.403,-0.4076 0.873,-0.7578 1.117,-1.3063 0.123,-0.2752 0.08,-0.5451 -0.02,-0.7969 -0.07,-0.1886 -0.224,-0.3509 -0.351,-0.517 -0.873,-1.1538 -1.749,-2.3053 -2.625,-3.4579 -0.04,-0.047 -0.08,-0.091 -0.105,-0.1432 -0.167,-0.3366 -0.412,-0.5887 -0.764,-0.7307 -0.117,-0.047 -0.237,-0.1617 -0.344,-0.1482 -0.248,0.033 -0.502,0.096 -0.731,0.1965 -0.282,0.1262 -0.539,0.3041 -0.806,0.4611 -0.94,0.5464 -1.88,1.0928 -2.831,1.6439 -0.536,-0.463 -1.107,-0.8752 -1.773,-1.1283 -0.235,-0.089 -0.281,-0.2458 -0.278,-0.4662 0.01,-0.6314 0.02,-1.2639 0.02,-1.8955 0,-0.7658 0,-1.5328 0,-2.2983 0,-0.2932 -0.125,-0.5713 -0.422,-0.722 -0.04,-0.019 -0.06,-0.069 -0.103,-0.1041 -1.983,-0.2703 -3.966,-0.5404 -5.955,-0.8004 -0.05,0.024 -0.09,0.035 -0.128,0.052 -0.152,0.075 -0.357,0.1123 -0.44,0.235 -0.182,0.2586 -0.31,0.5499 -0.392,0.8692 -0.167,0.6597 -0.386,1.3071 -0.574,1.9621 -0.164,0.5695 -0.314,1.1433 -0.48,1.7119 -0.02,0.066 -0.114,0.134 -0.187,0.154 -0.658,0.182 -1.321,0.3485 -1.979,0.5333 -0.136,0.036 -0.225,0.017 -0.315,-0.08 -0.139,-0.1453 -0.281,-0.2849 -0.421,-0.4267 -0.417,-0.4211 -0.841,-0.834 -1.247,-1.2656 -0.508,-0.5399 -1.043,-1.0464 -1.654,-1.4682 -0.05,-0.028 -0.102,-0.043 -0.149,-0.04 -0.393,0.03 -0.738,0.1143 -1.061,0.4046 -0.691,0.6129 -1.437,1.1614 -2.164,1.7323 -0.618,0.4868 -1.234,0.9784 -1.865,1.4482 -0.243,0.1799 -0.347,0.4392 -0.495,0.6767 -0.02,0.03 -0.02,0.08 0,0.1143 0.06,0.2003 0.111,0.412 0.209,0.5956 0.2,0.3749 0.432,0.7327 0.649,1.0987 0.421,0.704 0.834,1.4119 1.261,2.1108 0.214,0.3483 0.235,0.3794 0.05,0.5945 -0.413,0.4703 -0.757,0.9851 -0.993,1.5649 -0.114,0.2795 -0.236,0.4326 -0.588,0.4027 -0.483,-0.041 -0.975,0.011 -1.463,0.021 -0.412,0.01 -0.822,0.021 -1.234,0.028 -0.373,0.01 -0.747,0.01 -1.12,0.01 -0.42,0.01 -0.794,0.1081 -1.033,0.4947 -0.03,0.046 -0.09,0.069 -0.131,0.1041 -0.262,1.9181 -0.523,3.836 -0.775,5.7604 0.04,0.065 0.06,0.1208 0.08,0.1807 0.04,0.1157 0.03,0.2742 0.102,0.3419 0.181,0.1603 0.381,0.3222 0.602,0.4029 0.441,0.1604 0.901,0.2654 1.353,0.3955 0.447,0.1272 0.891,0.2546 1.337,0.3858 0.474,0.1405 0.948,0.2832 1.42,0.4309 0.05,0.015 0.114,0.069 0.122,0.1134 0.138,0.7127 0.342,1.4049 0.59,2.0859 0.02,0.057 0,0.1627 -0.06,0.2093 -0.34,0.3505 -0.688,0.6942 -1.037,1.0355 -0.358,0.3466 -0.727,0.6789 -1.075,1.0336 -0.321,0.3296 -0.703,0.6093 -0.931,1.0234 -0.08,0.144 -0.239,0.3077 -0.214,0.4347 0.06,0.3403 0.08,0.7074 0.355,0.9823 0.15,0.1533 0.28,0.3263 0.413,0.4947 0.351,0.4418 0.7,0.8848 1.046,1.3294 0.566,0.7248 1.129,1.4514 1.691,2.1775 0.08,0.099 0.152,0.2001 0.228,0.2986 0.03,0.035 0.06,0.078 0.09,0.099 0.427,0.2531 0.871,0.2107 1.298,0.015 0.286,-0.1317 0.548,-0.3133 0.819,-0.4735 0.825,-0.495 1.653,-0.9856 2.466,-1.4977 0.166,-0.1048 0.266,-0.083 0.412,0.01 0.578,0.3402 1.165,0.6661 1.744,1.0036 0.06,0.036 0.13,0.1087 0.142,0.1728 0.02,0.1191 0,0.2443 0,0.3671 0,0.4259 -0.01,0.8515 -0.01,1.2774 0,0.5212 0.02,1.0416 0.02,1.5626 0,0.5062 0,1.0049 0.133,1.5069 0.07,0.283 0.209,0.4269 0.457,0.5142 0.04,0.013 0.07,0.033 0.103,0.052 0,0 0,0.026 -0.02,0.037 m 12.709,-23.918 c 1.773,2.3958 2.325,5.045 1.584,7.9336 -0.586,2.2755 -1.9,4.0504 -3.861,5.3426 -1.707,1.1254 -3.598,1.5953 -5.622,1.4777 -0.682,-0.04 -1.37,-0.1922 -2.028,-0.3863 -2.146,-0.6332 -3.843,-1.9043 -5.048,-3.7899 -1.597,-2.501 -1.916,-5.1851 -0.975,-7.9935 0.674,-2.0102 1.938,-3.5897 3.727,-4.7272 2.322,-1.4776 4.833,-1.8171 7.472,-1.0918 1.929,0.5313 3.504,1.6276 4.751,3.2348 z"
       id="path1-6-7-2-8-2-2-4-8-5-9-2-0"
       style="fill:#5f5f5f;fill-opacity:1;stroke-width:0.0394902" /><path
       d="m -12504.989,9737.8994 c -0.95,-1.6992 -1.139,-3.5167 -0.588,-5.414 0.498,-1.7134 1.53,-3.0581 3.058,-3.978 1.476,-0.8885 3.006,-1.2329 4.552,-1.016 0.704,0.099 1.411,0.3125 2.118,0.6441 2.234,1.0486 3.536,2.8572 3.97,5.3026 0.159,1.0441 0.09,2.0617 -0.209,3.0566 -0.513,1.6875 -1.509,3.021 -3.009,3.9525 -1.893,1.1755 -3.915,1.4011 -6.024,0.7 -1.568,-0.5214 -2.792,-1.5083 -3.667,-2.9095 -0.07,-0.1122 -0.137,-0.2251 -0.2,-0.3384 z"
       style="fill:#c7c7c7;stroke-width:0.0394902"
       id="path328-6-9-6-3-4-2-2" /><path
       fill="#ffa25a"
       opacity="1"
       stroke="none"
       d="m -13621.649,9733.3065 c 0,-3.5523 0,-7.1041 0.02,-10.6649 0.1,-0.1772 0.191,-0.3391 0.243,-0.5134 0.131,-0.4407 0.509,-0.6808 0.868,-0.7551 1.302,-0.2699 2.621,-0.4595 3.935,-0.6724 1.374,-0.2228 2.749,-0.4312 4.121,-0.6632 0.22,-0.037 0.452,-0.052 0.574,-0.3564 0.462,-1.1525 0.971,-2.2862 1.449,-3.4322 0.04,-0.094 0.03,-0.2587 -0.04,-0.3384 -1.187,-1.5881 -2.395,-3.1603 -3.574,-4.7543 -0.493,-0.6659 -1.091,-1.2736 -1.321,-2.1061 -0.06,-0.1907 -0.157,-0.4106 -0.107,-0.578 0.168,-0.5578 0.291,-1.1392 0.803,-1.5387 0.414,-0.3235 0.778,-0.711 1.159,-1.0748 1.07,-1.0185 2.14,-2.036 3.204,-3.0599 0.902,-0.8678 1.797,-1.7414 2.691,-2.6178 0.549,-0.5375 1.234,-0.7002 1.878,-0.3151 0.644,0.3853 1.24,0.8537 1.841,1.3096 1.466,1.114 2.92,2.2452 4.389,3.3573 0.103,0.078 0.313,0.112 0.428,0.062 0.561,-0.2397 1.094,-0.5493 1.663,-0.7682 0.786,-0.3034 1.596,-0.5437 2.392,-0.8201 0.13,-0.045 0.253,-0.076 0.275,-0.2917 0.05,-0.5728 0.188,-1.1377 0.27,-1.7084 0.131,-0.9003 0.239,-1.8043 0.37,-2.7047 0.16,-1.0971 0.292,-2.2008 0.518,-3.2848 0.131,-0.6307 0.265,-1.3427 1.101,-1.5033 0.07,-0.014 0.125,-0.1322 0.188,-0.2021 3.576,-1e-4 7.151,-2e-4 10.736,0.019 0.164,0.1017 0.31,0.2293 0.471,0.2548 0.327,0.052 0.454,0.2617 0.577,0.5289 0.405,0.8727 0.443,1.8229 0.6,2.7461 0.148,0.8733 0.247,1.7548 0.378,2.6314 0.134,0.8979 0.305,1.791 0.417,2.6918 0.09,0.7254 0.09,0.7123 0.797,0.9912 1.025,0.4025 2.042,0.8331 3.034,1.3087 0.292,0.1399 0.45,0.1402 0.685,-0.058 0.486,-0.4119 0.998,-0.795 1.501,-1.1878 0.821,-0.6398 1.633,-1.2892 2.464,-1.9137 0.842,-0.632 1.596,-1.3985 2.653,-1.7053 0.531,-0.1541 1.011,-0.014 1.443,0.2351 0.324,0.1857 0.584,0.4918 0.854,0.762 1.88,1.8747 3.756,3.7536 5.635,5.6315 0.07,0.077 0.146,0.1653 0.234,0.2253 0.571,0.3862 0.969,0.8933 1.139,1.57 0.06,0.2248 0.236,0.4714 0.185,0.6609 -0.122,0.4447 -0.299,0.8914 -0.542,1.2823 -0.3,0.4788 -0.689,0.9002 -1.038,1.3479 -1.227,1.5744 -2.453,3.1494 -3.691,4.7378 0.708,1.0917 1.315,2.2307 1.611,3.5028 0.105,0.4513 0.377,0.5731 0.778,0.62 1.152,0.1345 2.302,0.2808 3.451,0.4339 1.394,0.1863 2.79,0.3575 4.176,0.5913 0.531,0.089 1.007,0.3663 1.208,0.9434 0.03,0.078 0.109,0.135 0.165,0.2016 0,3.6729 0,7.3453 -0.02,11.0276 -0.05,0.078 -0.09,0.1516 -0.131,0.2161 -0.174,0.2558 -0.295,0.6176 -0.537,0.7406 -0.517,0.2623 -1.077,0.4281 -1.677,0.4959 -1.243,0.1404 -2.473,0.3772 -3.711,0.5587 -1.076,0.1577 -2.155,0.2852 -3.23,0.45 -0.124,0.019 -0.272,0.1715 -0.327,0.2978 -0.495,1.1519 -0.962,2.3159 -1.461,3.4662 -0.104,0.237 -0.09,0.4048 0.06,0.5941 0.23,0.2844 0.449,0.5779 0.671,0.8681 0.663,0.8613 1.307,1.7375 1.992,2.5811 0.857,1.0559 1.645,2.1538 2.26,3.3691 0.04,0.081 0.05,0.1945 0.04,0.2829 -0.15,0.7066 -0.39,1.3117 -0.997,1.8312 -1.283,1.1017 -2.465,2.323 -3.684,3.5017 -1.039,1.0045 -2.085,2.0028 -3.095,3.0355 -0.387,0.3962 -0.883,0.521 -1.352,0.7286 -0.05,0.025 -0.149,0.014 -0.209,-0.016 -0.348,-0.1666 -0.723,-0.3012 -1.032,-0.5256 -0.631,-0.4586 -1.225,-0.9679 -1.835,-1.4548 -1.177,-0.9373 -2.361,-1.8629 -3.526,-2.8142 -0.581,-0.4745 -0.632,-0.5203 -1.07,-0.2298 -0.957,0.6344 -1.977,1.1337 -3.09,1.4163 -0.536,0.1364 -0.844,0.3202 -0.877,0.9697 -0.05,0.8897 -0.262,1.7704 -0.404,2.6552 -0.119,0.7456 -0.241,1.4903 -0.355,2.2362 -0.105,0.6777 -0.197,1.3566 -0.297,2.0342 -0.115,0.7622 -0.393,1.4147 -1.156,1.7551 -0.09,0.039 -0.148,0.1408 -0.221,0.2134 -3.552,0 -7.104,0 -10.664,-0.019 -0.109,-0.078 -0.204,-0.1473 -0.308,-0.1953 -0.201,-0.093 -0.492,-0.1177 -0.596,-0.2718 -0.247,-0.3647 -0.493,-0.7703 -0.584,-1.1929 -0.182,-0.8401 -0.26,-1.7034 -0.383,-2.5567 -0.122,-0.8414 -0.243,-1.6833 -0.372,-2.5234 -0.137,-0.8976 -0.279,-1.7948 -0.43,-2.6897 -0.02,-0.094 -0.1,-0.2248 -0.177,-0.2517 -1.261,-0.4257 -2.468,-0.9694 -3.645,-1.5894 -0.1,-0.052 -0.298,-0.019 -0.395,0.051 -0.721,0.5327 -1.433,1.0795 -2.139,1.6317 -0.719,0.5609 -1.414,1.1513 -2.145,1.6944 -0.679,0.5045 -1.282,1.1255 -2.091,1.4409 -0.282,0.11 -0.619,0.3569 -0.844,0.282 -0.602,-0.2001 -1.264,-0.3331 -1.697,-0.8905 -0.242,-0.3105 -0.524,-0.5905 -0.798,-0.8755 -0.715,-0.7461 -1.434,-1.4898 -2.156,-2.23 -1.179,-1.2067 -2.36,-2.4095 -3.541,-3.6135 -0.16,-0.1638 -0.326,-0.3228 -0.486,-0.4869 -0.06,-0.058 -0.128,-0.1179 -0.158,-0.191 -0.353,-0.8423 -0.167,-1.6366 0.294,-2.3642 0.308,-0.4868 0.703,-0.9196 1.067,-1.3712 1.105,-1.375 2.2,-2.7587 3.333,-4.1113 0.23,-0.2751 0.214,-0.4619 0.09,-0.7509 -0.475,-1.1349 -0.923,-2.281 -1.393,-3.4181 -0.05,-0.1217 -0.164,-0.2651 -0.279,-0.3016 -0.21,-0.067 -0.445,-0.058 -0.668,-0.085 -0.774,-0.097 -1.551,-0.1876 -2.324,-0.2968 -0.946,-0.1336 -1.889,-0.2936 -2.836,-0.4242 -0.92,-0.1272 -1.828,-0.242 -2.707,-0.6149 -0.494,-0.21 -0.724,-0.4844 -0.821,-0.957 0,-0.066 -0.05,-0.1284 -0.07,-0.1905 0,0 -0.05,0.013 -0.07,0.022 m 46.63,-17.1773 c -3.916,-3.8182 -8.596,-5.4805 -14.031,-4.8454 -4.281,0.5005 -7.833,2.4506 -10.669,5.6944 -2.468,2.8229 -3.79,6.1447 -4.079,9.8543 -0.1,1.2493 0,2.5379 0.2,3.7817 0.62,4.0593 2.51,7.4603 5.64,10.1161 4.15,3.5225 8.95,4.7685 14.29,3.7523 3.821,-0.7268 7.005,-2.6331 9.517,-5.603 3.261,-3.8559 4.5,-8.3369 3.835,-13.3125 -0.487,-3.6389 -2.09,-6.7746 -4.703,-9.4379 z"
       id="path1-6-7-6-0-57-3-4-8"
       style="fill:#5f5f5f;fill-opacity:1;stroke-width:0.0724543" /><path
       d="m -13572.702,9728.1516 c 0,-1.437 -0.242,-2.913 -0.714,-4.4231 -1.49,-4.7653 -4.762,-7.8693 -9.544,-9.4071 -2.05,-0.6039 -4.11,-0.7468 -6.184,-0.415 -3.525,0.5628 -6.471,2.1988 -8.748,4.952 -2.873,3.4731 -3.878,7.465 -3.048,11.8845 0.616,3.2869 2.261,6.0103 4.831,8.147 3.293,2.7389 7.098,3.7791 11.316,3.1535 3.572,-0.5298 6.548,-2.2294 8.811,-5.0424 2.185,-2.7176 3.293,-5.6881 3.28,-8.8494 z m -1.329,-0.016 c 0,2.8667 -0.994,5.5603 -2.975,8.0247 -2.049,2.5506 -4.751,4.0921 -7.989,4.5724 -3.826,0.5674 -7.276,-0.376 -10.262,-2.8595 -2.331,-1.9378 -3.822,-4.4073 -4.381,-7.3879 -0.752,-4.0076 0.158,-7.6274 2.763,-10.7768 2.067,-2.4971 4.737,-3.9804 7.933,-4.4909 1.882,-0.3007 3.75,-0.1713 5.608,0.3764 4.338,1.3945 7.303,4.2092 8.654,8.5306 0.429,1.3689 0.644,2.7079 0.649,4.011 z"
       style="fill:#c7c7c7;fill-opacity:1;stroke-width:0.0724543"
       id="path326-0-2-6-4-2-7-53" /><path
       fill="#ffa25a"
       opacity="1"
       stroke="none"
       d="m -13557.206,9701.6377 c 1.169,-2.0221 2.336,-4.0442 3.518,-6.0649 0.113,-0.069 0.221,-0.13 0.307,-0.2122 0.219,-0.208 0.513,-0.2205 0.742,-0.1448 0.83,0.2743 1.644,0.6001 2.462,0.9106 0.855,0.325 1.707,0.6584 2.564,0.9774 0.137,0.051 0.274,0.1186 0.443,-0.014 0.642,-0.5042 1.305,-0.9825 1.954,-1.4775 0.06,-0.04 0.1,-0.1394 0.09,-0.2044 -0.155,-1.2943 -0.324,-2.5867 -0.472,-3.8819 -0.06,-0.5409 -0.204,-1.0833 -0.06,-1.6327 0.04,-0.1258 0.05,-0.2856 0.128,-0.3642 0.279,-0.2628 0.542,-0.5528 0.963,-0.6123 0.342,-0.048 0.677,-0.1494 1.014,-0.2309 0.943,-0.2279 1.887,-0.4557 2.831,-0.6887 0.796,-0.198 1.594,-0.4009 2.391,-0.6059 0.489,-0.1261 0.933,0.01 1.172,0.4374 0.241,0.4312 0.426,0.8941 0.618,1.3506 0.469,1.1168 0.925,2.2389 1.396,3.3545 0.04,0.078 0.141,0.1665 0.223,0.1764 0.399,0.048 0.803,0.047 1.2,0.1088 0.547,0.086 1.087,0.2154 1.632,0.3199 0.09,0.015 0.17,0.04 0.253,-0.076 0.22,-0.307 0.48,-0.5862 0.714,-0.884 0.371,-0.4697 0.729,-0.9486 1.101,-1.4182 0.451,-0.5721 0.889,-1.157 1.373,-1.6999 0.282,-0.3158 0.592,-0.677 1.121,-0.4943 0.05,0.016 0.114,-0.034 0.173,-0.054 2.036,1.1755 4.071,2.3509 6.107,3.5403 0.05,0.1114 0.101,0.2319 0.184,0.3004 0.168,0.1364 0.172,0.2974 0.154,0.4902 -0.06,0.63 -0.347,1.1834 -0.561,1.7606 -0.203,0.5462 -0.436,1.0804 -0.649,1.6225 -0.218,0.5555 -0.415,1.12 -0.647,1.6693 -0.187,0.4422 -0.185,0.4344 0.128,0.8267 0.451,0.5657 0.889,1.1453 1.297,1.7422 0.121,0.176 0.21,0.2279 0.409,0.1919 0.412,-0.074 0.83,-0.1244 1.245,-0.1826 0.677,-0.095 1.354,-0.1972 2.033,-0.2792 0.686,-0.083 1.368,-0.2723 2.07,-0.099 0.353,0.086 0.579,0.3243 0.744,0.6082 0.124,0.212 0.17,0.4715 0.236,0.7143 0.454,1.686 0.905,3.3722 1.357,5.0588 0.02,0.068 0.03,0.1418 0.06,0.205 0.198,0.4078 0.258,0.8271 0.132,1.2685 -0.05,0.1467 -0.02,0.3459 -0.112,0.4368 -0.215,0.2137 -0.463,0.4094 -0.73,0.5516 -0.328,0.1746 -0.688,0.2864 -1.033,0.4264 -1.217,0.4929 -2.433,0.9864 -3.659,1.4842 0.05,0.8543 0.02,1.7027 -0.235,2.5238 -0.09,0.2915 0.03,0.4502 0.239,0.6091 0.612,0.4547 1.219,0.9161 1.823,1.3816 0.732,0.5639 1.47,1.1201 2.182,1.7087 0.274,0.2256 0.454,0.5399 0.379,0.9344 0,0.053 0.02,0.1125 0.03,0.1689 -1.206,2.0911 -2.414,4.1819 -3.635,6.2717 -0.05,0.027 -0.1,0.058 -0.147,0.08 -0.182,0.088 -0.37,0.255 -0.548,0.2452 -0.381,-0.019 -0.754,-0.1103 -1.118,-0.2689 -0.753,-0.3282 -1.532,-0.598 -2.297,-0.9014 -0.663,-0.2641 -1.32,-0.5464 -1.987,-0.8059 -0.07,-0.029 -0.211,0.01 -0.283,0.062 -0.661,0.4933 -1.309,1.0021 -1.972,1.4931 -0.136,0.1009 -0.182,0.2017 -0.158,0.3595 0.04,0.2377 0.06,0.4764 0.1,0.7151 0.09,0.7081 0.173,1.4188 0.286,2.1242 0.139,0.8825 0.228,1.7664 0.179,2.661 0,0.059 -0.04,0.1287 -0.07,0.1725 -0.318,0.3528 -0.654,0.6184 -1.17,0.7153 -1.092,0.2049 -2.167,0.5117 -3.248,0.7823 -0.922,0.2305 -1.845,0.455 -2.76,0.711 -0.351,0.098 -0.674,0.01 -1.009,-0.03 -0.04,-0.01 -0.09,-0.041 -0.114,-0.078 -0.144,-0.2093 -0.312,-0.4093 -0.415,-0.6384 -0.208,-0.4684 -0.379,-0.9539 -0.567,-1.4318 -0.361,-0.92 -0.731,-1.8369 -1.082,-2.7611 -0.174,-0.4608 -0.188,-0.5036 -0.534,-0.4821 -0.753,0.047 -1.498,-0.01 -2.224,-0.2094 -0.35,-0.099 -0.587,-0.095 -0.819,0.2632 -0.317,0.4919 -0.731,0.9221 -1.102,1.3795 -0.313,0.385 -0.627,0.7689 -0.938,1.1561 -0.282,0.3515 -0.557,0.7077 -0.837,1.0604 -0.315,0.3965 -0.689,0.6764 -1.234,0.6196 -0.06,-0.01 -0.132,0.031 -0.197,0.049 -2.022,-1.1678 -4.045,-2.3351 -6.065,-3.5168 -0.04,-0.08 -0.06,-0.1504 -0.112,-0.2119 -0.08,-0.1192 -0.241,-0.2288 -0.249,-0.3509 -0.02,-0.2887 -0.03,-0.6002 0.06,-0.871 0.173,-0.5381 0.412,-1.0551 0.623,-1.5813 0.207,-0.5192 0.414,-1.0382 0.617,-1.559 0.217,-0.556 0.431,-1.1135 0.638,-1.6728 0.02,-0.058 0.02,-0.1595 -0.02,-0.2011 -0.578,-0.6573 -1.087,-1.3635 -1.552,-2.1036 -0.04,-0.062 -0.164,-0.109 -0.241,-0.1003 -0.586,0.066 -1.171,0.1433 -1.755,0.2254 -0.594,0.083 -1.184,0.1905 -1.778,0.2596 -0.553,0.064 -1.1,0.2194 -1.664,0.1328 -0.197,-0.03 -0.469,1e-4 -0.574,-0.1164 -0.277,-0.3121 -0.61,-0.6053 -0.674,-1.0652 -0.04,-0.2563 -0.103,-0.5083 -0.165,-0.7604 -0.162,-0.6602 -0.327,-1.3198 -0.496,-1.9786 -0.273,-1.0745 -0.551,-2.1473 -0.827,-3.2207 -0.04,-0.1465 -0.08,-0.2912 -0.117,-0.4373 0,-0.052 -0.04,-0.1091 -0.03,-0.1609 0.07,-0.5955 0.444,-0.9864 0.945,-1.249 0.336,-0.1761 0.703,-0.2924 1.059,-0.4303 1.08,-0.4195 2.159,-0.8473 3.248,-1.2452 0.222,-0.08 0.275,-0.1919 0.3,-0.3965 0.103,-0.8026 0.225,-1.6023 0.331,-2.404 0,-0.086 0,-0.205 -0.06,-0.2635 -0.1,-0.107 -0.235,-0.1787 -0.352,-0.2678 -0.41,-0.3102 -0.822,-0.6167 -1.226,-0.9332 -0.495,-0.3875 -0.979,-0.7882 -1.476,-1.1738 -0.482,-0.3747 -0.96,-0.7382 -1.339,-1.2396 -0.212,-0.2823 -0.253,-0.514 -0.152,-0.8152 0,-0.042 0.02,-0.088 0.02,-0.1315 0,0 -0.04,-0.01 -0.05,-0.013 m 32.194,5.5476 c -0.974,-3.4607 -3.092,-5.9451 -6.395,-7.37 -2.602,-1.1225 -5.265,-1.1799 -7.946,-0.2652 -2.333,0.7958 -4.178,2.2523 -5.561,4.2696 -0.466,0.6795 -0.828,1.4484 -1.13,2.2189 -0.982,2.5147 -1.023,5.072 -0.114,7.6131 1.205,3.3697 3.529,5.657 6.902,6.8335 2.415,0.8422 4.855,0.8034 7.26,-0.062 3.124,-1.123 5.303,-3.267 6.559,-6.3183 0.919,-2.2321 1.038,-4.5442 0.425,-6.9196 z"
       id="path1-6-7-2-1-1-9-4-3-3"
       style="fill:#5f5f5f;fill-opacity:1;stroke-width:0.0476317" /><path
       d="m -13527.643,9714.7923 c 0.468,-0.8198 0.82,-1.738 1.047,-2.7529 0.717,-3.203 -0.124,-6.0452 -2.342,-8.493 -0.968,-1.0176 -2.094,-1.7755 -3.384,-2.2694 -2.192,-0.8375 -4.408,-0.8744 -6.608,-0.056 -2.777,1.0331 -4.661,2.9752 -5.642,5.7644 -0.73,2.074 -0.689,4.1651 0.07,6.2265 0.975,2.6415 2.799,4.4846 5.407,5.515 2.207,0.8726 4.461,0.8832 6.673,0.025 2.137,-0.829 3.744,-2.1561 4.776,-3.96 z m -0.751,-0.4459 c -0.936,1.6356 -2.393,2.8389 -4.332,3.5909 -2.006,0.7779 -4.049,0.7682 -6.051,-0.022 -2.365,-0.9344 -4.019,-2.6054 -4.902,-5.0012 -0.691,-1.8692 -0.727,-3.7653 -0.06,-5.646 0.89,-2.529 2.598,-4.2906 5.117,-5.2272 1.997,-0.7426 4.005,-0.7091 5.993,0.051 1.17,0.4477 2.19,1.1348 3.068,2.0576 2.012,2.2198 2.775,4.7969 2.124,7.7017 -0.207,0.92 -0.525,1.7527 -0.95,2.4966 z"
       style="fill:#c7c7c7;fill-opacity:1;stroke-width:0.0476317"
       id="path326-0-3-0-9-05-1-3-7" /><path
       fill="#ffa25a"
       opacity="1"
       stroke="none"
       d="m -13566.871,9659.5354 c 1.79,-0.7508 3.579,-1.5012 5.378,-2.2437 0.109,0.013 0.21,0.027 0.31,0.014 0.248,-0.027 0.45,0.1123 0.563,0.2772 0.412,0.5992 0.786,1.2241 1.171,1.8409 0.402,0.6449 0.799,1.2941 1.205,1.9367 0.06,0.1025 0.122,0.2166 0.301,0.214 0.678,-0.011 1.356,0.01 2.034,0.01 0.06,0 0.136,-0.043 0.164,-0.09 0.55,-0.9332 1.087,-1.8743 1.641,-2.8058 0.231,-0.3887 0.41,-0.8187 0.782,-1.1102 0.08,-0.067 0.173,-0.166 0.267,-0.1761 0.317,-0.034 0.637,-0.094 0.947,0.079 0.249,0.1396 0.522,0.2412 0.785,0.3564 0.739,0.3237 1.478,0.6479 2.219,0.9677 0.627,0.2703 1.259,0.537 1.888,0.8023 0.386,0.1624 0.612,0.4737 0.555,0.8789 -0.06,0.4061 -0.167,0.8058 -0.271,1.2044 -0.251,0.9749 -0.513,1.9469 -0.764,2.9216 -0.02,0.069 0,0.1814 0.06,0.229 0.239,0.2326 0.509,0.435 0.739,0.6753 0.319,0.3315 0.611,0.6891 0.919,1.0321 0.05,0.056 0.09,0.1116 0.204,0.077 0.301,-0.092 0.614,-0.146 0.919,-0.2249 0.48,-0.1246 0.96,-0.2612 1.441,-0.3854 0.586,-0.1513 1.171,-0.318 1.764,-0.4335 0.346,-0.067 0.733,-0.1497 0.99,0.2369 0.02,0.035 0.09,0.037 0.141,0.052 0.757,1.8015 1.513,3.6032 2.261,5.4138 -0.02,0.1041 -0.05,0.204 -0.03,0.2913 0.05,0.1754 -0.04,0.2835 -0.144,0.4025 -0.355,0.3881 -0.825,0.6081 -1.258,0.8828 -0.408,0.2593 -0.832,0.4949 -1.246,0.7463 -0.423,0.2577 -0.838,0.5327 -1.268,0.7789 -0.346,0.1989 -0.341,0.1948 -0.331,0.6116 0.02,0.6016 0,1.2046 -0.02,1.8054 0,0.1765 0.03,0.2562 0.174,0.3324 0.311,0.1585 0.612,0.3347 0.917,0.5059 0.496,0.2771 0.994,0.55 1.484,0.8373 0.497,0.2901 1.043,0.5074 1.421,0.9752 0.189,0.2349 0.22,0.5068 0.186,0.7772 -0.03,0.2023 -0.124,0.3977 -0.204,0.5911 -0.546,1.3441 -1.097,2.6864 -1.645,4.03 -0.02,0.055 -0.06,0.1084 -0.06,0.1658 -0.07,0.369 -0.246,0.6766 -0.551,0.9057 -0.101,0.076 -0.188,0.2181 -0.293,0.2326 -0.251,0.034 -0.513,0.037 -0.762,-10e-5 -0.304,-0.049 -0.599,-0.155 -0.898,-0.2379 -1.053,-0.2849 -2.105,-0.5699 -3.168,-0.8573 -0.399,0.5879 -0.846,1.135 -1.424,1.5527 -0.206,0.1479 -0.209,0.3111 -0.148,0.5234 0.176,0.6084 0.345,1.2194 0.511,1.8304 0.201,0.7411 0.41,1.4812 0.585,2.2286 0.06,0.2865 0.03,0.5854 -0.22,0.8083 -0.04,0.029 -0.05,0.084 -0.06,0.1259 -1.851,0.7763 -3.701,1.5525 -5.56,2.3207 -0.06,-0.011 -0.09,-0.011 -0.138,-0.017 -0.165,-0.033 -0.374,-0.016 -0.486,-0.1136 -0.243,-0.2034 -0.444,-0.4517 -0.604,-0.7399 -0.335,-0.5956 -0.714,-1.1659 -1.066,-1.751 -0.308,-0.5089 -0.6,-1.0259 -0.91,-1.5328 -0.04,-0.058 -0.145,-0.1007 -0.219,-0.1012 -0.686,-0.01 -1.371,0.01 -2.056,0 -0.14,-2e-4 -0.223,0.042 -0.286,0.1586 -0.09,0.176 -0.196,0.3482 -0.294,0.522 -0.295,0.5157 -0.6,1.026 -0.88,1.549 -0.352,0.6544 -0.738,1.2837 -1.22,1.8507 -0.04,0.037 -0.09,0.069 -0.135,0.078 -0.388,0.074 -0.743,0.08 -1.133,-0.1162 -0.828,-0.4146 -1.692,-0.7519 -2.543,-1.1164 -0.726,-0.3108 -1.45,-0.6269 -2.184,-0.9179 -0.282,-0.1112 -0.449,-0.3355 -0.653,-0.5274 -0.03,-0.024 -0.04,-0.072 -0.04,-0.1089 0,-0.2108 0,-0.4278 0.05,-0.6307 0.1,-0.4153 0.228,-0.8219 0.345,-1.2327 0.224,-0.7906 0.44,-1.5833 0.672,-2.371 0.116,-0.3927 0.129,-0.4282 -0.11,-0.5875 -0.522,-0.3483 -0.989,-0.7575 -1.367,-1.2579 -0.182,-0.2413 -0.339,-0.3578 -0.673,-0.2373 -0.458,0.165 -0.948,0.2423 -1.423,0.3585 -0.401,0.097 -0.802,0.1926 -1.202,0.293 -0.363,0.092 -0.725,0.1879 -1.088,0.2807 -0.408,0.1035 -0.796,0.1008 -1.129,-0.2112 -0.04,-0.038 -0.101,-0.044 -0.153,-0.067 -0.751,-1.7896 -1.502,-3.579 -2.245,-5.3771 0.02,-0.072 0.04,-0.1337 0.04,-0.1965 0,-0.1209 -0.05,-0.2725 0,-0.3577 0.132,-0.2017 0.285,-0.4107 0.479,-0.5462 0.384,-0.2697 0.803,-0.4909 1.207,-0.734 0.398,-0.2385 0.797,-0.4777 1.193,-0.7203 0.423,-0.2591 0.845,-0.5202 1.263,-0.7856 0.05,-0.028 0.09,-0.096 0.09,-0.1418 -0.05,-0.7258 -0.04,-1.4492 0.04,-2.173 0,-0.06 -0.06,-0.1546 -0.11,-0.1879 -0.42,-0.2511 -0.846,-0.4936 -1.274,-0.7332 -0.434,-0.2434 -0.879,-0.4691 -1.307,-0.7225 -0.398,-0.2356 -0.838,-0.408 -1.168,-0.7492 -0.115,-0.1185 -0.31,-0.2361 -0.32,-0.3653 -0.03,-0.3458 -0.1,-0.7076 0.09,-1.0435 0.106,-0.1875 0.188,-0.3889 0.273,-0.5866 0.225,-0.5188 0.448,-1.0383 0.668,-1.5588 0.359,-0.8483 0.715,-1.6979 1.072,-2.5471 0.05,-0.1158 0.09,-0.2329 0.143,-0.3479 0.02,-0.042 0.03,-0.09 0.06,-0.1201 0.349,-0.3562 0.788,-0.4301 1.253,-0.3514 0.31,0.054 0.611,0.1611 0.916,0.2457 0.927,0.2654 1.857,0.5258 2.777,0.8107 0.187,0.058 0.278,0.011 0.397,-0.1119 0.472,-0.4795 0.955,-0.9472 1.428,-1.4242 0.05,-0.051 0.1,-0.1393 0.09,-0.2042 0,-0.1209 -0.06,-0.2362 -0.1,-0.3549 -0.115,-0.4112 -0.233,-0.8211 -0.342,-1.234 -0.131,-0.5056 -0.251,-1.0137 -0.385,-1.5186 -0.131,-0.4903 -0.265,-0.9719 -0.263,-1.4935 0,-0.2937 0.09,-0.4675 0.309,-0.6165 0.04,-0.022 0.06,-0.049 0.08,-0.076 0,0 -0.02,-0.022 -0.03,-0.032 m 18.512,19.8634 c 1.096,-2.78 0.945,-5.4889 -0.525,-8.0932 -1.156,-2.0517 -2.889,-3.4293 -5.123,-4.1719 -1.945,-0.6471 -3.898,-0.6114 -5.828,0.027 -0.65,0.2157 -1.277,0.5416 -1.864,0.9002 -1.913,1.17 -3.227,2.8414 -3.904,4.9797 -0.897,2.8362 -0.511,5.5183 1.13,7.9935 1.174,1.7717 2.808,2.9732 4.835,3.6105 2.632,0.8286 5.152,0.5057 7.518,-0.8812 1.73,-1.015 2.972,-2.4856 3.761,-4.3651 z"
       id="path1-6-7-2-8-2-2-7-2-6-5"
       style="fill:#5f5f5f;fill-opacity:1;stroke-width:0.0395889" /><path
       d="m -13563.7,9674.1794 c -0.479,1.8919 -0.191,3.7011 0.835,5.3953 0.927,1.5299 2.275,2.5645 3.994,3.0586 1.66,0.4773 3.229,0.4143 4.671,-0.1973 0.656,-0.2782 1.285,-0.6685 1.884,-1.1734 1.892,-1.5951 2.683,-3.6842 2.468,-6.1646 -0.116,-1.0522 -0.446,-2.02 -0.995,-2.9054 -0.933,-1.5017 -2.246,-2.5342 -3.94,-3.0467 -2.137,-0.6472 -4.154,-0.3411 -6.014,0.8851 -1.384,0.9117 -2.313,2.1849 -2.797,3.7689 -0.04,0.1268 -0.07,0.2534 -0.105,0.3795 z"
       style="fill:#c7c7c7;stroke-width:0.0395889"
       id="path328-6-5-0-4-94" /><path
       fill="#ffa25a"
       opacity="1"
       stroke="none"
       d="m -15685.191,9686.6344 c 0,3.5523 0,7.1041 -0.02,10.6649 -0.1,0.1772 -0.191,0.3391 -0.243,0.5134 -0.131,0.4407 -0.509,0.6808 -0.868,0.7551 -1.302,0.2699 -2.621,0.4595 -3.935,0.6724 -1.374,0.2228 -2.749,0.4312 -4.121,0.6632 -0.22,0.037 -0.452,0.052 -0.574,0.3564 -0.462,1.1525 -0.971,2.2862 -1.449,3.4322 -0.04,0.094 -0.03,0.2587 0.04,0.3384 1.187,1.5881 2.395,3.1603 3.573,4.7543 0.493,0.6659 1.091,1.2736 1.321,2.1061 0.06,0.1907 0.157,0.4106 0.107,0.578 -0.167,0.5578 -0.291,1.1392 -0.803,1.5387 -0.414,0.3235 -0.778,0.711 -1.159,1.0748 -1.07,1.0185 -2.14,2.036 -3.204,3.0599 -0.902,0.8678 -1.797,1.7414 -2.691,2.6178 -0.548,0.5375 -1.233,0.7002 -1.877,0.3151 -0.644,-0.3853 -1.24,-0.8537 -1.841,-1.3096 -1.466,-1.114 -2.921,-2.2452 -4.39,-3.3573 -0.103,-0.078 -0.312,-0.112 -0.428,-0.062 -0.561,0.2397 -1.094,0.5493 -1.663,0.7682 -0.786,0.3034 -1.596,0.5437 -2.392,0.8201 -0.129,0.045 -0.253,0.076 -0.275,0.2917 -0.05,0.5728 -0.188,1.1377 -0.27,1.7084 -0.131,0.9003 -0.239,1.8043 -0.37,2.7047 -0.16,1.0971 -0.292,2.2008 -0.518,3.2848 -0.131,0.6307 -0.265,1.3427 -1.101,1.5033 -0.07,0.014 -0.125,0.1322 -0.188,0.2021 -3.575,1e-4 -7.151,2e-4 -10.736,-0.019 -0.164,-0.1017 -0.31,-0.2293 -0.471,-0.2548 -0.327,-0.052 -0.454,-0.2617 -0.577,-0.5289 -0.404,-0.8727 -0.443,-1.8229 -0.6,-2.7461 -0.148,-0.8733 -0.247,-1.7548 -0.378,-2.6314 -0.134,-0.8979 -0.305,-1.791 -0.417,-2.6918 -0.09,-0.7254 -0.09,-0.7123 -0.796,-0.9912 -1.026,-0.4025 -2.043,-0.8331 -3.035,-1.3087 -0.292,-0.1399 -0.45,-0.1402 -0.685,0.058 -0.486,0.4119 -0.998,0.795 -1.501,1.1878 -0.821,0.6398 -1.633,1.2892 -2.464,1.9137 -0.842,0.632 -1.596,1.3985 -2.653,1.7053 -0.531,0.1541 -1.011,0.014 -1.443,-0.2351 -0.324,-0.1857 -0.583,-0.4918 -0.854,-0.762 -1.88,-1.8747 -3.756,-3.7536 -5.635,-5.6315 -0.07,-0.077 -0.146,-0.1653 -0.234,-0.2253 -0.571,-0.3862 -0.969,-0.8933 -1.139,-1.57 -0.06,-0.2248 -0.236,-0.4714 -0.185,-0.6609 0.122,-0.4447 0.299,-0.8914 0.543,-1.2823 0.299,-0.4788 0.688,-0.9002 1.037,-1.3479 1.227,-1.5744 2.454,-3.1494 3.691,-4.7378 -0.708,-1.0917 -1.315,-2.2307 -1.611,-3.5028 -0.105,-0.4513 -0.377,-0.5731 -0.778,-0.62 -1.152,-0.1345 -2.302,-0.2808 -3.451,-0.4339 -1.394,-0.1863 -2.79,-0.3575 -4.176,-0.5913 -0.531,-0.089 -1.007,-0.3663 -1.208,-0.9434 -0.03,-0.078 -0.109,-0.135 -0.165,-0.2016 0,-3.6729 0,-7.3453 0.02,-11.0276 0.06,-0.078 0.09,-0.1516 0.131,-0.2161 0.174,-0.2558 0.295,-0.6176 0.537,-0.7406 0.517,-0.2623 1.077,-0.4281 1.678,-0.4959 1.242,-0.1404 2.472,-0.3772 3.71,-0.5587 1.076,-0.1577 2.155,-0.2852 3.231,-0.45 0.123,-0.019 0.272,-0.1715 0.326,-0.2978 0.495,-1.1519 0.962,-2.3159 1.461,-3.4662 0.104,-0.237 0.09,-0.4048 -0.06,-0.5941 -0.23,-0.2844 -0.449,-0.5779 -0.671,-0.8681 -0.663,-0.8613 -1.307,-1.7375 -1.992,-2.5811 -0.857,-1.0559 -1.645,-2.1538 -2.259,-3.3691 -0.04,-0.081 -0.06,-0.1945 -0.04,-0.2829 0.151,-0.7066 0.391,-1.3117 0.997,-1.8312 1.284,-1.1017 2.466,-2.323 3.684,-3.5017 1.039,-1.0045 2.085,-2.0028 3.095,-3.0355 0.387,-0.3962 0.884,-0.521 1.352,-0.7286 0.05,-0.025 0.149,-0.014 0.21,0.016 0.348,0.1666 0.723,0.3012 1.032,0.5256 0.631,0.4586 1.225,0.9679 1.835,1.4548 1.176,0.9373 2.361,1.8629 3.526,2.8142 0.581,0.4745 0.632,0.5203 1.07,0.2298 0.956,-0.6344 1.977,-1.1337 3.09,-1.4163 0.536,-0.1364 0.844,-0.3202 0.877,-0.9697 0.05,-0.8897 0.262,-1.7704 0.404,-2.6552 0.119,-0.7456 0.241,-1.4903 0.355,-2.2362 0.105,-0.6777 0.197,-1.3566 0.297,-2.0342 0.115,-0.7622 0.393,-1.4147 1.156,-1.7551 0.09,-0.039 0.148,-0.1408 0.221,-0.2134 3.552,0 7.104,0 10.664,0.019 0.109,0.078 0.204,0.1473 0.308,0.1953 0.201,0.093 0.492,0.1177 0.596,0.2718 0.247,0.3647 0.493,0.7703 0.584,1.1929 0.182,0.8401 0.26,1.7034 0.383,2.5567 0.122,0.8414 0.243,1.6833 0.372,2.5234 0.137,0.8976 0.279,1.7948 0.43,2.6897 0.02,0.094 0.1,0.2248 0.177,0.2517 1.261,0.4257 2.468,0.9694 3.645,1.5894 0.1,0.052 0.298,0.019 0.395,-0.051 0.721,-0.5327 1.433,-1.0795 2.139,-1.6317 0.719,-0.5609 1.414,-1.1513 2.145,-1.6944 0.679,-0.5045 1.282,-1.1255 2.091,-1.4409 0.282,-0.11 0.619,-0.3569 0.844,-0.282 0.602,0.2001 1.264,0.3331 1.697,0.8905 0.242,0.3105 0.524,0.5905 0.798,0.8755 0.715,0.7461 1.434,1.4898 2.156,2.23 1.179,1.2067 2.36,2.4095 3.541,3.6135 0.16,0.1638 0.326,0.3228 0.486,0.4869 0.06,0.058 0.128,0.1179 0.158,0.191 0.353,0.8423 0.167,1.6366 -0.294,2.3642 -0.308,0.4868 -0.703,0.9196 -1.067,1.3712 -1.105,1.375 -2.2,2.7587 -3.333,4.1113 -0.23,0.2751 -0.214,0.4619 -0.09,0.7509 0.475,1.1349 0.923,2.281 1.393,3.4181 0.05,0.1217 0.164,0.2651 0.279,0.3016 0.21,0.067 0.445,0.058 0.668,0.085 0.774,0.097 1.551,0.1876 2.324,0.2968 0.946,0.1336 1.889,0.2936 2.836,0.4242 0.92,0.1272 1.828,0.242 2.707,0.6149 0.494,0.21 0.724,0.4844 0.821,0.957 0,0.066 0.05,0.1284 0.07,0.1905 0,0 0.05,-0.013 0.07,-0.022 m -46.63,17.1773 c 3.916,3.8182 8.596,5.4805 14.031,4.8454 4.281,-0.5005 7.833,-2.4506 10.669,-5.6944 2.468,-2.8229 3.79,-6.1447 4.079,-9.8543 0.1,-1.2493 0,-2.5379 -0.2,-3.7817 -0.62,-4.0593 -2.51,-7.4603 -5.64,-10.1161 -4.15,-3.5225 -8.95,-4.7685 -14.29,-3.7523 -3.821,0.7268 -7.005,2.6331 -9.517,5.603 -3.261,3.8559 -4.5,8.3369 -3.835,13.3125 0.487,3.6389 2.09,6.7746 4.703,9.4379 z"
       id="path1-6-7-6-0-57-3-4-2"
       style="fill:#232323;fill-opacity:1;stroke-width:0.0724543" /><path
       d="m -15734.139,9691.7893 c 0,1.437 0.243,2.913 0.715,4.4231 1.49,4.7653 4.761,7.8693 9.544,9.4071 2.05,0.6039 4.109,0.7468 6.184,0.415 3.525,-0.5628 6.471,-2.1988 8.748,-4.952 2.873,-3.4731 3.878,-7.465 3.048,-11.8845 -0.616,-3.2869 -2.261,-6.0103 -4.831,-8.147 -3.293,-2.7389 -7.098,-3.7791 -11.316,-3.1535 -3.572,0.5298 -6.549,2.2294 -8.811,5.0424 -2.185,2.7176 -3.293,5.6881 -3.281,8.8494 z m 1.329,0.016 c 0,-2.8667 0.994,-5.5603 2.975,-8.0247 2.05,-2.5506 4.751,-4.0921 7.989,-4.5724 3.826,-0.5674 7.276,0.376 10.262,2.8595 2.331,1.9378 3.822,4.4073 4.381,7.3879 0.752,4.0076 -0.158,7.6274 -2.763,10.7768 -2.066,2.4971 -4.737,3.9804 -7.933,4.4909 -1.882,0.3007 -3.75,0.1713 -5.608,-0.3764 -4.338,-1.3945 -7.303,-4.2092 -8.654,-8.5306 -0.429,-1.3689 -0.644,-2.7079 -0.649,-4.011 z"
       style="fill:#c7c7c7;fill-opacity:1;stroke-width:0.0724543"
       id="path326-0-2-6-4-2-7-3" /><path
       fill="#ffa25a"
       opacity="1"
       stroke="none"
       d="m -15749.635,9718.3032 c -1.168,2.0221 -2.336,4.0442 -3.518,6.0649 -0.113,0.069 -0.221,0.13 -0.307,0.2122 -0.219,0.208 -0.513,0.2205 -0.742,0.1448 -0.83,-0.2743 -1.644,-0.6001 -2.462,-0.9106 -0.855,-0.325 -1.707,-0.6584 -2.564,-0.9774 -0.137,-0.051 -0.274,-0.1186 -0.443,0.014 -0.642,0.5042 -1.305,0.9825 -1.954,1.4775 -0.06,0.04 -0.1,0.1394 -0.09,0.2044 0.154,1.2943 0.324,2.5867 0.471,3.8819 0.06,0.5409 0.204,1.0833 0.06,1.6327 -0.04,0.1258 -0.05,0.2856 -0.128,0.3642 -0.279,0.2628 -0.542,0.5528 -0.963,0.6123 -0.342,0.048 -0.677,0.1494 -1.014,0.2309 -0.943,0.2279 -1.887,0.4557 -2.83,0.6887 -0.797,0.198 -1.595,0.4009 -2.392,0.6059 -0.489,0.1261 -0.932,-0.01 -1.172,-0.4374 -0.241,-0.4312 -0.426,-0.8941 -0.617,-1.3506 -0.47,-1.1168 -0.926,-2.2389 -1.397,-3.3545 -0.04,-0.078 -0.14,-0.1665 -0.223,-0.1764 -0.398,-0.048 -0.803,-0.047 -1.199,-0.1088 -0.547,-0.086 -1.087,-0.2154 -1.632,-0.3199 -0.09,-0.015 -0.17,-0.04 -0.253,0.076 -0.22,0.307 -0.48,0.5862 -0.714,0.884 -0.371,0.4697 -0.729,0.9486 -1.101,1.4182 -0.451,0.5721 -0.889,1.157 -1.373,1.6999 -0.282,0.3158 -0.593,0.677 -1.122,0.4943 -0.05,-0.016 -0.114,0.034 -0.173,0.054 -2.036,-1.1755 -4.071,-2.3509 -6.106,-3.5403 -0.06,-0.1114 -0.101,-0.2319 -0.185,-0.3004 -0.168,-0.1364 -0.172,-0.2974 -0.154,-0.4902 0.06,-0.63 0.347,-1.1834 0.561,-1.7606 0.203,-0.5462 0.436,-1.0804 0.649,-1.6225 0.219,-0.5555 0.415,-1.12 0.648,-1.6693 0.187,-0.4422 0.185,-0.4344 -0.128,-0.8267 -0.451,-0.5657 -0.889,-1.1453 -1.297,-1.7422 -0.121,-0.176 -0.21,-0.2279 -0.409,-0.1919 -0.412,0.074 -0.83,0.1244 -1.245,0.1826 -0.677,0.095 -1.354,0.1972 -2.033,0.2792 -0.686,0.083 -1.368,0.2723 -2.07,0.099 -0.353,-0.086 -0.579,-0.3243 -0.744,-0.6082 -0.124,-0.212 -0.17,-0.4715 -0.236,-0.7143 -0.454,-1.686 -0.905,-3.3722 -1.357,-5.0588 -0.02,-0.068 -0.03,-0.1418 -0.06,-0.205 -0.198,-0.4078 -0.258,-0.8271 -0.132,-1.2685 0.05,-0.1467 0.02,-0.3459 0.112,-0.4368 0.215,-0.2137 0.463,-0.4094 0.73,-0.5516 0.328,-0.1746 0.688,-0.2864 1.033,-0.4264 1.217,-0.4929 2.433,-0.9864 3.659,-1.4842 -0.05,-0.8543 -0.02,-1.7027 0.235,-2.5238 0.09,-0.2915 -0.03,-0.4502 -0.239,-0.6091 -0.612,-0.4547 -1.219,-0.9161 -1.823,-1.3816 -0.732,-0.5639 -1.47,-1.1201 -2.182,-1.7087 -0.274,-0.2256 -0.454,-0.5399 -0.379,-0.9344 0,-0.053 -0.02,-0.1125 -0.03,-0.1689 1.206,-2.0911 2.414,-4.1819 3.635,-6.2717 0.05,-0.027 0.1,-0.058 0.147,-0.08 0.182,-0.088 0.37,-0.255 0.548,-0.2452 0.381,0.019 0.754,0.1103 1.118,0.2689 0.753,0.3282 1.532,0.598 2.297,0.9014 0.663,0.2641 1.32,0.5464 1.987,0.8059 0.07,0.029 0.211,-0.01 0.283,-0.062 0.661,-0.4933 1.309,-1.0021 1.972,-1.4931 0.136,-0.1009 0.182,-0.2017 0.158,-0.3595 -0.04,-0.2377 -0.06,-0.4764 -0.1,-0.7151 -0.09,-0.7081 -0.173,-1.4188 -0.286,-2.1242 -0.139,-0.8825 -0.228,-1.7664 -0.179,-2.661 0,-0.059 0.04,-0.1287 0.07,-0.1725 0.318,-0.3528 0.654,-0.6184 1.17,-0.7153 1.092,-0.2049 2.167,-0.5117 3.248,-0.7823 0.922,-0.2305 1.845,-0.455 2.76,-0.711 0.351,-0.098 0.674,-0.01 1.009,0.03 0.04,0.01 0.09,0.041 0.114,0.078 0.144,0.2093 0.312,0.4093 0.415,0.6384 0.208,0.4684 0.379,0.9539 0.567,1.4318 0.361,0.92 0.731,1.8369 1.082,2.7611 0.174,0.4608 0.188,0.5036 0.534,0.4821 0.753,-0.047 1.498,0.01 2.224,0.2094 0.35,0.099 0.587,0.095 0.819,-0.2632 0.317,-0.4919 0.731,-0.9221 1.102,-1.3795 0.313,-0.385 0.627,-0.7689 0.938,-1.1561 0.282,-0.3515 0.557,-0.7077 0.837,-1.0604 0.315,-0.3965 0.689,-0.6764 1.234,-0.6196 0.06,0.01 0.132,-0.031 0.197,-0.049 2.022,1.1678 4.045,2.3351 6.065,3.5168 0.04,0.08 0.06,0.1504 0.112,0.2119 0.08,0.1192 0.241,0.2288 0.249,0.3509 0.02,0.2887 0.03,0.6002 -0.06,0.871 -0.173,0.5381 -0.412,1.0551 -0.623,1.5813 -0.207,0.5192 -0.414,1.0382 -0.617,1.559 -0.217,0.556 -0.431,1.1135 -0.638,1.6728 -0.02,0.058 -0.02,0.1595 0.02,0.2011 0.578,0.6573 1.087,1.3635 1.552,2.1036 0.04,0.062 0.164,0.109 0.241,0.1003 0.586,-0.066 1.171,-0.1433 1.755,-0.2254 0.594,-0.083 1.184,-0.1905 1.778,-0.2596 0.553,-0.064 1.1,-0.2194 1.664,-0.1328 0.197,0.03 0.469,-1e-4 0.574,0.1164 0.277,0.3121 0.61,0.6053 0.674,1.0652 0.04,0.2563 0.103,0.5083 0.165,0.7604 0.162,0.6602 0.327,1.3198 0.496,1.9786 0.273,1.0745 0.551,2.1473 0.827,3.2207 0.04,0.1465 0.08,0.2912 0.117,0.4373 0,0.052 0.04,0.1091 0.03,0.1609 -0.07,0.5955 -0.444,0.9864 -0.945,1.249 -0.336,0.1761 -0.703,0.2924 -1.059,0.4303 -1.08,0.4195 -2.159,0.8473 -3.248,1.2452 -0.222,0.08 -0.275,0.1919 -0.3,0.3965 -0.103,0.8026 -0.225,1.6023 -0.331,2.404 0,0.086 0,0.205 0.06,0.2635 0.1,0.107 0.235,0.1787 0.352,0.2678 0.41,0.3102 0.822,0.6167 1.226,0.9332 0.495,0.3875 0.979,0.7882 1.476,1.1738 0.482,0.3747 0.96,0.7382 1.339,1.2396 0.212,0.2823 0.253,0.514 0.152,0.8152 0,0.042 -0.02,0.088 -0.02,0.1315 0,0 0.04,0.01 0.05,0.013 m -32.194,-5.5476 c 0.974,3.4607 3.092,5.9451 6.395,7.37 2.602,1.1225 5.265,1.1799 7.946,0.2652 2.333,-0.7958 4.178,-2.2523 5.561,-4.2696 0.466,-0.6795 0.828,-1.4484 1.13,-2.2189 0.982,-2.5147 1.023,-5.072 0.114,-7.6131 -1.205,-3.3697 -3.529,-5.657 -6.902,-6.8335 -2.415,-0.8422 -4.855,-0.8034 -7.26,0.062 -3.124,1.123 -5.303,3.267 -6.559,6.3183 -0.919,2.2321 -1.038,4.5442 -0.425,6.9196 z"
       id="path1-6-7-2-1-1-9-4-3-1"
       style="fill:#232323;fill-opacity:1;stroke-width:0.0476317" /><path
       d="m -15779.197,9705.1486 c -0.469,0.8198 -0.821,1.738 -1.048,2.7529 -0.717,3.203 0.124,6.0452 2.342,8.493 0.968,1.0176 2.094,1.7755 3.384,2.2694 2.192,0.8375 4.408,0.8744 6.608,0.056 2.777,-1.0331 4.661,-2.9752 5.642,-5.7644 0.73,-2.074 0.689,-4.1651 -0.07,-6.2265 -0.975,-2.6415 -2.799,-4.4846 -5.407,-5.515 -2.207,-0.8726 -4.461,-0.8832 -6.673,-0.025 -2.137,0.829 -3.744,2.1561 -4.776,3.96 z m 0.751,0.4459 c 0.936,-1.6356 2.393,-2.8389 4.331,-3.5909 2.006,-0.7779 4.049,-0.7682 6.052,0.022 2.364,0.9344 4.018,2.6054 4.902,5.0012 0.691,1.8692 0.727,3.7653 0.06,5.646 -0.89,2.529 -2.598,4.2906 -5.117,5.2272 -1.997,0.7426 -4.005,0.7091 -5.993,-0.051 -1.17,-0.4477 -2.19,-1.1348 -3.068,-2.0576 -2.012,-2.2198 -2.775,-4.7969 -2.124,-7.7017 0.206,-0.92 0.524,-1.7527 0.95,-2.4966 z"
       style="fill:#c7c7c7;fill-opacity:1;stroke-width:0.0476317"
       id="path326-0-3-0-9-05-1-3-1" /><path
       fill="#ffa25a"
       opacity="1"
       stroke="none"
       d="m -15739.969,9760.4055 c -1.79,0.7508 -3.579,1.5012 -5.378,2.2437 -0.109,-0.013 -0.21,-0.027 -0.31,-0.014 -0.249,0.027 -0.45,-0.1123 -0.563,-0.2772 -0.412,-0.5992 -0.786,-1.2241 -1.171,-1.8409 -0.402,-0.6449 -0.799,-1.2941 -1.205,-1.9367 -0.06,-0.1025 -0.122,-0.2166 -0.301,-0.214 -0.678,0.011 -1.356,-0.01 -2.035,-0.01 -0.05,0 -0.136,0.043 -0.164,0.09 -0.549,0.9332 -1.086,1.8743 -1.64,2.8058 -0.231,0.3887 -0.41,0.8187 -0.782,1.1102 -0.08,0.067 -0.173,0.166 -0.268,0.1761 -0.317,0.034 -0.636,0.094 -0.946,-0.079 -0.25,-0.1396 -0.522,-0.2412 -0.786,-0.3564 -0.739,-0.3237 -1.478,-0.6479 -2.219,-0.9677 -0.627,-0.2703 -1.258,-0.537 -1.888,-0.8023 -0.386,-0.1624 -0.612,-0.4737 -0.554,-0.8789 0.05,-0.4061 0.167,-0.8058 0.27,-1.2044 0.251,-0.9749 0.514,-1.9469 0.764,-2.9216 0.02,-0.069 0,-0.1814 -0.06,-0.229 -0.239,-0.2326 -0.509,-0.435 -0.739,-0.6753 -0.319,-0.3315 -0.611,-0.6891 -0.919,-1.0321 -0.05,-0.056 -0.09,-0.1116 -0.204,-0.077 -0.301,0.092 -0.613,0.146 -0.919,0.2249 -0.48,0.1246 -0.959,0.2612 -1.44,0.3854 -0.587,0.1513 -1.171,0.318 -1.765,0.4335 -0.346,0.067 -0.733,0.1497 -0.99,-0.2369 -0.02,-0.035 -0.09,-0.037 -0.141,-0.052 -0.757,-1.8015 -1.513,-3.6032 -2.261,-5.4138 0.02,-0.1041 0.05,-0.204 0.03,-0.2913 -0.05,-0.1754 0.04,-0.2835 0.144,-0.4025 0.356,-0.3881 0.826,-0.6081 1.258,-0.8828 0.408,-0.2593 0.832,-0.4949 1.246,-0.7463 0.423,-0.2577 0.838,-0.5327 1.268,-0.7789 0.347,-0.1989 0.341,-0.1948 0.331,-0.6116 -0.02,-0.6016 0,-1.2046 0.02,-1.8054 0,-0.1765 -0.03,-0.2562 -0.174,-0.3324 -0.31,-0.1585 -0.612,-0.3347 -0.916,-0.5059 -0.496,-0.2771 -0.994,-0.55 -1.484,-0.8373 -0.497,-0.2901 -1.043,-0.5074 -1.421,-0.9752 -0.189,-0.2349 -0.22,-0.5068 -0.186,-0.7772 0.03,-0.2023 0.124,-0.3977 0.204,-0.5911 0.546,-1.3441 1.097,-2.6864 1.645,-4.03 0.02,-0.055 0.06,-0.1084 0.06,-0.1658 0.07,-0.369 0.246,-0.6766 0.551,-0.9057 0.101,-0.076 0.188,-0.2181 0.293,-0.2326 0.251,-0.034 0.513,-0.037 0.762,10e-5 0.304,0.049 0.599,0.155 0.898,0.2379 1.053,0.2849 2.105,0.5699 3.168,0.8573 0.399,-0.5879 0.846,-1.135 1.424,-1.5527 0.206,-0.1479 0.209,-0.3111 0.148,-0.5234 -0.176,-0.6084 -0.345,-1.2194 -0.511,-1.8304 -0.201,-0.7411 -0.41,-1.4812 -0.585,-2.2286 -0.06,-0.2865 -0.03,-0.5854 0.22,-0.8083 0.04,-0.029 0.05,-0.084 0.06,-0.1259 1.851,-0.7763 3.701,-1.5525 5.56,-2.3207 0.06,0.011 0.09,0.011 0.138,0.017 0.165,0.033 0.374,0.016 0.486,0.1136 0.243,0.2034 0.444,0.4517 0.604,0.7399 0.335,0.5956 0.714,1.1659 1.066,1.751 0.308,0.5089 0.6,1.0259 0.91,1.5328 0.04,0.058 0.145,0.1007 0.219,0.1012 0.686,0.01 1.371,-0.01 2.056,0 0.14,2e-4 0.223,-0.042 0.286,-0.1586 0.09,-0.176 0.196,-0.3482 0.294,-0.522 0.295,-0.5157 0.6,-1.026 0.88,-1.549 0.352,-0.6544 0.738,-1.2837 1.22,-1.8507 0.04,-0.037 0.09,-0.069 0.135,-0.078 0.388,-0.074 0.743,-0.08 1.133,0.1162 0.827,0.4146 1.692,0.7519 2.543,1.1164 0.726,0.3108 1.45,0.6269 2.184,0.9179 0.282,0.1112 0.449,0.3355 0.653,0.5274 0.03,0.024 0.04,0.072 0.04,0.1089 0,0.2108 0,0.4278 -0.05,0.6307 -0.1,0.4153 -0.228,0.8219 -0.345,1.2327 -0.223,0.7906 -0.44,1.5833 -0.672,2.371 -0.116,0.3927 -0.129,0.4282 0.11,0.5875 0.522,0.3483 0.989,0.7575 1.367,1.2579 0.182,0.2413 0.34,0.3578 0.674,0.2373 0.458,-0.165 0.947,-0.2423 1.423,-0.3585 0.401,-0.097 0.802,-0.1926 1.202,-0.293 0.363,-0.092 0.725,-0.1879 1.088,-0.2807 0.408,-0.1035 0.795,-0.1008 1.129,0.2112 0.04,0.038 0.101,0.044 0.153,0.067 0.751,1.7896 1.502,3.579 2.245,5.3771 -0.02,0.072 -0.04,0.1337 -0.04,0.1965 0,0.1209 0.05,0.2725 0,0.3577 -0.132,0.2017 -0.285,0.4107 -0.479,0.5462 -0.384,0.2697 -0.803,0.4909 -1.207,0.734 -0.398,0.2385 -0.797,0.4777 -1.193,0.7203 -0.423,0.2591 -0.845,0.5202 -1.263,0.7856 -0.05,0.028 -0.09,0.096 -0.09,0.1418 0.05,0.7258 0.04,1.4492 -0.04,2.173 0,0.06 0.06,0.1546 0.109,0.1879 0.421,0.2511 0.847,0.4936 1.275,0.7332 0.434,0.2434 0.879,0.4691 1.307,0.7225 0.398,0.2356 0.837,0.408 1.168,0.7492 0.115,0.1185 0.31,0.2361 0.32,0.3653 0.03,0.3458 0.1,0.7076 -0.09,1.0435 -0.106,0.1875 -0.188,0.3889 -0.273,0.5866 -0.225,0.5188 -0.448,1.0383 -0.668,1.5588 -0.359,0.8483 -0.715,1.6979 -1.072,2.5471 -0.05,0.1158 -0.09,0.2329 -0.143,0.3479 -0.02,0.042 -0.03,0.09 -0.06,0.1201 -0.349,0.3562 -0.788,0.4301 -1.253,0.3514 -0.31,-0.054 -0.611,-0.1611 -0.916,-0.2457 -0.927,-0.2654 -1.857,-0.5258 -2.777,-0.8107 -0.187,-0.058 -0.278,-0.011 -0.398,0.1119 -0.471,0.4795 -0.954,0.9472 -1.427,1.4242 -0.05,0.051 -0.1,0.1393 -0.09,0.2042 0,0.1209 0.06,0.2362 0.1,0.3549 0.115,0.4112 0.233,0.8211 0.342,1.234 0.131,0.5056 0.251,1.0137 0.385,1.5186 0.131,0.4903 0.265,0.9719 0.263,1.4935 0,0.2937 -0.09,0.4675 -0.31,0.6165 -0.04,0.022 -0.05,0.049 -0.08,0.076 0,0 0.02,0.022 0.03,0.032 m -18.512,-19.8634 c -1.096,2.78 -0.945,5.4889 0.524,8.0932 1.157,2.0517 2.89,3.4293 5.124,4.1719 1.945,0.6471 3.897,0.6114 5.828,-0.027 0.65,-0.2157 1.277,-0.5416 1.864,-0.9002 1.913,-1.17 3.227,-2.8414 3.904,-4.9797 0.897,-2.8362 0.511,-5.5183 -1.13,-7.9935 -1.175,-1.7717 -2.808,-2.9732 -4.835,-3.6105 -2.632,-0.8286 -5.152,-0.5057 -7.518,0.8812 -1.731,1.015 -2.972,2.4856 -3.761,4.3651 z"
       id="path1-6-7-2-8-2-2-7-2-6-8"
       style="fill:#232323;fill-opacity:1;stroke-width:0.0395889" /><path
       d="m -15743.14,9745.7615 c 0.479,-1.8919 0.191,-3.7011 -0.835,-5.3953 -0.927,-1.5299 -2.275,-2.5645 -3.994,-3.0586 -1.66,-0.4773 -3.229,-0.4143 -4.671,0.1973 -0.656,0.2782 -1.285,0.6685 -1.884,1.1734 -1.892,1.5951 -2.683,3.6842 -2.468,6.1646 0.116,1.0522 0.446,2.02 0.995,2.9054 0.933,1.5017 2.246,2.5342 3.94,3.0467 2.137,0.6472 4.154,0.3411 6.014,-0.8851 1.384,-0.9117 2.313,-2.1849 2.797,-3.7689 0.04,-0.1268 0.07,-0.2534 0.105,-0.3795 z"
       style="fill:#c7c7c7;stroke-width:0.0395889"
       id="path328-6-5-0-4-92" /></g></svg>
