<?xml version="1.0" encoding="UTF-8" standalone="no"?>
<!-- Created with Inkscape (http://www.inkscape.org/) -->

<svg
   width="210mm"
   height="297mm"
   viewBox="0 0 210 297"
   version="1.1"
   id="svg1"
   inkscape:version="1.3.2 (091e20e, 2023-11-25, custom)"
   sodipodi:docname="TB banner &amp; button click states.svg"
   xml:space="preserve"
   inkscape:export-filename="..\OneDrive\Documents\cunting your nan\TT LOGO UNIVERSAL.svg"
   inkscape:export-xdpi="96"
   inkscape:export-ydpi="96"
   xmlns:inkscape="http://www.inkscape.org/namespaces/inkscape"
   xmlns:sodipodi="http://sodipodi.sourceforge.net/DTD/sodipodi-0.dtd"
   xmlns="http://www.w3.org/2000/svg"
   xmlns:svg="http://www.w3.org/2000/svg"><sodipodi:namedview
     id="namedview1"
     pagecolor="#000000"
     bordercolor="#000000"
     borderopacity="0.25"
     inkscape:showpageshadow="2"
     inkscape:pageopacity="0.0"
     inkscape:pagecheckerboard="0"
     inkscape:deskcolor="#000000"
     inkscape:document-units="mm"
     inkscape:zoom="0.028284271"
     inkscape:cx="-56409.443"
     inkscape:cy="32951.176"
     inkscape:window-width="2428"
     inkscape:window-height="1360"
     inkscape:window-x="0"
     inkscape:window-y="0"
     inkscape:window-maximized="0"
     inkscape:current-layer="layer1"
     showguides="false" /><defs
     id="defs1"><linearGradient
       id="swatch15"
       inkscape:swatch="solid"><stop
         style="stop-color:#ffffff;stop-opacity:1;"
         offset="0"
         id="stop16" /></linearGradient></defs><g
     inkscape:label="Layer 1"
     inkscape:groupmode="layer"
     id="layer1"><path
       sodipodi:type="star"
       style="fill:#232323;fill-opacity:1;fill-rule:evenodd;stroke-width:2.80001;stroke-linecap:round;stroke-linejoin:round"
       id="path62-5-1-14-7"
       inkscape:flatsided="true"
       sodipodi:sides="6"
       sodipodi:cx="-3494.4656"
       sodipodi:cy="1751.033"
       sodipodi:r1="28.539242"
       sodipodi:r2="14.269621"
       sodipodi:arg1="0.78539816"
       sodipodi:arg2="1.3089969"
       inkscape:rounded="0"
       inkscape:randomized="0"
       d="m -3474.2853,1771.2133 -27.5668,7.3864 -20.1803,-20.1802 7.3865,-27.5668 27.5668,-7.3865 20.1803,20.1803 z"
       inkscape:transform-center-x="3.5508425"
       inkscape:transform-center-y="-3.5506863"
       transform="matrix(0.96145755,0,0,0.96145755,-11931.496,7007.5602)"
       inkscape:export-filename="..\OneDrive\Documents\cunting your nan\TT ALogo.svg"
       inkscape:export-xdpi="96"
       inkscape:export-ydpi="96" /><path
       sodipodi:type="star"
       style="fill:#b2b2b2;fill-opacity:1;fill-rule:evenodd;stroke-width:2.80001;stroke-linecap:round;stroke-linejoin:round"
       id="path62-5-2-15-2-5"
       inkscape:flatsided="true"
       sodipodi:sides="6"
       sodipodi:cx="-3494.4656"
       sodipodi:cy="1751.033"
       sodipodi:r1="28.539242"
       sodipodi:r2="14.269621"
       sodipodi:arg1="0.78539816"
       sodipodi:arg2="1.3089969"
       inkscape:rounded="0"
       inkscape:randomized="0"
       d="m -3474.2853,1771.2133 -27.5668,7.3864 -20.1803,-20.1802 7.3865,-27.5668 27.5668,-7.3865 20.1803,20.1803 z"
       inkscape:transform-center-x="3.5509535"
       inkscape:transform-center-y="-3.5507228"
       transform="matrix(0.96145755,0,0,0.96145755,-11919.195,7053.4669)" /><path
       sodipodi:type="star"
       style="fill:#545454;fill-opacity:1;fill-rule:evenodd;stroke-width:2.80001;stroke-linecap:round;stroke-linejoin:round"
       id="path62-5-2-1-12-7-5"
       inkscape:flatsided="true"
       sodipodi:sides="6"
       sodipodi:cx="-3494.4656"
       sodipodi:cy="1751.033"
       sodipodi:r1="28.539242"
       sodipodi:r2="14.269621"
       sodipodi:arg1="0.78539816"
       sodipodi:arg2="1.3089969"
       inkscape:rounded="0"
       inkscape:randomized="0"
       d="m -3474.2853,1771.2133 -27.5668,7.3864 -20.1803,-20.1802 7.3865,-27.5668 27.5668,-7.3865 20.1803,20.1803 z"
       inkscape:transform-center-x="3.5509274"
       inkscape:transform-center-y="-3.5510515"
       transform="matrix(0.96145755,0,0,0.96145755,-11885.589,7019.8605)" /><path
       sodipodi:type="star"
       style="fill:#232323;fill-opacity:1;fill-rule:evenodd;stroke-width:2.80001;stroke-linecap:round;stroke-linejoin:round"
       id="path62-5-1-1-2-2"
       inkscape:flatsided="true"
       sodipodi:sides="6"
       sodipodi:cx="-3494.4656"
       sodipodi:cy="1751.033"
       sodipodi:r1="28.539242"
       sodipodi:r2="14.269621"
       sodipodi:arg1="0.78539816"
       sodipodi:arg2="1.3089969"
       inkscape:rounded="0"
       inkscape:randomized="0"
       d="m -3474.2853,1771.2133 -27.5668,7.3864 -20.1803,-20.1802 7.3865,-27.5668 27.5668,-7.3865 20.1803,20.1803 z"
       inkscape:transform-center-x="-1.3175531"
       inkscape:transform-center-y="-4.8458317"
       transform="matrix(0.47764832,0.83441758,-0.83441758,0.47764832,-12035.696,10761.787)"
       inkscape:export-filename="..\OneDrive\Documents\cunting your nan\TT Logo.svg"
       inkscape:export-xdpi="96"
       inkscape:export-ydpi="96" /><path
       sodipodi:type="star"
       style="fill:#b2b2b2;fill-opacity:1;fill-rule:evenodd;stroke-width:2.80001;stroke-linecap:round;stroke-linejoin:round"
       id="path62-5-2-15-3-1-16"
       inkscape:flatsided="true"
       sodipodi:sides="6"
       sodipodi:cx="-3494.4656"
       sodipodi:cy="1751.033"
       sodipodi:r1="28.539242"
       sodipodi:r2="14.269621"
       sodipodi:arg1="0.78539816"
       sodipodi:arg2="1.3089969"
       inkscape:rounded="0"
       inkscape:randomized="0"
       d="m -3474.2853,1771.2133 -27.5668,7.3864 -20.1803,-20.1802 7.3865,-27.5668 27.5668,-7.3865 20.1803,20.1803 z"
       inkscape:transform-center-x="-1.3175642"
       inkscape:transform-center-y="-4.8457964"
       transform="matrix(0.47764832,0.83441758,-0.83441758,0.47764832,-12069.426,10795.269)" /><path
       sodipodi:type="star"
       style="fill:#545454;fill-opacity:1;fill-rule:evenodd;stroke-width:2.80001;stroke-linecap:round;stroke-linejoin:round"
       id="path62-5-2-1-12-3-0-9"
       inkscape:flatsided="true"
       sodipodi:sides="6"
       sodipodi:cx="-3494.4656"
       sodipodi:cy="1751.033"
       sodipodi:r1="28.539242"
       sodipodi:r2="14.269621"
       sodipodi:arg1="0.78539816"
       sodipodi:arg2="1.3089969"
       inkscape:rounded="0"
       inkscape:randomized="0"
       d="m -3474.2853,1771.2133 -27.5668,7.3864 -20.1803,-20.1802 7.3865,-27.5668 27.5668,-7.3865 20.1803,20.1803 z"
       inkscape:transform-center-x="-1.3176889"
       inkscape:transform-center-y="-4.8458444"
       transform="matrix(0.47764832,0.83441758,-0.83441758,0.47764832,-12023.565,10807.739)" /><path
       sodipodi:type="star"
       style="fill:#b2b2b2;fill-opacity:1;fill-rule:evenodd;stroke-width:2.80001;stroke-linecap:round;stroke-linejoin:round"
       id="path62-5-2-15-4-96-38"
       inkscape:flatsided="true"
       sodipodi:sides="6"
       sodipodi:cx="-3494.4656"
       sodipodi:cy="1751.033"
       sodipodi:r1="28.539242"
       sodipodi:r2="14.269621"
       sodipodi:arg1="0.78539816"
       sodipodi:arg2="1.3089969"
       inkscape:rounded="0"
       inkscape:randomized="0"
       d="m -3474.2853,1771.2133 -27.5668,7.3864 -20.1803,-20.1802 7.3865,-27.5668 27.5668,-7.3865 20.1803,20.1803 z"
       inkscape:transform-center-x="-61.300538"
       inkscape:transform-center-y="-15.518495"
       transform="matrix(-0.96145755,0,0,-0.96145755,-17009.962,10387.284)" /><path
       sodipodi:type="star"
       style="fill:#545454;fill-opacity:1;fill-rule:evenodd;stroke-width:2.80001;stroke-linecap:round;stroke-linejoin:round"
       id="path62-5-2-1-12-5-5-8"
       inkscape:flatsided="true"
       sodipodi:sides="6"
       sodipodi:cx="-3494.4656"
       sodipodi:cy="1751.033"
       sodipodi:r1="28.539242"
       sodipodi:r2="14.269621"
       sodipodi:arg1="0.78539816"
       sodipodi:arg2="1.3089969"
       inkscape:rounded="0"
       inkscape:randomized="0"
       d="m -3474.2853,1771.2133 -27.5668,7.3864 -20.1803,-20.1802 7.3865,-27.5668 27.5668,-7.3865 20.1803,20.1803 z"
       inkscape:transform-center-x="-27.694238"
       inkscape:transform-center-y="18.087845"
       transform="matrix(-0.96145755,0,0,-0.96145755,-17043.568,10420.89)" /><path
       sodipodi:type="star"
       style="fill:#b2b2b2;fill-opacity:1;fill-rule:evenodd;stroke-width:2.80001;stroke-linecap:round;stroke-linejoin:round"
       id="path62-5-2-15-3-2-8-3"
       inkscape:flatsided="true"
       sodipodi:sides="6"
       sodipodi:cx="-3494.4656"
       sodipodi:cy="1751.033"
       sodipodi:r1="28.539242"
       sodipodi:r2="14.269621"
       sodipodi:arg1="0.78539816"
       sodipodi:arg2="1.3089969"
       inkscape:rounded="0"
       inkscape:randomized="0"
       d="m -3474.2853,1771.2133 -27.5668,7.3864 -20.1803,-20.1802 7.3865,-27.5668 27.5668,-7.3865 20.1803,20.1803 z"
       inkscape:transform-center-x="18.031112"
       inkscape:transform-center-y="5.688958"
       transform="matrix(-0.47764832,-0.83441756,0.83441756,-0.47764832,-16859.732,6645.482)" /><path
       sodipodi:type="star"
       style="fill:#232323;fill-opacity:1;fill-rule:evenodd;stroke-width:2.80001;stroke-linecap:round;stroke-linejoin:round"
       id="path62-5-2-1-12-3-3-2-3"
       inkscape:flatsided="true"
       sodipodi:sides="6"
       sodipodi:cx="-3494.4656"
       sodipodi:cy="1751.033"
       sodipodi:r1="28.539242"
       sodipodi:r2="14.269621"
       sodipodi:arg1="0.78539816"
       sodipodi:arg2="1.3089969"
       inkscape:rounded="0"
       inkscape:randomized="0"
       d="m -3474.2853,1771.2133 -27.5668,7.3864 -20.1803,-20.1802 7.3865,-27.5668 27.5668,-7.3865 20.1803,20.1803 z"
       inkscape:transform-center-x="63.892213"
       inkscape:transform-center-y="-6.781342"
       transform="matrix(-0.47764832,-0.83441756,0.83441756,-0.47764832,-16905.593,6633.0117)" /><path
       d="m -13966.053,8785.0174 v 145.2598 h 39.127 v -145.2598 z"
       style="font-weight:bold;font-size:50.8px;font-family:'Mark Pro';-inkscape-font-specification:'Mark Pro Bold';fill:#ffffff;fill-opacity:1;fill-rule:evenodd;stroke-width:16.5253;stroke-linecap:round;stroke-linejoin:round"
       id="path57-9-5-59" /><path
       d="m -13650.799,8781.1198 c -8.795,0 -17.237,1.7977 -25.332,5.3955 -8.095,3.5978 -15.242,8.5937 -21.438,14.9901 -6.096,6.2961 -10.994,14.1415 -14.691,23.5355 -3.598,9.2943 -5.396,19.3894 -5.396,30.2825 0,10.7933 1.798,20.8879 5.396,30.2825 3.697,9.3941 8.595,17.2365 14.691,23.5326 6.196,6.2961 13.343,11.246 21.438,14.8438 8.095,3.5978 16.537,5.3955 25.332,5.3955 19.088,0 33.981,-6.5464 44.675,-19.6385 v 10.1926 c 0,12.1926 -3.8,21.6374 -11.395,28.3337 -7.496,6.7954 -17.488,10.1925 -29.981,10.1925 -16.989,0 -32.98,-4.947 -47.971,-14.8409 l -13.941,31.9321 c 7.995,5.5968 17.638,9.8939 28.932,12.8921 11.292,3.0978 22.838,4.6483 34.631,4.6483 24.085,0 43.173,-6.6981 57.264,-20.09 14.092,-13.2916 21.136,-31.529 21.136,-54.7145 v -133.2678 h -38.377 v 16.1888 c -10.793,-13.3913 -25.785,-20.0864 -44.973,-20.0864 z m 9.897,35.9766 c 10.793,0 19.536,3.6474 26.232,10.9427 6.796,7.1955 10.192,16.2909 10.192,27.2843 0,10.8931 -3.396,19.9885 -10.192,27.2843 -6.796,7.1956 -15.539,10.7935 -26.232,10.7935 -10.894,0 -19.739,-3.6504 -26.534,-10.9463 -6.696,-7.2953 -10.047,-16.3382 -10.047,-27.1315 0,-10.7933 3.351,-19.8391 10.047,-27.135 6.795,-7.3951 15.64,-11.092 26.534,-11.092 z"
       style="font-weight:bold;font-size:50.8px;font-family:'Mark Pro';-inkscape-font-specification:'Mark Pro Bold';fill:#ffffff;fill-opacity:1;fill-rule:evenodd;stroke-width:16.5253;stroke-linecap:round;stroke-linejoin:round"
       id="path56-7-2-1" /><path
       d="m -13805.053,8781.1198 c -19.088,0 -33.328,6.9949 -42.722,20.9864 v -17.0888 h -38.078 v 145.2598 h 39.127 v -79.6015 c 0,-10.4935 2.898,-18.5868 8.695,-24.2833 5.796,-5.6964 13.141,-8.5459 22.035,-8.5459 8.995,0 15.94,2.8495 20.837,8.5459 4.997,5.5962 7.497,13.5903 7.497,23.9841 v 79.9007 h 39.124 v -92.4936 c 0,-16.7896 -5.297,-30.43 -15.891,-40.9235 -10.493,-10.4936 -24.034,-15.7403 -40.624,-15.7403 z"
       style="font-weight:bold;font-size:50.8px;font-family:'Mark Pro';-inkscape-font-specification:'Mark Pro Bold';fill:#ffffff;fill-opacity:1;fill-rule:evenodd;stroke-width:16.5253;stroke-linecap:round;stroke-linejoin:round"
       id="path55-6-2-8" /><path
       d="m -15048.835,8779.3203 c -20.087,0 -35.726,4.2971 -46.919,12.892 -11.093,8.5949 -16.64,20.6879 -16.64,36.2783 0,13.1918 4.198,23.5838 12.593,31.1789 8.495,7.4954 21.584,12.5445 39.273,15.1425 l 8.546,1.1986 c 8.694,1.299 14.74,2.6978 18.138,4.1969 3.397,1.3987 5.099,3.4998 5.099,6.2978 0,6.396 -6.847,9.5919 -20.538,9.5919 -19.088,0 -36.379,-4.5971 -51.869,-13.7916 l -16.338,36.2783 c 15.79,10.294 38.423,15.4416 67.905,15.4416 21.387,0 38.077,-4.548 50.07,-13.6421 11.993,-9.0942 17.988,-21.7384 17.988,-37.9285 0,-12.2924 -4.096,-22.1857 -12.291,-29.6811 -8.095,-7.5951 -20.037,-12.5916 -35.827,-14.9902 l -10.794,-1.6501 c -4.497,-0.6994 -7.844,-1.2471 -10.043,-1.6466 -2.099,-0.4014 -4.449,-1.0004 -7.048,-1.7995 -2.498,-0.8003 -4.246,-1.6998 -5.245,-2.6995 -0.9,-1.0996 -1.348,-2.3992 -1.348,-3.8976 0,-5.9969 5.695,-8.9939 17.088,-8.9939 14.691,0.1003 30.831,3.8988 48.419,11.3942 l 13.042,-36.5769 c -12.293,-4.6979 -22.985,-7.9457 -32.079,-9.7452 -8.994,-1.898 -19.389,-2.8488 -31.182,-2.8482 z"
       style="font-weight:bold;font-size:50.8px;font-family:'Mark Pro';-inkscape-font-specification:'Mark Pro Bold';fill:#b2b2b2;fill-opacity:1;fill-rule:evenodd;stroke-width:16.5253;stroke-linecap:round;stroke-linejoin:round"
       id="path54-5-0-59" /><path
       d="m -14513.514,8779.171 c -18.389,0 -31.781,6.9949 -40.176,20.9864 v -16.9389 h -44.971 v 147.0587 h 46.919 v -79.4522 c 0,-8.8947 2.299,-15.5396 6.896,-19.9371 4.697,-4.3975 11.343,-6.5971 19.937,-6.5971 7.895,0 15.741,1.2996 23.536,3.8976 l 4.349,-46.7694 c -5.097,-1.4991 -10.594,-2.248 -16.49,-2.248 z"
       style="font-weight:bold;font-size:50.8px;font-family:'Mark Pro';-inkscape-font-specification:'Mark Pro Bold';fill:#b2b2b2;fill-opacity:1;fill-rule:evenodd;stroke-width:16.5253;stroke-linecap:round;stroke-linejoin:round"
       id="path53-7-7-8" /><path
       d="m -14869.395,8779.171 c -17.889,0 -31.931,6.6455 -42.125,19.9371 v -15.8896 h -45.273 v 207.0223 h 46.773 v -73.9049 c 9.995,11.8928 23.535,17.8384 40.625,17.8384 19.488,0 35.779,-7.4464 48.871,-22.3369 13.092,-14.9907 19.638,-33.4288 19.638,-55.3153 0,-21.6864 -6.546,-39.9763 -19.638,-54.8674 -13.092,-14.9907 -29.383,-22.4837 -48.871,-22.4837 z m -11.242,43.7718 c 9.294,0 16.839,3.1988 22.636,9.5953 5.896,6.3958 8.845,14.4395 8.845,24.1333 0,9.6938 -2.949,17.741 -8.845,24.1369 -5.797,6.3958 -13.342,9.5917 -22.636,9.5917 -9.194,0 -16.74,-3.1469 -22.636,-9.4424 -5.797,-6.3959 -8.696,-14.4921 -8.696,-24.2862 0,-9.7942 2.899,-17.8372 8.696,-24.1333 5.896,-6.3965 13.442,-9.5953 22.636,-9.5953 z"
       style="font-weight:bold;font-size:50.8px;font-family:'Mark Pro';-inkscape-font-specification:'Mark Pro Bold';fill:#b2b2b2;fill-opacity:1;fill-rule:evenodd;stroke-width:16.5253;stroke-linecap:round;stroke-linejoin:round"
       id="path50-7-9-4" /><path
       d="m -15193.344,8779.171 c -20.188,0 -34.781,7.493 -43.775,22.4837 v -18.4362 h -44.97 v 147.0587 h 46.919 v -79.1506 c 0,-9.0942 2.249,-15.99 6.746,-20.6873 4.497,-4.797 10.193,-7.1973 17.089,-7.1973 7.295,0 12.994,2.3507 17.091,7.048 4.098,4.6973 6.146,11.3918 6.146,20.0865 v 79.9007 h 46.922 v -96.5417 c 0,-16.5889 -4.947,-29.8304 -14.841,-39.7243 -9.793,-9.8939 -22.236,-14.8408 -37.327,-14.8402 z"
       style="font-weight:bold;font-size:50.8px;font-family:'Mark Pro';-inkscape-font-specification:'Mark Pro Bold';fill:#b2b2b2;fill-opacity:1;fill-rule:evenodd;stroke-width:16.5253;stroke-linecap:round;stroke-linejoin:round"
       id="path49-6-2-16" /><path
       d="m -15402.465,8779.171 c -12.892,0 -24.586,3.4467 -35.079,10.3424 -10.494,6.7954 -18.689,16.0891 -24.586,27.8816 -5.896,11.7932 -8.844,24.8357 -8.844,39.1271 0,21.8865 6.497,40.3246 19.488,55.3153 13.092,14.8911 29.381,22.3374 48.868,22.3374 18.09,0 32.182,-6.5953 42.275,-19.7872 v 15.8896 h 45.422 v -147.0587 h -45.422 v 15.8896 c -10.194,-13.2916 -24.232,-19.9371 -42.122,-19.9371 z m 11.093,43.7718 c 9.194,0 16.739,3.1988 22.636,9.5953 5.896,6.2961 8.845,14.3391 8.845,24.1333 0,9.7941 -2.949,17.8903 -8.845,24.2862 -5.897,6.2961 -13.442,9.4424 -22.636,9.4424 -9.294,0 -16.84,-3.1959 -22.637,-9.5917 -5.796,-6.3959 -8.695,-14.4431 -8.695,-24.1369 0,-9.6938 2.899,-17.7375 8.695,-24.1333 5.797,-6.3965 13.343,-9.5953 22.637,-9.5953 z"
       style="font-weight:bold;font-size:50.8px;font-family:'Mark Pro';-inkscape-font-specification:'Mark Pro Bold';fill:#b2b2b2;fill-opacity:1;fill-rule:evenodd;stroke-width:16.5253;stroke-linecap:round;stroke-linejoin:round"
       id="path48-7-2-1" /><path
       d="m -15497.206,8779.171 c -18.389,0 -31.781,6.9949 -40.176,20.9864 v -16.9389 h -44.973 v 147.0587 h 46.922 v -79.4522 c 0,-8.8947 2.299,-15.5396 6.895,-19.9371 4.698,-4.3975 11.343,-6.5971 19.938,-6.5971 7.895,0 15.74,1.2996 23.536,3.8976 l 4.345,-46.7694 c -5.097,-1.4991 -10.591,-2.248 -16.487,-2.248 z"
       style="font-weight:bold;font-size:50.8px;font-family:'Mark Pro';-inkscape-font-specification:'Mark Pro Bold';fill:#b2b2b2;fill-opacity:1;fill-rule:evenodd;stroke-width:16.5253;stroke-linecap:round;stroke-linejoin:round"
       id="path47-2-4-0" /><path
       d="m -14456.698,8740.3432 v 42.8753 h -27.434 v 41.5238 h 27.434 v 49.0209 c 0,18.9882 4.745,33.8284 14.24,44.522 9.493,10.5933 23.836,15.8891 43.024,15.8891 10.993,0 20.485,-1.348 28.48,-4.047 8.095,-2.7986 15.99,-6.8969 23.685,-12.2941 l -16.189,-36.5776 c -10.293,6.0967 -18.788,9.1438 -25.484,9.1438 -13.892,0 -20.837,-7.5426 -20.837,-22.6331 v -43.0246 h 50.219 v -41.5238 h -50.219 v -42.8753 z"
       style="font-weight:bold;font-size:50.8px;font-family:'Mark Pro';-inkscape-font-specification:'Mark Pro Bold';fill:#b2b2b2;fill-opacity:1;fill-rule:evenodd;stroke-width:16.5253;stroke-linecap:round;stroke-linejoin:round"
       id="path46-49-6-1" /><path
       d="m -14340.522,8720.4061 v 39.127 h 65.06 v 170.7441 h 41.825 v -170.7441 h 65.06 v -39.127 z"
       style="font-weight:bold;font-size:50.8px;font-family:'Mark Pro';-inkscape-font-specification:'Mark Pro Bold';fill:#ffffff;fill-opacity:1;fill-rule:evenodd;stroke-width:16.5253;stroke-linecap:round;stroke-linejoin:round"
       id="path45-9-4-2" /><path
       d="m -15761.493,8720.4061 v 46.4707 h 62.211 v 163.4004 h 50.07 v -163.4004 h 62.059 v -46.4707 z"
       style="font-weight:bold;font-size:50.8px;font-family:'Mark Pro';-inkscape-font-specification:'Mark Pro Bold';fill:#b2b2b2;fill-opacity:1;fill-rule:evenodd;stroke-width:16.5253;stroke-linecap:round;stroke-linejoin:round"
       id="path44-0-4-54" /><path
       d="m -14143.244,8714.2604 v 216.0168 h 39.126 v -79.6015 c 0,-10.4935 2.899,-18.5868 8.695,-24.2833 5.797,-5.6964 13.142,-8.5459 22.036,-8.5459 8.995,0 15.94,2.8495 20.837,8.5459 4.997,5.5962 7.496,13.5903 7.496,23.9841 v 79.9007 h 39.124 v -92.4936 c 0,-16.7896 -5.296,-30.43 -15.89,-40.9235 -10.493,-10.4936 -24.034,-15.7403 -40.624,-15.7403 -18.489,0 -32.379,6.4938 -41.674,19.4856 v -86.345 z"
       style="font-weight:bold;font-size:50.8px;font-family:'Mark Pro';-inkscape-font-specification:'Mark Pro Bold';fill:#ffffff;fill-opacity:1;fill-rule:evenodd;stroke-width:16.5253;stroke-linecap:round;stroke-linejoin:round"
       id="path30-3-9-32" /><path
       d="m -13946.717,8712.3116 c -6.995,0 -12.889,2.447 -17.686,7.3443 -4.797,4.7971 -7.197,10.7432 -7.197,17.8384 0,6.9961 2.4,12.8927 7.197,17.6897 4.797,4.797 10.691,7.1973 17.686,7.1973 7.096,0 13.045,-2.4003 17.842,-7.1973 4.797,-4.797 7.195,-10.6936 7.195,-17.6897 0,-7.0952 -2.45,-13.0413 -7.347,-17.8384 -4.797,-4.8973 -10.694,-7.3443 -17.69,-7.3443 z"
       style="font-weight:bold;font-size:50.8px;font-family:'Mark Pro';-inkscape-font-specification:'Mark Pro Bold';fill:#b2b2b2;fill-opacity:1;fill-rule:evenodd;stroke-width:16.5253;stroke-linecap:round;stroke-linejoin:round"
       id="path29-3-9-689" /><path
       style="fill:#ffffff;fill-opacity:1;fill-rule:evenodd;stroke-width:16.5253;stroke-linecap:round;stroke-linejoin:round"
       d="m -15761.494,8766.8768 174.341,-46.4707 h -174.341 z"
       id="path62-1-2-2" /><path
       style="fill:#b2b2b2;fill-opacity:1;fill-rule:evenodd;stroke-width:16.5253;stroke-linecap:round;stroke-linejoin:round"
       d="m -14340.522,8720.4061 h 171.945 l -171.945,39.127 z"
       id="path63-8-2-4" /><path
       sodipodi:type="star"
       style="fill:#545454;fill-opacity:1;fill-rule:evenodd;stroke-width:2.80001;stroke-linecap:round;stroke-linejoin:round"
       id="path62-5-2-1-12-0-0-8"
       inkscape:flatsided="true"
       sodipodi:sides="6"
       sodipodi:cx="-3494.4656"
       sodipodi:cy="1751.033"
       sodipodi:r1="28.539242"
       sodipodi:r2="14.269621"
       sodipodi:arg1="0.78539816"
       sodipodi:arg2="1.3089969"
       inkscape:rounded="0"
       inkscape:randomized="0"
       d="m -3474.2853,1771.2133 -27.5668,7.3864 -20.1803,-20.1802 7.3865,-27.5668 27.5668,-7.3865 20.1803,20.1803 z"
       inkscape:transform-center-x="3.2941903"
       inkscape:transform-center-y="-5.7051681"
       transform="matrix(1.2183141,0.32644626,-0.32644626,1.2183141,-9479.4211,7949.8575)" /><path
       sodipodi:type="star"
       style="fill:#232323;fill-opacity:1;fill-rule:evenodd;stroke-width:2.80001;stroke-linecap:round;stroke-linejoin:round"
       id="path62-5-1-1-4-4-48"
       inkscape:flatsided="true"
       sodipodi:sides="6"
       sodipodi:cx="-3494.4656"
       sodipodi:cy="1751.033"
       sodipodi:r1="28.539242"
       sodipodi:r2="14.269621"
       sodipodi:arg1="0.78539816"
       sodipodi:arg2="1.3089969"
       inkscape:rounded="0"
       inkscape:randomized="0"
       d="m -3474.2853,1771.2133 -27.5668,7.3864 -20.1803,-20.1802 7.3865,-27.5668 27.5668,-7.3865 20.1803,20.1803 z"
       inkscape:transform-center-x="-3.3147984"
       inkscape:transform-center-y="-5.6932479"
       transform="matrix(0.32194155,1.2195122,-1.2195122,0.32194155,-10940.136,12640.485)"
       inkscape:export-filename="..\OneDrive\Documents\cunting your nan\TT Logo.svg"
       inkscape:export-xdpi="96"
       inkscape:export-ydpi="96" /><path
       sodipodi:type="star"
       style="fill:#b2b2b2;fill-opacity:1;fill-rule:evenodd;stroke-width:2.80001;stroke-linecap:round;stroke-linejoin:round"
       id="path62-5-2-15-3-29-6-33"
       inkscape:flatsided="true"
       sodipodi:sides="6"
       sodipodi:cx="-3494.4656"
       sodipodi:cy="1751.033"
       sodipodi:r1="28.539242"
       sodipodi:r2="14.269621"
       sodipodi:arg1="0.78539816"
       sodipodi:arg2="1.3089969"
       inkscape:rounded="0"
       inkscape:randomized="0"
       d="m -3474.2853,1771.2133 -27.5668,7.3864 -20.1803,-20.1802 7.3865,-27.5668 27.5668,-7.3865 20.1803,20.1803 z"
       inkscape:transform-center-x="-3.3148301"
       inkscape:transform-center-y="-5.6932819"
       transform="matrix(0.32194155,1.2195122,-1.2195122,0.32194155,-10994.245,12671.459)" /><path
       fill="#ffa25a"
       opacity="1"
       stroke="none"
       d="m -14673.963,8773.201 c 8.342,4.1884 16.679,8.3736 25.018,12.6223 0.3,0.4341 0.57,0.8488 0.916,1.1742 0.88,0.8283 1.001,1.9987 0.752,2.9277 -0.903,3.3746 -2.011,6.6977 -3.062,10.0327 -1.097,3.4866 -2.228,6.9626 -3.3,10.4582 -0.172,0.5581 -0.41,1.1213 0.162,1.7668 2.161,2.4437 4.223,4.9751 6.348,7.4491 0.176,0.2014 0.581,0.3633 0.838,0.3166 5.125,-0.9164 10.242,-1.898 15.375,-2.787 2.145,-0.3723 4.277,-1.0602 6.5,-0.6189 0.51,0.1023 1.151,0.1172 1.483,0.4303 1.114,1.0527 2.329,2.0279 2.666,3.6983 0.272,1.3534 0.754,2.6653 1.157,3.9902 1.133,3.7127 2.26,7.4245 3.409,11.1293 0.974,3.1394 1.969,6.2718 2.975,9.4042 0.615,1.9201 0.192,3.7205 -1.472,4.7775 -1.666,1.0575 -3.468,1.908 -5.245,2.7799 -4.345,2.1308 -8.715,4.211 -13.059,6.3481 -0.299,0.1559 -0.63,0.6028 -0.661,0.9234 -0.1,1.6006 0,3.2168 -0.155,4.8093 -0.214,2.2031 -0.606,4.3869 -0.896,6.5839 -0.05,0.3495 -0.12,0.6834 0.362,0.9898 1.277,0.8121 2.45,1.7805 3.691,2.6467 1.961,1.3682 3.956,2.6888 5.916,4.0581 2.386,1.6682 4.822,3.2797 7.101,5.0872 1.327,1.0523 2.842,2.2071 2.232,4.3563 -0.04,0.1973 0.164,0.4507 0.253,0.678 -4.213,8.3975 -8.43,16.7916 -12.7,25.1885 -0.428,0.2644 -0.902,0.4544 -1.154,0.8048 -0.522,0.6918 -1.149,0.7542 -1.92,0.731 -2.527,-0.079 -4.802,-1.1107 -7.156,-1.8308 -2.225,-0.6805 -4.411,-1.4882 -6.623,-2.2124 -2.269,-0.7437 -4.565,-1.394 -6.812,-2.1952 -1.808,-0.6441 -1.775,-0.6344 -3.267,0.7036 -2.153,1.9328 -4.363,3.811 -6.649,5.5828 -0.682,0.5134 -0.858,0.8897 -0.67,1.6742 0.392,1.6289 0.689,3.2802 1.018,4.9254 0.537,2.6801 1.103,5.355 1.588,8.0427 0.493,2.7209 1.403,5.3921 0.878,8.2363 -0.265,1.4265 -1.159,2.3894 -2.252,3.1128 -0.819,0.5407 -1.844,0.7873 -2.796,1.1043 -6.62,2.206 -13.242,4.3978 -19.865,6.593 -0.272,0.089 -0.559,0.1486 -0.805,0.2849 -1.58,0.884 -3.24,1.2205 -5.031,0.8242 -0.594,-0.1304 -1.382,-7e-4 -1.768,-0.3466 -0.889,-0.8229 -1.74,-1.7532 -2.37,-2.784 -0.773,-1.2667 -1.302,-2.678 -1.943,-4.025 -2.249,-4.7367 -4.501,-9.4733 -6.773,-14.2515 -3.398,0.3758 -6.788,0.4598 -10.124,-0.3476 -1.181,-0.2839 -1.789,0.2113 -2.373,1.098 -1.671,2.5467 -3.371,5.0743 -5.085,7.5923 -2.082,3.0501 -4.129,6.1275 -6.311,9.106 -0.846,1.1319 -2.048,1.9346 -3.64,1.7247 -0.205,-0.022 -0.445,0.097 -0.668,0.1496 -8.623,-4.3291 -17.245,-8.6571 -25.868,-13.0454 -0.118,-0.2268 -0.253,-0.386 -0.351,-0.5632 -0.398,-0.7086 -1.103,-1.4203 -1.107,-2.1337 0,-1.5209 0.265,-3.0312 0.812,-4.523 1.135,-3.0799 2.029,-6.2491 3.061,-9.3685 0.899,-2.7116 1.873,-5.3985 2.754,-8.1154 0.11,-0.3041 -0.08,-0.8413 -0.316,-1.118 -2.119,-2.5191 -4.302,-4.9901 -6.415,-7.5182 -0.434,-0.5213 -0.847,-0.6808 -1.472,-0.5451 -0.939,0.2042 -1.884,0.3718 -2.83,0.5516 -2.802,0.5408 -5.62,1.0211 -8.406,1.6344 -3.489,0.7656 -6.995,1.3226 -10.574,1.3339 -0.23,0.01 -0.523,-0.1012 -0.706,-0.2484 -1.483,-1.1877 -2.621,-2.4628 -3.127,-4.4987 -1.071,-4.3139 -2.546,-8.5298 -3.878,-12.7797 -1.134,-3.623 -2.245,-7.255 -3.478,-10.8432 -0.473,-1.377 -0.181,-2.689 -0.118,-4.0344 0.01,-0.1633 0.157,-0.3568 0.287,-0.4728 0.807,-0.618 1.558,-1.3438 2.449,-1.8035 1.822,-0.9403 3.717,-1.7359 5.579,-2.596 3.588,-1.6552 7.159,-3.3461 10.764,-4.9596 1.8,-0.8026 1.966,-0.8683 1.8,-2.2403 -0.361,-2.995 -0.33,-5.9807 0.319,-8.924 0.311,-1.4209 0.242,-2.3621 -1.242,-3.2037 -2.036,-1.156 -3.849,-2.7012 -5.76,-4.078 -1.609,-1.1592 -3.215,-2.3242 -4.832,-3.4717 -1.467,-1.0416 -2.953,-2.0592 -4.423,-3.0937 -1.657,-1.1654 -2.86,-2.5898 -2.763,-4.7817 0,-0.2579 -0.155,-0.5144 -0.238,-0.7704 4.187,-8.3391 8.372,-16.6795 12.617,-25.0172 0.308,-0.1661 0.588,-0.3002 0.821,-0.4897 0.457,-0.3629 0.868,-1.0061 1.34,-1.081 1.147,-0.1505 2.389,-0.2463 3.489,0.036 2.188,0.5627 4.305,1.3981 6.454,2.1138 2.119,0.7063 4.239,1.414 6.364,2.1033 2.269,0.7355 4.542,1.46 6.822,2.1579 0.23,0.067 0.642,0.04 0.798,-0.1174 2.481,-2.4641 5.187,-4.6541 8.029,-6.6866 0.241,-0.1658 0.404,-0.671 0.345,-0.9844 -0.398,-2.3216 -0.845,-4.6374 -1.307,-6.9468 -0.471,-2.3484 -1.036,-4.6778 -1.45,-7.0341 -0.383,-2.1883 -1.133,-4.3359 -0.919,-6.6074 0.07,-0.7915 -0.108,-1.8734 0.333,-2.315 1.18,-1.1763 2.282,-2.5659 4.091,-2.9352 1.016,-0.1995 2.004,-0.5328 2.996,-0.8379 2.595,-0.8031 5.189,-1.613 7.778,-2.4376 4.221,-1.3431 8.438,-2.6994 12.658,-4.0512 0.572,-0.1848 1.141,-0.3849 1.715,-0.5682 0.214,-0.06 0.43,-0.1583 0.634,-0.147 2.396,0.1642 4.041,1.538 5.204,3.4768 0.78,1.299 1.332,2.7381 1.965,4.123 1.923,4.2151 3.881,8.4175 5.722,12.6713 0.374,0.8643 0.833,1.0487 1.653,1.1042 3.224,0.2215 6.444,0.5231 9.667,0.7582 0.346,0.025 0.816,-0.073 1.037,-0.3006 0.4,-0.4197 0.65,-0.9834 0.984,-1.4702 1.141,-1.7054 2.269,-3.4201 3.437,-5.1072 1.429,-2.065 2.914,-4.0913 4.339,-6.159 1.384,-2.0095 2.723,-4.005 4.635,-5.628 1.073,-0.9171 1.991,-1.1302 3.214,-0.8023 0.178,0.053 0.353,0.051 0.532,0.059 0.02,-0.018 0.04,-0.1174 0.04,-0.1954 m -14.636,129.7281 c 13.581,-4.6931 22.998,-13.7195 27.915,-27.2285 3.872,-10.6431 3.481,-21.2809 -0.793,-31.7629 -3.719,-9.1232 -9.958,-16.1431 -18.329,-21.1919 -2.819,-1.7009 -5.971,-2.9682 -9.115,-3.989 -10.261,-3.3296 -20.472,-2.9009 -30.398,1.316 -13.163,5.5925 -21.746,15.3947 -25.658,29.1264 -2.798,9.8288 -2.074,19.5528 1.938,28.9499 5.209,12.2007 14.269,20.3954 26.736,24.6972 9.119,3.1454 18.369,3.0785 27.702,0.081 z"
       id="path1-6-7-6-03-8"
       style="fill:#5f5f5f;fill-opacity:1;stroke-width:0.190349" /><path
       d="m -14719.558,8894.202 c 3.38,1.6806 7.127,2.8655 11.228,3.5364 12.947,2.1185 24.087,-1.902 33.337,-11.3203 3.838,-4.0976 6.595,-8.7659 8.265,-14.0301 2.832,-8.937 2.461,-17.7845 -1.316,-26.3759 -4.766,-10.8372 -12.956,-17.9033 -24.311,-21.1649 -8.445,-2.4274 -16.775,-1.7753 -24.822,1.7396 -10.314,4.5038 -17.239,12.2124 -20.746,22.8525 -2.965,9.0106 -2.484,18.0042 1.454,26.6286 3.806,8.3336 9.473,14.4346 16.911,18.1341 z m 1.606,-3.0998 c -6.745,-3.354 -11.883,-8.8871 -15.334,-16.4435 -3.572,-7.8213 -4.01,-15.9788 -1.319,-24.1475 3.178,-9.65 9.46,-16.6387 18.813,-20.7226 7.297,-3.1874 14.851,-3.7782 22.507,-1.58 10.298,2.9596 17.724,9.3663 22.046,19.194 3.428,7.7934 3.763,15.8151 1.195,23.9194 -1.514,4.7735 -4.017,9.0052 -7.495,12.7231 -8.387,8.5403 -18.494,12.1832 -30.23,10.2647 -3.722,-0.6092 -7.119,-1.6842 -10.183,-3.2076 z"
       style="fill:#c7c7c7;fill-opacity:1;stroke-width:0.190349"
       id="path326-0-2-3-3" /><path
       fill="#ffa25a"
       opacity="1"
       stroke="none"
       d="m -14675.572,8961.8416 c 3.369,5.1226 6.744,10.2503 10.091,15.4049 0.03,0.349 0.05,0.6722 0.139,0.9739 0.229,0.7598 -0.09,1.4657 -0.536,1.9113 -1.614,1.6339 -3.347,3.1522 -5.041,4.7065 -1.77,1.6254 -3.557,3.2328 -5.317,4.8685 -0.27,0.2729 -0.606,0.5007 -0.491,1.0578 0.428,2.1019 0.77,4.221 1.167,6.3293 0.03,0.1757 0.209,0.395 0.373,0.4536 3.219,1.164 6.454,2.286 9.671,3.4682 1.343,0.4931 2.781,0.7998 3.901,1.7831 0.257,0.228 0.619,0.4448 0.703,0.7353 0.289,0.9636 0.661,1.9206 0.303,2.9829 -0.289,0.8598 -0.446,1.7644 -0.652,2.6514 -0.579,2.4826 -1.156,4.9683 -1.719,7.4554 -0.476,2.1087 -0.941,4.2182 -1.399,6.3302 -0.278,1.2979 -1.117,2.1793 -2.405,2.2387 -1.297,0.055 -2.605,-0.056 -3.901,-0.1425 -3.175,-0.216 -6.348,-0.4693 -9.521,-0.6767 -0.234,-0.025 -0.559,0.1337 -0.678,0.3157 -0.587,0.8745 -1.058,1.8302 -1.669,2.6869 -0.854,1.1767 -1.788,2.2985 -2.675,3.4533 -0.141,0.1889 -0.303,0.3406 -0.119,0.6831 0.462,0.8837 0.81,1.8195 1.234,2.7219 0.664,1.4213 1.366,2.8287 2.032,4.2527 0.811,1.7356 1.67,3.4547 2.373,5.2328 0.408,1.0344 0.89,2.1874 -0.161,3.214 -0.08,0.095 -0.05,0.3123 -0.08,0.4685 -5.16,3.3942 -10.32,6.7881 -15.509,10.1666 -0.334,0 -0.665,-0.039 -0.923,0.078 -0.527,0.2286 -0.901,0.053 -1.335,-0.2159 -1.413,-0.876 -2.367,-2.2092 -3.47,-3.3927 -1.046,-1.1194 -2.023,-2.2973 -3.044,-3.4374 -1.046,-1.1681 -2.141,-2.2941 -3.157,-3.4892 -0.817,-0.9609 -0.801,-0.9432 -2.092,-0.674 -1.858,0.3955 -3.735,0.7377 -5.619,0.9941 -0.557,0.074 -0.781,0.2245 -0.937,0.7283 -0.313,1.0559 -0.688,2.0936 -1.042,3.1372 -0.573,1.7043 -1.13,3.4126 -1.74,5.1011 -0.613,1.71 -0.972,3.5319 -2.206,4.9786 -0.619,0.7259 -1.445,0.9792 -2.306,1.0305 -0.643,0.039 -1.308,-0.1564 -1.955,-0.2902 -4.494,-0.9199 -8.983,-1.8476 -13.478,-2.7768 -0.189,-0.04 -0.367,-0.099 -0.551,-0.1016 -1.19,-0.016 -2.245,-0.3694 -3.133,-1.1823 -0.284,-0.2844 -0.789,-0.4581 -0.903,-0.771 -0.248,-0.7569 -0.414,-1.5692 -0.432,-2.3636 -0.02,-0.9756 0.139,-1.9525 0.215,-2.931 0.278,-3.4354 0.553,-6.8719 0.829,-10.339 -2.058,-0.9039 -4.017,-1.9704 -5.65,-3.5257 -0.581,-0.5519 -1.088,-0.4694 -1.713,-0.1565 -1.787,0.9009 -3.585,1.7829 -5.39,2.6507 -2.187,1.0545 -4.364,2.1337 -6.585,3.1118 -0.853,0.3732 -1.802,0.427 -2.639,-0.2149 -0.124,-0.078 -0.285,-0.093 -0.43,-0.1346 -3.486,-5.2992 -6.971,-10.5976 -10.437,-15.9288 0,-0.1765 -0.02,-0.3048 -0.02,-0.4393 0,-0.5325 -0.161,-1.171 0.07,-1.5777 0.489,-0.874 1.142,-1.6441 1.955,-2.3021 1.658,-1.3813 3.21,-2.8907 4.823,-4.3274 1.4,-1.2509 2.839,-2.4599 4.236,-3.7158 0.142,-0.1594 0.227,-0.5078 0.186,-0.7403 -0.379,-2.132 -0.809,-4.2556 -1.18,-6.3885 -0.08,-0.4399 -0.258,-0.6663 -0.658,-0.7937 -0.602,-0.1927 -1.196,-0.4095 -1.794,-0.6171 -1.773,-0.6144 -3.534,-1.2652 -5.324,-1.8338 -2.237,-0.7097 -4.417,-1.5466 -6.458,-2.7159 -0.127,-0.072 -0.277,-0.2147 -0.32,-0.3751 -0.452,-1.162 -0.682,-2.2637 -0.3,-3.5877 0.807,-2.8083 1.355,-5.692 1.993,-8.5492 0.544,-2.4371 1.106,-4.8689 1.584,-7.3177 0.182,-0.9404 0.782,-1.5896 1.259,-2.3348 0.07,-0.081 0.208,-0.1581 0.318,-0.1762 0.661,-0.09 1.33,-0.2509 1.987,-0.2211 1.348,0.064 2.689,0.2354 4.029,0.355 2.588,0.2375 5.176,0.4481 7.76,0.7158 1.287,0.1328 1.403,0.1497 1.762,-0.683 0.777,-1.8252 1.776,-3.5154 3.113,-4.9777 0.635,-0.7141 0.907,-1.2716 0.347,-2.2323 -0.78,-1.3273 -1.304,-2.803 -1.939,-4.2139 -0.535,-1.189 -1.068,-2.3813 -1.61,-3.5649 -0.492,-1.0739 -1.003,-2.1412 -1.503,-3.2175 -0.557,-1.2058 -0.778,-2.4156 0,-3.6271 0.09,-0.1368 0.08,-0.3436 0.117,-0.5175 5.125,-3.372 10.249,-6.7439 15.407,-10.0956 0.223,0 0.432,0.02 0.628,-0.01 0.377,-0.059 0.819,-0.3003 1.118,-0.1747 0.701,0.2903 1.44,0.6438 1.973,1.1658 1.062,1.0408 1.991,2.2108 2.982,3.3268 0.974,1.0974 1.947,2.197 2.931,3.2883 1.048,1.1632 2.107,2.3247 3.172,3.4688 0.109,0.1296 0.353,0.2343 0.495,0.1969 2.226,-0.582 4.482,-0.9467 6.771,-1.1665 0.183,-0.026 0.45,-0.2537 0.526,-0.4416 0.536,-1.4537 1.043,-2.9185 1.54,-4.3857 0.504,-1.4904 0.947,-3.0028 1.485,-4.4822 0.503,-1.3703 0.782,-2.8381 1.651,-4.0606 0.309,-0.4217 0.552,-1.1043 0.946,-1.2129 1.059,-0.282 2.138,-0.7205 3.292,-0.3278 0.646,0.2215 1.318,0.3569 1.983,0.5091 1.741,0.3954 3.484,0.7867 5.227,1.1664 2.846,0.6246 5.694,1.2394 8.539,1.8551 0.389,0.086 0.778,0.1575 1.165,0.2419 0.135,0.028 0.296,0.049 0.408,0.1254 1.308,0.8781 1.793,2.2015 1.82,3.6905 0.02,0.9966 -0.144,1.9938 -0.239,2.989 -0.288,3.0357 -0.554,6.0728 -0.904,9.099 -0.07,0.6135 0.127,0.8682 0.576,1.171 1.763,1.1857 3.497,2.4146 5.257,3.6108 0.18,0.1219 0.487,0.2252 0.687,0.1687 0.375,-0.097 0.695,-0.3398 1.045,-0.5107 1.208,-0.5969 2.416,-1.201 3.634,-1.7786 1.495,-0.7039 3.008,-1.3675 4.497,-2.0787 1.448,-0.6902 2.866,-1.3861 4.487,-1.6827 0.915,-0.165 1.508,0.013 2.097,0.6028 0.09,0.08 0.194,0.1409 0.282,0.2052 0,0 0.06,-0.064 0.09,-0.1003 m -50.972,69.0496 c 9.273,1.7912 17.602,-0.2514 24.841,-6.328 5.703,-4.7865 8.976,-10.973 9.989,-18.3446 0.881,-6.4159 -0.362,-12.4635 -3.47,-18.0905 -1.046,-1.894 -2.423,-3.6513 -3.878,-5.2656 -4.748,-5.2694 -10.702,-8.3818 -17.74,-9.2438 -9.331,-1.1419 -17.44,1.6172 -24.179,8.1526 -4.824,4.6757 -7.609,10.4489 -8.413,17.1181 -1.045,8.6587 1.419,16.3008 7.103,22.848 4.158,4.7881 9.446,7.7905 15.747,9.1538 z"
       id="path1-6-7-2-1-0-6"
       style="fill:#5f5f5f;fill-opacity:1;stroke-width:0.125136" /><path
       d="m -14741.303,9015.7447 c 1.371,2.0671 3.113,3.9718 5.227,5.7007 6.675,5.462 14.34,6.8366 22.704,4.5157 3.528,-1.0759 6.636,-2.8222 9.314,-5.274 4.55,-4.1574 7.247,-9.3148 7.923,-15.4462 0.846,-7.7401 -1.493,-14.4534 -6.886,-20.0435 -4.009,-4.1555 -8.965,-6.5234 -14.702,-7.1669 -7.352,-0.8243 -13.831,1.2843 -19.323,6.1925 -4.652,4.1528 -7.332,9.4337 -7.923,15.6394 -0.573,5.9941 0.648,11.3315 3.666,15.8822 z m 1.931,-1.2391 c -2.738,-4.1272 -3.843,-8.9657 -3.326,-14.4034 0.54,-5.6244 2.97,-10.4129 7.186,-14.1805 4.982,-4.4491 10.853,-6.3657 17.52,-5.6171 5.201,0.5825 9.699,2.7323 13.334,6.5018 4.891,5.0688 7.012,11.1551 6.244,18.1733 -0.609,5.5646 -3.06,10.2372 -7.183,14.0096 -2.431,2.2207 -5.247,3.8063 -8.448,4.7808 -7.585,2.1039 -14.533,0.8598 -20.588,-4.0946 -1.917,-1.5674 -3.497,-3.2945 -4.741,-5.1716 z"
       style="fill:#c7c7c7;fill-opacity:1;stroke-width:0.125136"
       id="path326-0-3-0-9-5" /><path
       fill="#ffa25a"
       opacity="1"
       stroke="none"
       d="m -14565.328,8988.7715 c -0.345,5.0891 -0.694,10.1737 -1.071,15.2725 -0.153,0.2472 -0.316,0.4606 -0.404,0.7058 -0.229,0.6189 -0.811,0.9113 -1.315,0.9977 -1.892,0.2588 -3.8,0.402 -5.701,0.5802 -1.99,0.1835 -3.979,0.3489 -5.968,0.5459 -0.318,0.032 -0.653,0.031 -0.858,0.4522 -0.773,1.6053 -1.611,3.1812 -2.412,4.7737 -0.06,0.139 -0.07,0.3627 0.02,0.4881 1.544,2.3905 3.12,4.7606 4.655,7.1591 0.64,1.0009 1.438,1.93 1.685,3.1447 0.05,0.2708 0.185,0.6044 0.1,0.838 -0.291,0.7851 -0.528,1.6035 -1.3,2.1252 -0.629,0.4181 -1.183,0.9429 -1.764,1.4276 -1.631,1.3535 -3.265,2.7053 -4.888,4.068 -1.374,1.1565 -2.744,2.3194 -4.109,3.4869 -0.833,0.7199 -1.836,0.8791 -2.719,0.2673 -0.885,-0.6138 -1.694,-1.343 -2.508,-2.0544 -1.992,-1.7402 -3.968,-3.4983 -5.96,-5.2385 -0.143,-0.127 -0.437,-0.19 -0.607,-0.1314 -0.827,0.2892 -1.621,0.6807 -2.456,0.9383 -1.154,0.3584 -2.338,0.6229 -3.506,0.9417 -0.199,0.044 -0.366,0.087 -0.418,0.395 -0.138,0.8154 -0.38,1.6108 -0.554,2.4195 -0.275,1.2763 -0.517,2.562 -0.795,3.8371 -0.335,1.5565 -0.632,3.124 -1.06,4.6551 -0.25,0.8904 -0.513,1.8955 -1.725,2.0441 -0.105,0.013 -0.188,0.1816 -0.277,0.2812 -5.12,-0.3481 -10.243,-0.6984 -15.376,-1.076 -0.223,-0.1634 -0.428,-0.3483 -0.651,-0.412 -0.46,-0.1051 -0.623,-0.4169 -0.774,-0.8105 -0.495,-1.2907 -0.456,-2.6545 -0.591,-3.9929 -0.128,-1.2658 -0.182,-2.5367 -0.284,-3.8039 -0.105,-1.2998 -0.264,-2.5962 -0.332,-3.8944 -0.06,-1.0496 -0.06,-1.0291 -1.049,-1.5005 -1.426,-0.6736 -2.841,-1.3917 -4.216,-2.169 -0.406,-0.2299 -0.63,-0.2452 -0.987,0.015 -0.738,0.5423 -1.507,1.0415 -2.266,1.5554 -1.236,0.8372 -2.464,1.6878 -3.717,2.5002 -1.266,0.8221 -2.419,1.8474 -3.964,2.183 -0.774,0.1699 -1.448,-0.078 -2.045,-0.4788 -0.442,-0.2965 -0.786,-0.7608 -1.145,-1.1727 -2.512,-2.8696 -5.016,-5.7436 -7.524,-8.6176 -0.09,-0.1137 -0.192,-0.2488 -0.312,-0.3452 -0.779,-0.6097 -1.299,-1.3741 -1.478,-2.358 -0.06,-0.3288 -0.29,-0.6982 -0.2,-0.9651 0.217,-0.6258 0.518,-1.2456 0.897,-1.787 0.461,-0.6686 1.081,-1.2153 1.623,-1.8241 1.904,-2.1408 3.809,-4.2817 5.73,-6.4411 -0.909,-1.6338 -1.667,-3.3237 -1.965,-5.1743 -0.107,-0.657 -0.483,-0.8564 -1.052,-0.9678 -1.634,-0.3028 -3.271,-0.628 -4.898,-0.9567 -1.977,-0.4025 -3.963,-0.7865 -5.922,-1.2539 -0.751,-0.18 -1.408,-0.6238 -1.63,-1.4822 -0.03,-0.1151 -0.141,-0.2029 -0.215,-0.3041 0.359,-5.259 0.717,-10.5198 1.105,-15.7904 0.09,-0.104 0.151,-0.1993 0.202,-0.3022 0.279,-0.3434 0.477,-0.8596 0.835,-1.014 0.764,-0.3271 1.585,-0.5066 2.448,-0.5476 1.793,-0.08 3.579,-0.2985 5.368,-0.4382 1.557,-0.1197 3.114,-0.1994 4.671,-0.3291 0.177,-0.019 0.414,-0.2124 0.505,-0.3871 0.821,-1.6016 1.603,-3.2235 2.429,-4.823 0.164,-0.3342 0.163,-0.5726 -0.04,-0.857 -0.302,-0.4293 -0.586,-0.8717 -0.877,-1.309 -0.864,-1.2977 -1.704,-2.6167 -2.6,-3.8912 -1.123,-1.5951 -2.144,-3.2439 -2.907,-5.0452 -0.05,-0.1209 -0.06,-0.2885 -0.02,-0.4073 0.283,-0.9996 0.686,-1.8419 1.608,-2.5245 1.947,-1.4527 3.76,-3.0857 5.618,-4.6557 1.585,-1.3377 3.181,-2.6651 4.729,-4.0451 0.6,-0.5241 1.318,-0.6582 2.008,-0.911 0.09,-0.024 0.223,0 0.298,0.043 0.483,0.2725 1.005,0.505 1.426,0.8535 0.86,0.719 1.658,1.5068 2.488,2.2644 1.59,1.4562 3.196,2.8981 4.777,4.3755 0.783,0.7355 0.852,0.8023 1.508,0.432 1.432,-0.8155 2.944,-1.4289 4.564,-1.7266 0.779,-0.1449 1.24,-0.377 1.351,-1.3037 0.154,-1.2682 0.552,-2.5065 0.838,-3.7627 0.244,-1.0561 0.492,-2.1102 0.728,-3.167 0.214,-0.9608 0.412,-1.9241 0.625,-2.8835 0.236,-1.0813 0.698,-1.9901 1.818,-2.4075 0.132,-0.043 0.23,-0.1833 0.343,-0.2799 5.088,0.3483 10.17,0.691 15.271,1.0688 0.16,0.1097 0.284,0.22 0.421,0.3104 0.279,0.1516 0.691,0.2149 0.826,0.4457 0.319,0.5471 0.629,1.1511 0.718,1.7651 0.181,1.2214 0.207,2.4651 0.304,3.7024 0.09,1.213 0.181,2.4323 0.284,3.6485 0.109,1.2988 0.226,2.5994 0.355,3.8943 0,0.1278 0.116,0.3305 0.228,0.3789 1.764,0.7326 3.439,1.6272 5.065,2.6323 0.145,0.088 0.424,0.056 0.569,-0.035 1.086,-0.6923 2.158,-1.4064 3.226,-2.127 1.082,-0.7338 2.136,-1.5108 3.235,-2.2191 1.022,-0.6555 1.945,-1.4865 3.136,-1.858 0.409,-0.1359 0.921,-0.4514 1.236,-0.3226 0.842,0.3454 1.778,0.6002 2.344,1.4418 0.315,0.4693 0.691,0.8968 1.056,1.331 0.951,1.1388 1.909,2.2739 2.872,3.4055 1.568,1.8415 3.145,3.6812 4.717,5.5199 0.213,0.251 0.436,0.4959 0.65,0.7452 0.07,0.098 0.167,0.1808 0.206,0.2883 0.424,1.241 0.08,2.3598 -0.651,3.3579 -0.496,0.6626 -1.105,1.242 -1.658,1.8633 -1.72,1.8587 -3.419,3.738 -5.174,5.5635 -0.357,0.3708 -0.348,0.6439 -0.206,1.0672 0.57,1.6719 1.099,3.3578 1.661,5.0313 0.06,0.1819 0.212,0.3969 0.372,0.4592 0.295,0.115 0.629,0.1243 0.949,0.188 1.1,0.2141 2.201,0.4189 3.3,0.6522 1.342,0.2843 2.675,0.6037 4.018,0.8829 1.306,0.2719 2.595,0.5256 3.818,1.1461 0.687,0.3452 0.989,0.7646 1.082,1.4498 0.01,0.093 0.05,0.1923 0.08,0.2788 0,0 0.08,-0.01 0.112,-0.02 m -68.459,20.0489 c 5.235,5.8495 11.776,8.6887 19.621,8.3093 6.18,-0.2988 11.457,-2.7458 15.833,-7.1164 3.812,-3.8005 6.032,-8.4275 6.806,-13.7124 0.258,-1.7817 0.233,-3.6356 0.08,-5.4356 -0.491,-5.8739 -2.867,-10.9302 -7.089,-15.0393 -5.602,-5.4506 -12.355,-7.7038 -20.1,-6.7686 -5.543,0.6681 -10.291,3.0865 -14.176,7.0965 -5.047,5.2031 -7.26,11.5002 -6.795,18.6886 0.347,5.2635 2.334,9.9088 5.817,13.9779 z"
       id="path1-6-7-2-8-2-4-7"
       style="fill:#5f5f5f;fill-opacity:1;stroke-width:0.104007" /><path
       d="m -14603.447,8978.9583 c -3.88,-3.3554 -8.464,-4.8119 -13.654,-4.401 -4.682,0.375 -8.699,2.319 -11.886,5.7704 -3.092,3.3241 -4.781,7.0948 -5.046,11.2014 -0.119,1.8662 0.06,3.8059 0.537,5.8071 1.516,6.3219 5.487,10.6417 11.565,13.0638 2.607,0.9646 5.269,1.3323 7.994,1.0855 4.626,-0.4197 8.596,-2.2836 11.797,-5.6587 4.041,-4.2538 5.697,-9.3509 5.012,-15.1631 -0.509,-4.3228 -2.404,-8.0051 -5.554,-11.009 -0.245,-0.2506 -0.503,-0.4799 -0.759,-0.7079 z"
       style="fill:#c7c7c7;stroke-width:0.104007"
       id="path328-3-2"
       inkscape:export-filename="..\OneDrive\Documents\cunting your nan\path328-3.png"
       inkscape:export-xdpi="96"
       inkscape:export-ydpi="96" /><path
       d="m -13392.168,8856.9637 v 73.3135 h 11.834 v -73.3135 z"
       style="font-weight:500;font-size:50.8px;font-family:'Mark Pro';-inkscape-font-specification:'Mark Pro Medium';fill:#b2b2b2;fill-rule:evenodd;stroke:#cacaca;stroke-width:0;stroke-linecap:round;stroke-linejoin:round"
       id="path79" /><path
       d="m -13461.504,8856.9637 v 73.3135 h 11.835 v -28.8015 h 16.601 c 8.343,0 14.751,-1.9724 19.219,-5.9173 4.503,-3.9451 6.756,-9.3919 6.756,-16.3392 0,-6.9476 -2.253,-12.3934 -6.756,-16.3383 -4.468,-3.945 -10.876,-5.9172 -19.219,-5.9172 z m 11.835,11.1538 h 16.287 c 4.783,0 8.309,0.9078 10.579,2.7231 2.268,1.8155 3.404,4.6081 3.404,8.3786 0,3.7704 -1.136,6.563 -3.404,8.3784 -2.27,1.8153 -5.796,2.7231 -10.579,2.7231 h -16.287 z"
       style="font-weight:500;font-size:50.8px;font-family:'Mark Pro';-inkscape-font-specification:'Mark Pro Medium';fill:#b2b2b2;fill-rule:evenodd;stroke:#cacaca;stroke-width:0;stroke-linecap:round;stroke-linejoin:round"
       id="path78" /><path
       d="m -13516.751,8856.9637 -28.959,73.3135 h 12.307 l 7.226,-18.6949 h 33.199 l 7.229,18.6949 h 12.725 l -28.959,-73.3135 z m 7.174,11.7824 12.256,31.6301 h -24.51 z"
       style="font-weight:500;font-size:50.8px;font-family:'Mark Pro';-inkscape-font-specification:'Mark Pro Medium';fill:#b2b2b2;fill-rule:evenodd;stroke:#cacaca;stroke-width:0;stroke-linecap:round;stroke-linejoin:round"
       id="path77" /></g></svg>
