<?xml version="1.0" encoding="UTF-8" standalone="no"?>
<!-- Created with Inkscape (http://www.inkscape.org/) -->

<svg
   width="308.87167mm"
   height="66.977913mm"
   viewBox="0 0 308.87167 66.977913"
   version="1.1"
   id="svg1"
   xml:space="preserve"
   xmlns:xlink="http://www.w3.org/1999/xlink"
   xmlns="http://www.w3.org/2000/svg"
   xmlns:svg="http://www.w3.org/2000/svg"><defs
     id="defs1"><linearGradient
       id="linearGradient7"><stop
         style="stop-color:#000000;stop-opacity:0;"
         offset="0"
         id="stop8" /><stop
         style="stop-color:#000000;stop-opacity:0.49803922;"
         offset="0.25"
         id="stop12" /><stop
         style="stop-color:#000000;stop-opacity:1;"
         offset="0.5"
         id="stop10" /><stop
         style="stop-color:#000000;stop-opacity:0.49803922;"
         offset="0.75"
         id="stop11" /><stop
         style="stop-color:#000000;stop-opacity:0;"
         offset="1"
         id="stop9" /></linearGradient><linearGradient
       xlink:href="#linearGradient7"
       id="linearGradient9"
       x1="169.66284"
       y1="5.1017914"
       x2="169.66284"
       y2="63.165035"
       gradientUnits="userSpaceOnUse" /></defs><g
     id="g18"><g
       id="layer1"
       transform="matrix(0.48279991,0,0,0.48279991,-26.495057,-24.099017)"
       style="fill:#ffffff"><g
         id="text1"
         style="font-weight:bold;font-size:71.5576px;font-family:Arial;-inkscape-font-specification:'Arial Bold';text-align:center;letter-spacing:-2.38524px;text-anchor:middle;fill:#ffffff;stroke-width:4.32744"
         aria-label="gladetimes"><path
           style="font-style:italic;font-weight:900;font-family:'Circular Std Black Italic';-inkscape-font-specification:'Circular Std Black Italic,  Heavy Italic';letter-spacing:-5.18414px;fill:#000000"
           d="m 102.07873,118.47294 c 0,5.65305 -3.864115,9.15937 -7.871341,9.15937 -3.792553,0 -6.368627,-2.43296 -6.368627,-6.36863 0,-5.29526 3.434765,-9.08781 8.157567,-9.08781 3.434765,0 6.082401,2.43295 6.082401,6.29707 z M 72.668551,139.7971 c 0,6.36863 5.009032,13.73906 16.816036,13.73906 11.162983,0 17.960963,-7.72822 20.036133,-17.67473 l 6.86953,-32.55871 h -10.51897 l -0.71558,3.721 c -1.14492,-2.00361 -4.43657,-4.50813 -10.37585,-4.50813 -10.232737,0 -17.817843,8.65847 -17.817843,19.53523 0,8.44379 5.581493,14.6693 14.383078,14.6693 3.86411,0 6.583299,-1.71738 7.799779,-3.22009 l -0.500904,2.21829 c -1.288036,5.50993 -4.722801,8.44379 -9.302488,8.44379 -4.722802,0 -7.15576,-2.79074 -7.15576,-6.22551 z m 50.702379,-0.93025 11.01987,-51.807702 h -10.87676 l -11.01987,51.807702 z m 24.44066,-26.54787 c 3.57788,0 6.08239,2.3614 6.08239,6.79797 0,7.37044 -4.15034,10.94832 -8.08601,10.94832 -3.57788,0 -6.22551,-2.50452 -6.22551,-7.08421 0,-5.15214 2.86231,-10.66208 8.22913,-10.66208 z m 9.80339,-9.01626 -0.71558,3.79256 c -0.71557,-1.3596 -3.29165,-4.65125 -10.08962,-4.65125 -10.01806,0 -17.96096,8.65847 -17.96096,21.03794 0,9.01626 5.36682,15.95734 13.95373,15.95734 4.86592,0 7.58511,-2.64763 8.9447,-4.79436 -0.14311,0.93025 -0.21467,1.93206 -0.21467,2.93386 0,0.28624 0,0.8587 0.0716,1.28804 h 9.87495 c -0.0716,-0.64402 -0.0716,-1.14492 -0.0716,-1.35959 0,-1.78894 0.21467,-3.93567 0.64402,-5.79617 l 6.0824,-28.40837 z m 50.70233,-16.243572 h -10.87675 l -4.15034,19.535222 c -1.00181,-1.50271 -3.64944,-4.15034 -9.66028,-4.15034 -10.01806,0 -17.96096,8.65847 -17.96096,21.03794 0,9.01626 5.36682,15.95734 13.95373,15.95734 4.86592,0 7.58511,-2.64763 8.9447,-4.79436 -0.0716,0.71558 -0.21467,1.57427 -0.21467,2.64763 0,0.71558 0,1.14493 0.0716,1.57427 h 9.87495 c -0.0716,-0.42934 -0.0716,-1.07336 -0.0716,-1.64582 0,-1.8605 0.28623,-4.00723 0.64402,-5.50994 z m -23.68556,25.259832 c 3.57788,0 6.08239,2.3614 6.08239,6.79797 0,7.37044 -4.15034,10.94832 -8.08601,10.94832 -3.57788,0 -6.22551,-2.50452 -6.22551,-7.08421 0,-5.15214 2.86231,-10.66208 8.22913,-10.66208 z m 28.94889,4.50813 c 1.14492,-3.50632 3.57788,-5.93928 7.87133,-5.93928 4.57969,0 6.0824,3.14853 6.0824,5.43838 v 0.5009 z m 22.96999,7.01265 c 0.71557,-2.14673 1.0018,-4.72281 1.0018,-6.36863 0,-8.80159 -6.01084,-15.24177 -16.0289,-15.24177 -9.4456,0 -18.89121,8.08601 -18.89121,21.18105 0,9.80339 7.51355,16.52981 16.45825,16.52981 8.73003,0 13.73906,-4.50813 16.0289,-9.15938 l -8.44379,-3.79255 c -1.14492,2.28984 -3.57788,4.00723 -6.65486,4.00723 -5.00903,0 -7.44199,-3.29165 -7.44199,-7.08421 z"
           id="path1" /><path
           style="font-weight:450;font-family:'Circular Std Book';-inkscape-font-specification:'Circular Std Book,  weight=450';letter-spacing:-6.78651px;fill:#000000"
           d="m 250.68708,93.57089 v 10.87676 h 7.44199 v 6.08239 h -7.44199 v 17.8894 q 0,2.43296 1.07337,3.57788 1.14492,1.14492 3.72099,1.14492 1.50271,0 2.64763,-0.28623 v 5.72461 q -1.71738,0.64402 -4.57968,0.64402 -4.43657,0 -7.01265,-2.57607 -2.57607,-2.57608 -2.57607,-7.22732 v -18.89121 h -6.5833 v -6.08239 h 1.8605 q 2.64763,0 3.93567,-1.43116 1.35959,-1.50271 1.35959,-3.864107 V 93.57089 Z m 16.255,45.29596 h -6.65486 v -34.4192 h 6.65486 z M 260.1441,94.858927 q -1.35959,-1.431152 -1.35959,-3.434765 0,-2.003613 1.35959,-3.434765 1.43116,-1.431152 3.43477,-1.431152 2.00361,0 3.43476,1.431152 1.43116,1.359594 1.43116,3.434765 0,2.003613 -1.43116,3.434765 -1.43115,1.359594 -3.43476,1.359594 -2.00361,0 -3.43477,-1.359594 z m 18.11557,44.007923 h -6.65485 v -34.4192 h 6.44018 v 4.57968 q 1.57427,-2.71919 4.43657,-4.15034 2.86231,-1.43115 6.01084,-1.43115 3.36321,0 6.15395,1.64582 2.79075,1.64583 4.15034,4.86592 3.57788,-6.51174 11.52078,-6.51174 4.93747,0 8.37224,3.36321 3.50632,3.3632 3.50632,9.73183 v 22.32597 h -6.65486 v -21.61039 q 0,-3.57788 -1.86049,-5.72461 -1.78894,-2.14673 -5.43838,-2.14673 -3.50632,0 -5.72461,2.50452 -2.21829,2.43295 -2.21829,6.15395 v 20.82326 H 293.573 v -21.61039 q 0,-3.57788 -1.8605,-5.72461 -1.78894,-2.14673 -5.43838,-2.14673 -3.57788,0 -5.79616,2.43296 -2.21829,2.43296 -2.21829,6.29707 z m 52.24854,-20.7517 h 18.81964 q -0.14311,-3.86411 -2.57607,-6.29707 -2.43296,-2.50452 -6.86953,-2.50452 -4.00722,0 -6.5833,2.64763 -2.57607,2.57608 -2.79074,6.15396 z m 19.82145,8.9447 5.79617,2.00361 q -1.50271,4.79436 -5.5815,7.87134 -4.07878,3.00542 -9.87494,3.00542 -7.22732,0 -12.30791,-4.93748 -5.00903,-5.00903 -5.00903,-13.45283 0,-7.87133 4.86591,-13.02348 4.86592,-5.15215 11.59233,-5.15215 7.79978,0 12.1648,4.93748 4.36501,4.86591 4.36501,13.09504 0,1.28803 -0.14312,2.14672 h -25.90385 q 0.0716,4.57969 3.00542,7.51355 3.00542,2.93386 7.37044,2.93386 7.37043,0 9.66027,-6.94108 z m 4.59114,2.8623 6.08239,-2.14673 q 0.35779,2.79075 2.43296,4.65125 2.07517,1.78894 5.58149,1.78894 2.71919,0 4.29346,-1.28804 1.57427,-1.35959 1.57427,-3.29165 0,-3.43476 -4.43657,-4.43657 l -5.86773,-1.28804 q -4.00722,-0.85869 -6.29707,-3.43476 -2.28984,-2.57608 -2.28984,-6.22551 0,-4.43657 3.57788,-7.65667 3.64944,-3.22009 8.65847,-3.22009 3.29165,0 5.86772,1.00181 2.57608,0.93025 4.00723,2.50451 1.43115,1.57427 2.14673,2.93387 0.71557,1.35959 1.07336,2.79074 l -5.93928,2.21829 q -0.14312,-0.85869 -0.5009,-1.64583 -0.35779,-0.85869 -1.14493,-1.86049 -0.71557,-1.00181 -2.14672,-1.57427 -1.43116,-0.64402 -3.36321,-0.64402 -2.50452,0 -4.15034,1.35959 -1.57427,1.3596 -1.57427,3.2201 0,3.29165 3.93567,4.15034 l 5.58149,1.21648 q 4.57969,1.0018 7.01265,3.72099 2.50451,2.64763 2.50451,6.51174 0,4.07879 -3.3632,7.37044 -3.29165,3.29165 -9.23093,3.29165 -6.36863,0 -9.94651,-3.14854 -3.57788,-3.22009 -4.07878,-6.86953 z"
           id="path2" /></g></g><text
       xml:space="preserve"
       style="font-weight:500;font-size:18.7125px;line-height:0.7;font-family:'Proxima Nova';-inkscape-font-specification:'Proxima Nova Medium';text-align:center;letter-spacing:-1.12776px;writing-mode:lr-tb;direction:ltr;text-anchor:middle;fill:#ffffff;stroke-width:1.46446;stroke-linejoin:round;paint-order:stroke markers fill"
       x="224.14236"
       y="64.859619"
       id="text2"><tspan
         id="tspan1"
         style="font-style:normal;font-variant:normal;font-weight:500;font-stretch:normal;font-family:'Proxima Nova';-inkscape-font-specification:'Proxima Nova Medium';letter-spacing:-1.12776px;fill:#ffffff;stroke-width:1.46446"
         x="224.14236"
         y="64.859619" /></text><path
       style="fill:none;stroke:url(#linearGradient9);stroke-width:1.5875;stroke-linejoin:round;stroke-dasharray:none;paint-order:stroke markers fill"
       d="m 170.05971,5.1017913 c 0,19.3544147 0,38.7088297 0,58.0632427"
       id="path3"
       transform="translate(-3.887361)" /><g
       id="text12"
       style="font-weight:500;font-size:18.9614px;line-height:0.8;font-family:'Proxima Nova';-inkscape-font-specification:'Proxima Nova Medium';text-align:center;letter-spacing:-1.23661px;text-anchor:middle;stroke-width:0.741968;stroke-linejoin:round;paint-order:stroke markers fill"
       aria-label="your handy site&#10;   for random crap"><path
         style="font-weight:normal;font-family:'Circular Std Black';-inkscape-font-specification:'Circular Std Black, ';text-align:start;text-anchor:start"
         d="m 178.98923,35.548257 5.80219,-13.045442 h -3.05278 l -2.08576,5.043732 -2.29433,-5.043732 h -3.22343 l 3.96293,8.153401 -2.14264,4.892041 z m 9.87476,-5.991802 c -1.0808,0 -2.12367,-0.777417 -2.12367,-2.351213 0,-1.592758 1.04287,-2.332252 2.12367,-2.332252 1.09976,0 2.12368,0.739494 2.12368,2.332252 0,1.592757 -1.02392,2.351213 -2.12368,2.351213 z m 0,-7.338061 c -2.80628,0 -5.00581,2.066792 -5.00581,4.986848 0,2.920055 2.19953,5.005809 5.00581,5.005809 2.82525,0 5.00581,-2.085754 5.00581,-5.005809 0,-2.920056 -2.18056,-4.986848 -5.00581,-4.986848 z m 11.69508,9.708236 h 2.76837 c -0.019,-0.151691 -0.0948,-0.834302 -0.0948,-1.687564 v -7.736251 h -2.88213 v 5.366076 c 0,0.94807 -0.60677,1.611719 -1.5738,1.611719 -1.02391,0 -1.51691,-0.720534 -1.51691,-1.630681 v -5.347114 h -2.88213 v 5.953879 c 0,2.009908 1.28937,3.678511 3.5837,3.678511 0.94807,0 2.02887,-0.341305 2.52187,-1.156645 0,0.246498 0.0379,0.777417 0.0758,0.94807 z m 9.96959,-9.423815 c -0.18961,-0.05688 -0.47403,-0.09481 -0.75845,-0.09481 -0.75846,0 -1.95303,0.303382 -2.44603,1.36522 v -1.270413 h -2.78732 v 9.423815 h 2.88213 v -4.114624 c 0,-1.877178 1.04288,-2.559788 2.19952,-2.559788 0.28442,0 0.58781,0.01896 0.91015,0.09481 z m 6.72306,3.887086 c 0.0569,-0.872224 0.64469,-1.516911 1.55484,-1.516911 1.04287,0 1.53587,0.701571 1.53587,1.63068 v 5.42296 h 2.88213 v -5.915956 c 0,-2.066793 -1.09976,-3.754358 -3.56474,-3.754358 -0.8343,0 -1.8203,0.26546 -2.4081,0.853263 v -4.911002 h -2.88213 V 31.92663 h 2.88213 z m 6.59444,2.939017 c 0,1.497951 1.19456,2.863172 3.26136,2.863172 1.25145,0 2.1616,-0.53092 2.65459,-1.327298 0,0.644687 0.0759,0.985992 0.0948,1.061838 h 2.59771 c -0.019,-0.09481 -0.11377,-0.720533 -0.11377,-1.460028 v -4.60762 c 0,-1.934062 -1.11872,-3.640588 -4.1715,-3.640588 -2.76837,0 -4.01982,1.782371 -4.13359,3.128631 l 2.50291,0.511957 c 0.0569,-0.701571 0.60676,-1.384182 1.61171,-1.384182 0.91015,0 1.38419,0.474035 1.38419,1.023916 0,0.322344 -0.17066,0.568842 -0.68261,0.644687 l -2.21849,0.341305 c -1.55483,0.227537 -2.78732,1.175607 -2.78732,2.84421 z m 3.96293,0.777418 c -0.79638,0 -1.11872,-0.474035 -1.11872,-0.967032 0,-0.663649 0.45507,-0.94807 1.06183,-1.042877 l 1.78238,-0.284421 v 0.417151 c 0,1.460028 -0.87223,1.877179 -1.72549,1.877179 z m 8.60435,-3.583705 c 0,-0.94807 0.60676,-1.649641 1.55483,-1.649641 1.04288,0 1.53588,0.701571 1.53588,1.63068 v 5.42296 h 2.88213 v -5.915956 c 0,-2.066793 -1.06184,-3.754358 -3.43202,-3.754358 -0.96703,0 -2.12367,0.436113 -2.63563,1.327298 v -1.080799 h -2.78733 v 9.423815 h 2.88214 z m 16.4354,-8.324054 h -2.84421 v 5.043732 c -0.22754,-0.360266 -0.92911,-0.967031 -2.54083,-0.967031 -2.67356,0 -4.5697,2.104715 -4.5697,4.911002 0,2.901094 2.00991,4.948925 4.6645,4.948925 1.13769,0 2.08576,-0.474035 2.52187,-1.118722 0,0.379228 0.0569,0.796379 0.0759,0.910147 h 2.76836 c -0.019,-0.208575 -0.0758,-0.834302 -0.0758,-1.687564 z m -7.05365,9.006665 c 0,-1.573796 1.00496,-2.332252 2.12368,-2.332252 1.11872,0 2.12368,0.758456 2.12368,2.332252 0,1.554834 -1.00496,2.351213 -2.12368,2.351213 -1.11872,0 -2.12368,-0.796379 -2.12368,-2.351213 z m 12.11221,8.343015 5.80219,-13.045442 h -3.05279 l -2.08575,5.043732 -2.29433,-5.043732 h -3.22344 l 3.96293,8.153401 -2.14263,4.892041 z m 8.67607,-6.295184 c 0.0759,1.042877 1.02392,2.957978 3.9819,2.957978 2.52186,0 3.75435,-1.573796 3.75435,-3.185515 0,-1.384182 -0.94807,-2.559789 -2.90109,-2.957978 l -1.25145,-0.246498 c -0.41715,-0.07585 -0.7395,-0.303383 -0.7395,-0.701572 0,-0.492997 0.47404,-0.81534 1.02392,-0.81534 0.87222,0 1.27041,0.530919 1.34626,1.156645 l 2.38913,-0.436112 c -0.0948,-1.099761 -1.04287,-2.806287 -3.77331,-2.806287 -2.10472,0 -3.62163,1.403143 -3.62163,3.128631 0,1.327297 0.79638,2.464981 2.80629,2.901094 l 1.0808,0.246498 c 0.70157,0.151691 0.9291,0.436112 0.9291,0.777417 0,0.417151 -0.36026,0.81534 -1.09976,0.81534 -0.98599,0 -1.44106,-0.625726 -1.47899,-1.270413 z m 11.25895,2.673557 v -9.423815 h -2.88213 v 9.423815 z m -3.12863,-12.305948 c 0,0.929109 0.75845,1.687565 1.6686,1.687565 0.94807,0 1.70653,-0.758456 1.70653,-1.687565 0,-0.929109 -0.75846,-1.687564 -1.70653,-1.687564 -0.91015,0 -1.6686,0.758455 -1.6686,1.687564 z m 7.86485,0.13273 h -2.57875 v 1.213529 c 0,0.872225 -0.47403,1.535874 -1.46003,1.535874 h -0.47403 v 2.521866 h 1.6686 v 4.038778 c 0,1.877178 1.19457,3.033824 3.14759,3.033824 0.91015,0 1.38419,-0.208576 1.49796,-0.26546 v -2.389136 c -0.17066,0.03792 -0.45508,0.09481 -0.75846,0.09481 -0.62573,0 -1.04288,-0.208576 -1.04288,-0.985993 v -3.52682 h 1.83926 v -2.521866 h -1.83926 z m 4.71728,6.333107 c 0.0569,-0.701572 0.66365,-1.592757 1.87718,-1.592757 1.36522,0 1.85822,0.872224 1.89614,1.592757 z m 3.9819,2.446021 c -0.26546,0.739494 -0.85327,1.232491 -1.89614,1.232491 -1.11873,0 -2.08576,-0.758456 -2.14264,-1.820295 h 6.56064 c 0.019,-0.05688 0.0569,-0.492996 0.0569,-0.891186 0,-3.033823 -1.80134,-4.835156 -4.72139,-4.835156 -2.44602,0 -4.70243,1.934062 -4.70243,4.967886 0,3.166554 2.31329,5.024771 4.911,5.024771 2.38914,0 3.88709,-1.365221 4.34216,-2.995901 z"
         id="path18" /><path
         style="font-weight:normal;font-family:'Circular Std Book Italic';-inkscape-font-specification:'Circular Std Book Italic, ';text-align:start;text-anchor:start"
         d="m 190.80879,35.263836 c 0.37923,0 0.66365,0.113769 0.75846,0.151692 l 0.3413,-1.516912 c -0.0569,-0.03792 -0.493,-0.26546 -1.21353,-0.26546 -1.11872,0 -2.7494,0.341305 -3.26136,2.806287 l -0.39819,1.89614 h -1.53587 l -0.34131,1.573796 h 1.53588 l -1.59276,7.546637 h 1.83925 l 1.59276,-7.546637 h 2.06679 l 0.34131,-1.573796 h -2.06679 l 0.3413,-1.611719 c 0.2465,-1.118722 0.8343,-1.460028 1.59276,-1.460028 z m 3.84506,4.380084 c 1.46003,0 2.33225,1.061838 2.33225,2.635634 0,2.483943 -1.49795,3.868126 -3.07175,3.868126 -1.40314,0 -2.31329,-1.042877 -2.31329,-2.654596 0,-2.483944 1.49795,-3.849164 3.05279,-3.849164 z m 4.15254,2.597711 c 0,-2.294329 -1.40314,-4.190469 -4.03877,-4.190469 -2.84421,0 -4.98685,2.351214 -4.98685,5.479844 0,2.29433 1.47899,4.209431 4.05774,4.209431 2.84421,0 4.96788,-2.427059 4.96788,-5.498806 z m 6.38588,-2.066792 0.41715,-1.953024 c -0.13273,-0.01896 -0.3413,-0.03792 -0.51195,-0.03792 -1.00496,0 -2.25641,0.360267 -2.99591,1.573796 0.0948,-0.322344 0.17066,-1.023915 0.17066,-1.422105 h -1.74445 c 0,0.113769 -0.0569,0.777417 -0.22754,1.611719 l -1.59276,7.508714 h 1.76341 l 0.92911,-4.323199 c 0.45508,-2.123677 1.68757,-3.014862 3.14759,-3.014862 0.20858,0 0.41716,0.01896 0.64469,0.05688 z m 9.37766,0 0.41715,-1.953024 c -0.13273,-0.01896 -0.34131,-0.03792 -0.51196,-0.03792 -1.00495,0 -2.25641,0.360267 -2.9959,1.573796 0.0948,-0.322344 0.17065,-1.023915 0.17065,-1.422105 h -1.74445 c 0,0.113769 -0.0569,0.777417 -0.22753,1.611719 l -1.59276,7.508714 h 1.76341 l 0.92911,-4.323199 c 0.45507,-2.123677 1.68756,-3.014862 3.14759,-3.014862 0.20858,0 0.41715,0.01896 0.64469,0.05688 z m 4.22426,-0.568842 c 1.47899,0 2.12368,1.042877 2.12368,2.351213 0,2.351214 -1.27042,4.152547 -3.01487,4.152547 -1.46002,0 -2.1616,-1.042877 -2.1616,-2.483944 0,-1.839255 1.06184,-4.019816 3.05279,-4.019816 z m 2.9959,-1.270414 -0.2465,1.156645 c -0.39819,-0.720533 -1.30833,-1.422104 -2.84421,-1.422104 -2.82525,0 -4.75931,2.616673 -4.75931,5.574651 0,2.237445 1.23249,4.000855 3.60267,4.000855 1.11872,0 2.08575,-0.587803 2.71148,-1.346259 -0.0379,0.284421 -0.0379,0.492996 -0.0379,0.625726 0,0.246498 0.019,0.436112 0.0379,0.530919 h 1.68756 c -0.019,-0.151691 -0.019,-0.246498 -0.019,-0.303382 0,-0.379228 0,-1.118723 0.20858,-2.066793 l 1.4221,-6.750258 z m 9.23007,9.120433 1.23249,-5.783227 c 0.0569,-0.303382 0.0948,-0.606764 0.0948,-0.872224 0,-1.668603 -1.11872,-2.730441 -2.71148,-2.730441 -1.09976,0 -2.12368,0.322343 -2.82525,1.270413 0.0759,-0.41715 0.11377,-0.929108 0.11377,-1.004954 h -1.74445 c 0,0.03792 -0.0379,0.758456 -0.22754,1.611719 l -1.59275,7.508714 h 1.78237 l 1.13768,-5.309192 c 0.26546,-1.232491 1.09976,-2.502904 2.54083,-2.502904 1.09976,0 1.6686,0.587803 1.6686,1.592757 0,0.284421 -0.0379,0.511958 -0.0758,0.701572 l -1.17561,5.517767 z m 6.57549,-7.850019 c 1.47899,0 2.12368,1.042877 2.12368,2.351213 0,2.351214 -1.27041,4.152547 -3.01486,4.152547 -1.46003,0 -2.1616,-1.042877 -2.1616,-2.483944 0,-1.839255 1.06184,-4.019816 3.05278,-4.019816 z m 1.46003,6.693374 c -0.0379,0.322344 -0.0379,0.492996 -0.0379,0.625726 0,0.246498 0.019,0.436112 0.0379,0.530919 h 1.68757 c -0.019,-0.151691 -0.019,-0.246498 -0.019,-0.303382 0,-0.379228 0,-1.118723 0.20858,-2.066793 L 243.322,33.727963 h -1.76341 l -1.21353,5.764265 c -0.39819,-0.720533 -1.30834,-1.422104 -2.84421,-1.422104 -2.82525,0 -4.75931,2.616673 -4.75931,5.574651 0,2.237445 1.23249,4.000855 3.60266,4.000855 1.11872,0 2.12368,-0.587803 2.71148,-1.346259 z m 7.97864,-6.655451 c 1.46003,0 2.33225,1.061838 2.33225,2.635634 0,2.483943 -1.49795,3.868126 -3.07174,3.868126 -1.40315,0 -2.3133,-1.042877 -2.3133,-2.654596 0,-2.483944 1.49796,-3.849164 3.05279,-3.849164 z m 4.15255,2.597711 c 0,-2.294329 -1.40315,-4.190469 -4.03878,-4.190469 -2.84421,0 -4.98685,2.351214 -4.98685,5.479844 0,2.29433 1.47899,4.209431 4.05774,4.209431 2.84421,0 4.96789,-2.427059 4.96789,-5.498806 z m 7.20122,5.214385 1.1756,-5.517767 c 0.28442,-1.308337 1.02392,-2.313291 2.27537,-2.313291 1.09976,0 1.5738,0.663649 1.5738,1.478989 0,0.189614 -0.0379,0.417151 -0.0759,0.625727 l -1.21353,5.726342 h 1.76341 l 1.27042,-5.915956 c 0.0569,-0.303383 0.0948,-0.587804 0.0948,-0.853263 0,-1.706526 -1.23249,-2.616673 -2.65459,-2.616673 -1.0808,0 -2.18056,0.265459 -3.12863,1.460027 -0.36027,-0.872224 -1.17561,-1.460027 -2.27537,-1.460027 -1.17561,0 -1.97199,0.41715 -2.63564,1.213529 0.0759,-0.455073 0.0948,-0.910147 0.0948,-0.94807 h -1.74445 c 0,0.113769 -0.0569,0.853263 -0.22753,1.611719 l -1.59276,7.508714 h 1.76341 l 1.17561,-5.498806 c 0.28442,-1.36522 1.02391,-2.332252 2.29432,-2.332252 1.09977,0 1.5738,0.644688 1.5738,1.497951 0,0.189614 -0.0379,0.398189 -0.0759,0.606765 l -1.21352,5.726342 z m 19.65471,-6.522721 c -0.32235,-1.289375 -1.30834,-2.882133 -3.79228,-2.882133 -2.74941,0 -4.98685,2.237445 -4.98685,5.479844 0,2.389137 1.59276,4.209431 4.20943,4.209431 2.12368,0 3.43201,-1.289375 4.13358,-2.654596 l -1.51691,-0.663649 c -0.41715,0.834302 -1.13768,1.725488 -2.54083,1.725488 -1.49795,0 -2.48394,-1.023916 -2.48394,-2.635635 0,-2.57875 1.51691,-3.868125 3.07175,-3.868125 1.34626,0 2.02887,0.891185 2.2564,1.858217 z m 5.91181,-0.758456 0.41715,-1.953024 c -0.13273,-0.01896 -0.3413,-0.03792 -0.51195,-0.03792 -1.00496,0 -2.25641,0.360267 -2.9959,1.573796 0.0948,-0.322344 0.17065,-1.023915 0.17065,-1.422105 h -1.74445 c 0,0.113769 -0.0569,0.777417 -0.22754,1.611719 l -1.59276,7.508714 h 1.76341 l 0.92911,-4.323199 c 0.45508,-2.123677 1.68757,-3.014862 3.1476,-3.014862 0.20857,0 0.41715,0.01896 0.64468,0.05688 z m 4.22427,-0.568842 c 1.47899,0 2.12368,1.042877 2.12368,2.351213 0,2.351214 -1.27042,4.152547 -3.01487,4.152547 -1.46002,0 -2.1616,-1.042877 -2.1616,-2.483944 0,-1.839255 1.06184,-4.019816 3.05279,-4.019816 z m 2.9959,-1.270414 -0.2465,1.156645 c -0.39819,-0.720533 -1.30833,-1.422104 -2.84421,-1.422104 -2.82525,0 -4.75931,2.616673 -4.75931,5.574651 0,2.237445 1.23249,4.000855 3.60267,4.000855 1.11872,0 2.08575,-0.587803 2.71148,-1.346259 -0.0379,0.284421 -0.0379,0.492996 -0.0379,0.625726 0,0.246498 0.019,0.436112 0.0379,0.530919 h 1.68756 c -0.019,-0.151691 -0.019,-0.246498 -0.019,-0.303382 0,-0.379228 0,-1.118723 0.20858,-2.066793 l 1.4221,-6.750258 z m 6.99262,1.365221 c 1.47899,0 2.31329,0.891186 2.31329,2.502905 0,2.483943 -1.53587,3.906048 -3.07174,3.906048 -1.40315,0 -2.27537,-0.929109 -2.27537,-2.540828 0,-2.483943 1.47899,-3.868125 3.03382,-3.868125 z m -2.23744,-0.322344 c 0.0948,-0.455073 0.11377,-0.929108 0.11377,-1.042877 h -1.74445 c 0,0.151691 -0.0569,0.796379 -0.22754,1.611719 l -2.37017,11.11138 h 1.76341 l 1.06183,-5.005809 c 0.53092,1.023915 1.74445,1.649641 2.9959,1.649641 2.88214,0 4.77828,-2.483943 4.77828,-5.707381 0,-2.161599 -1.09976,-3.906048 -3.46994,-3.906048 -1.11872,0 -2.21848,0.436112 -2.90109,1.289375 z"
         id="path19" /></g></g></svg>
