<?xml version="1.0" encoding="UTF-8" standalone="no"?>
<!-- Created with Inkscape (http://www.inkscape.org/) -->

<svg
   width="530.62177mm"
   height="145.40506mm"
   viewBox="0 0 530.62176 145.40506"
   version="1.1"
   id="svg1"
   xml:space="preserve"
   sodipodi:docname="GladeTimesbruh.svg"
   inkscape:export-filename="GladeTimes.svg"
   inkscape:export-xdpi="96"
   inkscape:export-ydpi="96"
   inkscape:version="1.4 (86a8ad7, 2024-10-11)"
   xmlns:inkscape="http://www.inkscape.org/namespaces/inkscape"
   xmlns:sodipodi="http://sodipodi.sourceforge.net/DTD/sodipodi-0.dtd"
   xmlns="http://www.w3.org/2000/svg"
   xmlns:svg="http://www.w3.org/2000/svg"><sodipodi:namedview
     id="namedview1"
     pagecolor="#505050"
     bordercolor="#eeeeee"
     borderopacity="1"
     inkscape:showpageshadow="0"
     inkscape:pageopacity="0"
     inkscape:pagecheckerboard="0"
     inkscape:deskcolor="#505050"
     inkscape:document-units="mm"
     inkscape:zoom="0.21230609"
     inkscape:cx="1568.4901"
     inkscape:cy="1024.4643"
     inkscape:window-width="1920"
     inkscape:window-height="1009"
     inkscape:window-x="-8"
     inkscape:window-y="-8"
     inkscape:window-maximized="1"
     inkscape:current-layer="svg1"><inkscape:page
       x="0"
       y="0"
       width="530.62177"
       height="145.40506"
       id="page2"
       margin="0"
       bleed="0" /></sodipodi:namedview><defs
     id="defs1"><filter
       style="color-interpolation-filters:sRGB"
       id="filter31"
       x="-0.066197392"
       y="-0.17877204"
       width="1.1323948"
       height="1.3575441"><feGaussianBlur
         stdDeviation="3.9763352"
         id="feGaussianBlur31" /></filter></defs><g
     id="g2"
     transform="matrix(0.94722974,0,0,0.94722974,-0.05097324,-40.822612)"
     inkscape:export-filename="g2.svg"
     inkscape:export-xdpi="500"
     inkscape:export-ydpi="500"><g
       id="g1"><path
         style="font-style:italic;font-weight:900;font-size:71.5576px;font-family:'Circular Std Black Italic';-inkscape-font-specification:'Circular Std Black Italic,  Heavy Italic';text-align:center;letter-spacing:-5.18414px;text-anchor:middle;fill:#000000;fill-opacity:1;stroke-width:4.32744;filter:url(#filter31)"
         d="m 102.07873,118.47294 c 0,5.65305 -3.864115,9.15937 -7.871341,9.15937 -3.792553,0 -6.368627,-2.43296 -6.368627,-6.36863 0,-5.29526 3.434765,-9.08781 8.157567,-9.08781 3.434765,0 6.082401,2.43295 6.082401,6.29707 z M 72.668551,139.7971 c 0,6.36863 5.009032,13.73906 16.816036,13.73906 11.162983,0 17.960963,-7.72822 20.036133,-17.67473 l 6.86953,-32.55871 h -10.51897 l -0.71558,3.721 c -1.14492,-2.00361 -4.43657,-4.50813 -10.37585,-4.50813 -10.232737,0 -17.817843,8.65847 -17.817843,19.53523 0,8.44379 5.581493,14.6693 14.383078,14.6693 3.86411,0 6.583299,-1.71738 7.799779,-3.22009 l -0.500904,2.21829 c -1.288036,5.50993 -4.722801,8.44379 -9.302488,8.44379 -4.722802,0 -7.15576,-2.79074 -7.15576,-6.22551 z m 50.702379,-0.93025 11.01987,-51.807702 h -10.87676 l -11.01987,51.807702 z m 24.44066,-26.54787 c 3.57788,0 6.08239,2.3614 6.08239,6.79797 0,7.37044 -4.15034,10.94832 -8.08601,10.94832 -3.57788,0 -6.22551,-2.50452 -6.22551,-7.08421 0,-5.15214 2.86231,-10.66208 8.22913,-10.66208 z m 9.80339,-9.01626 -0.71558,3.79256 c -0.71557,-1.3596 -3.29165,-4.65125 -10.08962,-4.65125 -10.01806,0 -17.96096,8.65847 -17.96096,21.03794 0,9.01626 5.36682,15.95734 13.95373,15.95734 4.86592,0 7.58511,-2.64763 8.9447,-4.79436 -0.14311,0.93025 -0.21467,1.93206 -0.21467,2.93386 0,0.28624 0,0.8587 0.0716,1.28804 h 9.87495 c -0.0716,-0.64402 -0.0716,-1.14492 -0.0716,-1.35959 0,-1.78894 0.21467,-3.93567 0.64402,-5.79617 l 6.0824,-28.40837 z m 50.70233,-16.243572 h -10.87675 l -4.15034,19.535222 c -1.00181,-1.50271 -3.64944,-4.15034 -9.66028,-4.15034 -10.01806,0 -17.96096,8.65847 -17.96096,21.03794 0,9.01626 5.36682,15.95734 13.95373,15.95734 4.86592,0 7.58511,-2.64763 8.9447,-4.79436 -0.0716,0.71558 -0.21467,1.57427 -0.21467,2.64763 0,0.71558 0,1.14493 0.0716,1.57427 h 9.87495 c -0.0716,-0.42934 -0.0716,-1.07336 -0.0716,-1.64582 0,-1.8605 0.28623,-4.00723 0.64402,-5.50994 z m -23.68556,25.259832 c 3.57788,0 6.08239,2.3614 6.08239,6.79797 0,7.37044 -4.15034,10.94832 -8.08601,10.94832 -3.57788,0 -6.22551,-2.50452 -6.22551,-7.08421 0,-5.15214 2.86231,-10.66208 8.22913,-10.66208 z m 28.94889,4.50813 c 1.14492,-3.50632 3.57788,-5.93928 7.87133,-5.93928 4.57969,0 6.0824,3.14853 6.0824,5.43838 v 0.5009 z m 22.96999,7.01265 c 0.71557,-2.14673 1.0018,-4.72281 1.0018,-6.36863 0,-8.80159 -6.01084,-15.24177 -16.0289,-15.24177 -9.4456,0 -18.89121,8.08601 -18.89121,21.18105 0,9.80339 7.51355,16.52981 16.45825,16.52981 8.73003,0 13.73906,-4.50813 16.0289,-9.15938 l -8.44379,-3.79255 c -1.14492,2.28984 -3.57788,4.00723 -6.65486,4.00723 -5.00903,0 -7.44199,-3.29165 -7.44199,-7.08421 z"
         id="path1"
         transform="matrix(1.7009782,0,0,1.7009782,-104.98783,-84.77405)" /><path
         style="font-weight:450;font-size:71.5576px;font-family:'Circular Std Book';-inkscape-font-specification:'Circular Std Book,  weight=450';text-align:center;letter-spacing:-6.78651px;text-anchor:middle;fill:#000000;fill-opacity:1;stroke-width:4.32744;filter:url(#filter31)"
         d="m 250.68708,93.57089 v 10.87676 h 7.44199 v 6.08239 h -7.44199 v 17.8894 q 0,2.43296 1.07337,3.57788 1.14492,1.14492 3.72099,1.14492 1.50271,0 2.64763,-0.28623 v 5.72461 q -1.71738,0.64402 -4.57968,0.64402 -4.43657,0 -7.01265,-2.57607 -2.57607,-2.57608 -2.57607,-7.22732 v -18.89121 h -6.5833 v -6.08239 h 1.8605 q 2.64763,0 3.93567,-1.43116 1.35959,-1.50271 1.35959,-3.864107 V 93.57089 Z m 16.255,45.29596 h -6.65486 v -34.4192 h 6.65486 z M 260.1441,94.858927 q -1.35959,-1.431152 -1.35959,-3.434765 0,-2.003613 1.35959,-3.434765 1.43116,-1.431152 3.43477,-1.431152 2.00361,0 3.43476,1.431152 1.43116,1.359594 1.43116,3.434765 0,2.003613 -1.43116,3.434765 -1.43115,1.359594 -3.43476,1.359594 -2.00361,0 -3.43477,-1.359594 z m 18.11557,44.007923 h -6.65485 v -34.4192 h 6.44018 v 4.57968 q 1.57427,-2.71919 4.43657,-4.15034 2.86231,-1.43115 6.01084,-1.43115 3.36321,0 6.15395,1.64582 2.79075,1.64583 4.15034,4.86592 3.57788,-6.51174 11.52078,-6.51174 4.93747,0 8.37224,3.36321 3.50632,3.3632 3.50632,9.73183 v 22.32597 h -6.65486 v -21.61039 q 0,-3.57788 -1.86049,-5.72461 -1.78894,-2.14673 -5.43838,-2.14673 -3.50632,0 -5.72461,2.50452 -2.21829,2.43295 -2.21829,6.15395 v 20.82326 H 293.573 v -21.61039 q 0,-3.57788 -1.8605,-5.72461 -1.78894,-2.14673 -5.43838,-2.14673 -3.57788,0 -5.79616,2.43296 -2.21829,2.43296 -2.21829,6.29707 z m 52.24854,-20.7517 h 18.81964 q -0.14311,-3.86411 -2.57607,-6.29707 -2.43296,-2.50452 -6.86953,-2.50452 -4.00722,0 -6.5833,2.64763 -2.57607,2.57608 -2.79074,6.15396 z m 19.82145,8.9447 5.79617,2.00361 q -1.50271,4.79436 -5.5815,7.87134 -4.07878,3.00542 -9.87494,3.00542 -7.22732,0 -12.30791,-4.93748 -5.00903,-5.00903 -5.00903,-13.45283 0,-7.87133 4.86591,-13.02348 4.86592,-5.15215 11.59233,-5.15215 7.79978,0 12.1648,4.93748 4.36501,4.86591 4.36501,13.09504 0,1.28803 -0.14312,2.14672 h -25.90385 q 0.0716,4.57969 3.00542,7.51355 3.00542,2.93386 7.37044,2.93386 7.37043,0 9.66027,-6.94108 z m 4.59114,2.8623 6.08239,-2.14673 q 0.35779,2.79075 2.43296,4.65125 2.07517,1.78894 5.58149,1.78894 2.71919,0 4.29346,-1.28804 1.57427,-1.35959 1.57427,-3.29165 0,-3.43476 -4.43657,-4.43657 l -5.86773,-1.28804 q -4.00722,-0.85869 -6.29707,-3.43476 -2.28984,-2.57608 -2.28984,-6.22551 0,-4.43657 3.57788,-7.65667 3.64944,-3.22009 8.65847,-3.22009 3.29165,0 5.86772,1.00181 2.57608,0.93025 4.00723,2.50451 1.43115,1.57427 2.14673,2.93387 0.71557,1.35959 1.07336,2.79074 l -5.93928,2.21829 q -0.14312,-0.85869 -0.5009,-1.64583 -0.35779,-0.85869 -1.14493,-1.86049 -0.71557,-1.00181 -2.14672,-1.57427 -1.43116,-0.64402 -3.36321,-0.64402 -2.50452,0 -4.15034,1.35959 -1.57427,1.3596 -1.57427,3.2201 0,3.29165 3.93567,4.15034 l 5.58149,1.21648 q 4.57969,1.0018 7.01265,3.72099 2.50451,2.64763 2.50451,6.51174 0,4.07879 -3.3632,7.37044 -3.29165,3.29165 -9.23093,3.29165 -6.36863,0 -9.94651,-3.14854 -3.57788,-3.22009 -4.07878,-6.86953 z"
         id="path2"
         transform="matrix(1.7009782,0,0,1.7009782,-104.98783,-84.77405)" /><path
         style="font-style:italic;font-weight:900;font-size:71.5576px;font-family:'Circular Std Black Italic';-inkscape-font-specification:'Circular Std Black Italic,  Heavy Italic';text-align:center;letter-spacing:-5.18414px;text-anchor:middle;fill:#ffffff;stroke-width:7.36088"
         d="m 76.103205,111.15283 c 0,9.61571 -6.572775,15.57989 -13.388979,15.57989 -6.45105,0 -10.832896,-4.13841 -10.832896,-10.8329 0,-9.00713 5.842461,-15.45817 13.875844,-15.45817 5.84246,0 10.346031,4.13839 10.346031,10.71118 z m -50.026073,36.27193 c 0,10.8329 8.520254,23.36984 28.603711,23.36984 18.98799,0 30.551206,-13.14553 34.081025,-30.06433 L 100.44679,85.348615 H 82.55425 l -1.217186,6.32934 C 79.38958,88.269858 73.790555,84.009724 63.68797,84.009724 c -17.405663,0 -30.307763,14.727868 -30.307763,33.228996 0,14.36271 9.493998,24.95216 24.465302,24.95216 6.572767,0 11.198048,-2.92122 13.267254,-5.4773 l -0.852026,3.77326 c -2.190922,9.37227 -8.033382,14.36271 -15.82333,14.36271 -8.033383,0 -12.171792,-4.74699 -12.171792,-10.58946 z m 86.243638,-1.58234 18.74456,-88.123767 H 112.5642 L 93.819642,145.84242 Z m 41.57303,-45.15734 c 6.0859,0 10.34602,4.01669 10.34602,11.5632 0,12.53695 -7.05964,18.62285 -13.75413,18.62285 -6.0859,0 -10.58946,-4.26014 -10.58946,-12.05009 0,-8.76368 4.86873,-18.13596 13.99757,-18.13596 z m 16.67536,-15.336465 -1.21719,6.451062 c -1.21717,-2.31265 -5.59902,-7.911675 -17.16222,-7.911675 -17.04051,0 -30.55121,14.727868 -30.55121,35.785078 0,15.33646 9.12885,27.14309 23.735,27.14309 8.27682,0 12.9021,-4.50356 15.21474,-8.15511 -0.24343,1.58234 -0.36515,3.2864 -0.36515,4.99044 0,0.48688 0,1.46063 0.12179,2.19092 h 16.79707 c -0.12179,-1.09546 -0.12179,-1.94748 -0.12179,-2.31263 0,-3.04295 0.36515,-6.69449 1.09546,-9.85916 L 188.46169,85.348615 Z M 256.81271,57.718653 H 238.3116 l -7.05964,33.228987 c -1.70406,-2.556077 -6.20762,-7.059638 -16.43192,-7.059638 -17.04051,0 -30.55121,14.727868 -30.55121,35.785078 0,15.33646 9.12885,27.14309 23.73499,27.14309 8.27683,0 12.90211,-4.50356 15.21474,-8.15511 -0.12179,1.21719 -0.36514,2.6778 -0.36514,4.50357 0,1.21718 0,1.9475 0.12179,2.67779 h 16.79707 c -0.12179,-0.73029 -0.12179,-1.82576 -0.12179,-2.7995 0,-3.16467 0.48687,-6.81621 1.09546,-9.37229 z m -40.28862,42.966427 c 6.0859,0 10.34602,4.01669 10.34602,11.5632 0,12.53695 -7.05964,18.62285 -13.75413,18.62285 -6.0859,0 -10.58946,-4.26014 -10.58946,-12.05009 0,-8.76368 4.86873,-18.13596 13.99757,-18.13596 z m 49.24143,7.66823 c 1.94749,-5.96418 6.0859,-10.102589 13.38896,-10.102589 7.78996,0 10.34603,5.355579 10.34603,9.250569 v 0.85202 z m 39.07146,11.92836 c 1.21716,-3.65154 1.70404,-8.03339 1.70404,-10.8329 0,-14.971311 -10.22431,-25.925917 -27.26481,-25.925917 -16.06676,0 -32.13354,13.754126 -32.13354,36.028507 0,16.67535 12.78038,28.11684 27.99512,28.11684 14.8496,0 23.36985,-7.66823 27.26481,-15.5799 l -14.3627,-6.45105 c -1.94748,3.89497 -6.08589,6.81621 -11.31977,6.81621 -8.52025,0 -12.65866,-5.59902 -12.65866,-12.05008 z"
         id="path20" /><path
         style="font-weight:450;font-size:71.5576px;font-family:'Circular Std Book';-inkscape-font-specification:'Circular Std Book,  weight=450';text-align:center;letter-spacing:-6.78651px;text-anchor:middle;fill:#ffffff;stroke-width:7.36088"
         d="m 328.88277,68.794984 v 18.501132 h 12.65866 v 10.346012 h -12.65866 v 30.429482 q 0,4.13841 1.82578,6.08589 1.94748,1.94749 6.32932,1.94749 2.55608,0 4.50356,-0.48687 v 9.73743 q -2.92122,1.09547 -7.78993,1.09547 -7.54651,0 -11.92837,-4.38184 -4.38184,-4.38186 -4.38184,-12.29352 V 97.642128 H 306.24324 V 87.296116 h 3.16467 q 4.50356,0 6.69449,-2.434372 2.31263,-2.556077 2.31263,-6.572762 v -9.493998 z m 27.6494,77.047436 H 345.2124 V 87.296116 h 11.31977 z M 344.96895,70.985907 q -2.31263,-2.434358 -2.31263,-5.84246 0,-3.408103 2.31263,-5.842461 2.43438,-2.434358 5.84247,-2.434358 3.4081,0 5.84245,2.434358 2.43438,2.31264 2.43438,5.842461 0,3.408102 -2.43438,5.84246 -2.43435,2.31264 -5.84245,2.31264 -3.40809,0 -5.84247,-2.31264 z m 30.81419,74.856513 H 364.46339 V 87.296116 h 10.9546 v 7.789936 q 2.6778,-4.625283 7.54651,-7.059638 4.86873,-2.434355 10.22431,-2.434355 5.72075,0 10.46774,2.799504 4.747,2.799521 7.05963,8.276824 6.0859,-11.076328 19.5966,-11.076328 8.39853,0 14.241,5.720747 5.96417,5.720729 5.96417,16.553634 v 37.97598 h -11.31977 v -36.7588 q 0,-6.08589 -3.16465,-9.737435 -3.04295,-3.65154 -9.25057,-3.65154 -5.96417,0 -9.73744,4.260133 -3.77326,4.138392 -3.77326,10.467732 v 35.41991 h -11.44148 v -36.7588 q 0,-6.08589 -3.16467,-9.737435 -3.04294,-3.65154 -9.25056,-3.65154 -6.0859,0 -9.85914,4.138411 -3.77327,4.138414 -3.77327,10.711184 z m 88.87363,-35.29818 h 32.0118 q -0.24343,-6.57277 -4.38184,-10.711184 -4.13841,-4.260133 -11.68492,-4.260133 -6.8162,0 -11.19805,4.503557 -4.38184,4.38186 -4.74699,10.46776 z m 33.71586,15.21473 9.85915,3.4081 q -2.55607,8.1551 -9.49401,13.38898 -6.93791,5.11215 -16.79705,5.11215 -12.29352,0 -20.93549,-8.39854 -8.52025,-8.52025 -8.52025,-22.88297 0,-13.38896 8.27681,-22.152658 8.27682,-8.763695 19.7183,-8.763695 13.26725,0 20.69206,8.398546 7.42478,8.276807 7.42478,22.274377 0,2.19091 -0.24344,3.65152 h -44.06188 q 0.12179,7.78996 5.11215,12.78039 5.11215,4.99043 12.53696,4.99043 12.53694,0 16.43191,-11.80663 z m 7.80942,4.86871 10.34602,-3.65154 q 0.60859,4.74701 4.13841,7.91168 3.52982,3.04295 9.49399,3.04295 4.62528,0 7.30308,-2.19093 2.6778,-2.31263 2.6778,-5.59903 0,-5.84245 -7.54651,-7.5465 l -9.98088,-2.19093 q -6.81619,-1.46062 -10.71118,-5.84245 -3.89496,-4.38186 -3.89496,-10.58946 0,-7.54651 6.08589,-13.02383 6.20762,-5.477303 14.72787,-5.477303 5.59903,0 9.98086,1.704057 4.38186,1.582335 6.81622,4.260117 2.43435,2.677799 3.65154,4.990449 1.21717,2.312632 1.82576,4.74699 l -10.10259,3.77326 q -0.24344,-1.46061 -0.85202,-2.79952 -0.60859,-1.46061 -1.9475,-3.164654 -1.21717,-1.704057 -3.65152,-2.677798 -2.43437,-1.095464 -5.72075,-1.095464 -4.26013,0 -7.05964,2.312632 -2.6778,2.31265 -2.6778,5.477324 0,5.59902 6.69449,7.05963 l 9.494,2.06921 q 7.78995,1.70404 11.92836,6.32932 4.26012,4.50356 4.26012,11.07633 0,6.93793 -5.72073,12.53696 -5.59903,5.59902 -15.70161,5.59902 -10.8329,0 -16.9188,-5.35559 -6.0859,-5.47731 -6.93792,-11.68493 z"
         id="path21" /></g></g></svg>
