<?xml version="1.0" encoding="UTF-8" standalone="no"?>
<!-- Created with Inkscape (http://www.inkscape.org/) -->

<svg
   width="308.87167mm"
   height="66.977913mm"
   viewBox="0 0 308.87167 66.977913"
   version="1.1"
   id="svg1"
   xml:space="preserve"
   xmlns="http://www.w3.org/2000/svg"
   xmlns:svg="http://www.w3.org/2000/svg"><defs
     id="defs1" /><g
     id="layer1"
     transform="matrix(0.78622804,0,0,0.78622804,-23.809101,-60.646185)"
     style="fill:#ffffff"><g
       id="text1"
       style="font-weight:bold;font-size:71.5576px;font-family:Arial;-inkscape-font-specification:'Arial Bold';text-align:center;letter-spacing:-2.38524px;text-anchor:middle;fill:#ffffff;stroke-width:4.32744"
       aria-label="gladetimes"><path
         style="font-style:italic;font-weight:900;font-family:'Circular Std Black Italic';-inkscape-font-specification:'Circular Std Black Italic,  Heavy Italic';letter-spacing:-5.18414px;fill:#ffffff"
         d="m 102.07873,118.47294 c 0,5.65305 -3.864115,9.15937 -7.871341,9.15937 -3.792553,0 -6.368627,-2.43296 -6.368627,-6.36863 0,-5.29526 3.434765,-9.08781 8.157567,-9.08781 3.434765,0 6.082401,2.43295 6.082401,6.29707 z M 72.668551,139.7971 c 0,6.36863 5.009032,13.73906 16.816036,13.73906 11.162983,0 17.960963,-7.72822 20.036133,-17.67473 l 6.86953,-32.55871 h -10.51897 l -0.71558,3.721 c -1.14492,-2.00361 -4.43657,-4.50813 -10.37585,-4.50813 -10.232737,0 -17.817843,8.65847 -17.817843,19.53523 0,8.44379 5.581493,14.6693 14.383078,14.6693 3.86411,0 6.583299,-1.71738 7.799779,-3.22009 l -0.500904,2.21829 c -1.288036,5.50993 -4.722801,8.44379 -9.302488,8.44379 -4.722802,0 -7.15576,-2.79074 -7.15576,-6.22551 z m 50.702379,-0.93025 11.01987,-51.807702 h -10.87676 l -11.01987,51.807702 z m 24.44066,-26.54787 c 3.57788,0 6.08239,2.3614 6.08239,6.79797 0,7.37044 -4.15034,10.94832 -8.08601,10.94832 -3.57788,0 -6.22551,-2.50452 -6.22551,-7.08421 0,-5.15214 2.86231,-10.66208 8.22913,-10.66208 z m 9.80339,-9.01626 -0.71558,3.79256 c -0.71557,-1.3596 -3.29165,-4.65125 -10.08962,-4.65125 -10.01806,0 -17.96096,8.65847 -17.96096,21.03794 0,9.01626 5.36682,15.95734 13.95373,15.95734 4.86592,0 7.58511,-2.64763 8.9447,-4.79436 -0.14311,0.93025 -0.21467,1.93206 -0.21467,2.93386 0,0.28624 0,0.8587 0.0716,1.28804 h 9.87495 c -0.0716,-0.64402 -0.0716,-1.14492 -0.0716,-1.35959 0,-1.78894 0.21467,-3.93567 0.64402,-5.79617 l 6.0824,-28.40837 z m 50.70233,-16.243572 h -10.87675 l -4.15034,19.535222 c -1.00181,-1.50271 -3.64944,-4.15034 -9.66028,-4.15034 -10.01806,0 -17.96096,8.65847 -17.96096,21.03794 0,9.01626 5.36682,15.95734 13.95373,15.95734 4.86592,0 7.58511,-2.64763 8.9447,-4.79436 -0.0716,0.71558 -0.21467,1.57427 -0.21467,2.64763 0,0.71558 0,1.14493 0.0716,1.57427 h 9.87495 c -0.0716,-0.42934 -0.0716,-1.07336 -0.0716,-1.64582 0,-1.8605 0.28623,-4.00723 0.64402,-5.50994 z m -23.68556,25.259832 c 3.57788,0 6.08239,2.3614 6.08239,6.79797 0,7.37044 -4.15034,10.94832 -8.08601,10.94832 -3.57788,0 -6.22551,-2.50452 -6.22551,-7.08421 0,-5.15214 2.86231,-10.66208 8.22913,-10.66208 z m 28.94889,4.50813 c 1.14492,-3.50632 3.57788,-5.93928 7.87133,-5.93928 4.57969,0 6.0824,3.14853 6.0824,5.43838 v 0.5009 z m 22.96999,7.01265 c 0.71557,-2.14673 1.0018,-4.72281 1.0018,-6.36863 0,-8.80159 -6.01084,-15.24177 -16.0289,-15.24177 -9.4456,0 -18.89121,8.08601 -18.89121,21.18105 0,9.80339 7.51355,16.52981 16.45825,16.52981 8.73003,0 13.73906,-4.50813 16.0289,-9.15938 l -8.44379,-3.79255 c -1.14492,2.28984 -3.57788,4.00723 -6.65486,4.00723 -5.00903,0 -7.44199,-3.29165 -7.44199,-7.08421 z"
         id="path1" /><path
         style="font-weight:450;font-family:'Circular Std Book';-inkscape-font-specification:'Circular Std Book,  weight=450';letter-spacing:-6.78651px;fill:#ffffff"
         d="m 250.68708,93.57089 v 10.87676 h 7.44199 v 6.08239 h -7.44199 v 17.8894 q 0,2.43296 1.07337,3.57788 1.14492,1.14492 3.72099,1.14492 1.50271,0 2.64763,-0.28623 v 5.72461 q -1.71738,0.64402 -4.57968,0.64402 -4.43657,0 -7.01265,-2.57607 -2.57607,-2.57608 -2.57607,-7.22732 v -18.89121 h -6.5833 v -6.08239 h 1.8605 q 2.64763,0 3.93567,-1.43116 1.35959,-1.50271 1.35959,-3.864107 V 93.57089 Z m 16.255,45.29596 h -6.65486 v -34.4192 h 6.65486 z M 260.1441,94.858927 q -1.35959,-1.431152 -1.35959,-3.434765 0,-2.003613 1.35959,-3.434765 1.43116,-1.431152 3.43477,-1.431152 2.00361,0 3.43476,1.431152 1.43116,1.359594 1.43116,3.434765 0,2.003613 -1.43116,3.434765 -1.43115,1.359594 -3.43476,1.359594 -2.00361,0 -3.43477,-1.359594 z m 18.11557,44.007923 h -6.65485 v -34.4192 h 6.44018 v 4.57968 q 1.57427,-2.71919 4.43657,-4.15034 2.86231,-1.43115 6.01084,-1.43115 3.36321,0 6.15395,1.64582 2.79075,1.64583 4.15034,4.86592 3.57788,-6.51174 11.52078,-6.51174 4.93747,0 8.37224,3.36321 3.50632,3.3632 3.50632,9.73183 v 22.32597 h -6.65486 v -21.61039 q 0,-3.57788 -1.86049,-5.72461 -1.78894,-2.14673 -5.43838,-2.14673 -3.50632,0 -5.72461,2.50452 -2.21829,2.43295 -2.21829,6.15395 v 20.82326 H 293.573 v -21.61039 q 0,-3.57788 -1.8605,-5.72461 -1.78894,-2.14673 -5.43838,-2.14673 -3.57788,0 -5.79616,2.43296 -2.21829,2.43296 -2.21829,6.29707 z m 52.24854,-20.7517 h 18.81964 q -0.14311,-3.86411 -2.57607,-6.29707 -2.43296,-2.50452 -6.86953,-2.50452 -4.00722,0 -6.5833,2.64763 -2.57607,2.57608 -2.79074,6.15396 z m 19.82145,8.9447 5.79617,2.00361 q -1.50271,4.79436 -5.5815,7.87134 -4.07878,3.00542 -9.87494,3.00542 -7.22732,0 -12.30791,-4.93748 -5.00903,-5.00903 -5.00903,-13.45283 0,-7.87133 4.86591,-13.02348 4.86592,-5.15215 11.59233,-5.15215 7.79978,0 12.1648,4.93748 4.36501,4.86591 4.36501,13.09504 0,1.28803 -0.14312,2.14672 h -25.90385 q 0.0716,4.57969 3.00542,7.51355 3.00542,2.93386 7.37044,2.93386 7.37043,0 9.66027,-6.94108 z m 4.59114,2.8623 6.08239,-2.14673 q 0.35779,2.79075 2.43296,4.65125 2.07517,1.78894 5.58149,1.78894 2.71919,0 4.29346,-1.28804 1.57427,-1.35959 1.57427,-3.29165 0,-3.43476 -4.43657,-4.43657 l -5.86773,-1.28804 q -4.00722,-0.85869 -6.29707,-3.43476 -2.28984,-2.57608 -2.28984,-6.22551 0,-4.43657 3.57788,-7.65667 3.64944,-3.22009 8.65847,-3.22009 3.29165,0 5.86772,1.00181 2.57608,0.93025 4.00723,2.50451 1.43115,1.57427 2.14673,2.93387 0.71557,1.35959 1.07336,2.79074 l -5.93928,2.21829 q -0.14312,-0.85869 -0.5009,-1.64583 -0.35779,-0.85869 -1.14493,-1.86049 -0.71557,-1.00181 -2.14672,-1.57427 -1.43116,-0.64402 -3.36321,-0.64402 -2.50452,0 -4.15034,1.35959 -1.57427,1.3596 -1.57427,3.2201 0,3.29165 3.93567,4.15034 l 5.58149,1.21648 q 4.57969,1.0018 7.01265,3.72099 2.50451,2.64763 2.50451,6.51174 0,4.07879 -3.3632,7.37044 -3.29165,3.29165 -9.23093,3.29165 -6.36863,0 -9.94651,-3.14854 -3.57788,-3.22009 -4.07878,-6.86953 z"
         id="path2" /></g></g><path
     d="m 168.00627,65.084169 c 3.36825,0 4.71555,-1.815112 4.71555,-3.761212 0,-2.657175 -2.37649,-3.2934 -4.41615,-3.836063 -1.55314,-0.392962 -2.90044,-0.7485 -2.90044,-1.87125 0,-1.0479 0.95434,-1.758975 2.33906,-1.758975 1.3473,0 2.65718,0.4491 3.61151,1.459575 l 1.08533,-1.384725 c -1.10404,-1.12275 -2.61975,-1.740262 -4.54714,-1.740262 -2.60104,0 -4.41615,1.497 -4.41615,3.555375 0,2.5449 2.32035,3.124987 4.32259,3.648937 1.59056,0.411675 3.01271,0.785925 3.01271,2.0958 0,0.8982 -0.71107,1.927388 -2.73202,1.927388 -1.74027,0 -3.08757,-0.82335 -3.92963,-1.758975 l -1.06661,1.440862 c 1.06661,1.178888 2.6946,1.983525 4.92139,1.983525 z m 9.83776,0 c 1.45958,0 2.73203,-0.467812 3.63023,-1.3473 l -0.78593,-1.104037 c -0.67365,0.692362 -1.72155,1.066612 -2.67588,1.066612 -1.81512,0 -2.93787,-1.27245 -3.06885,-2.806875 h 7.14817 v -0.411675 c 0,-2.76945 -1.68412,-4.883962 -4.39744,-4.883962 -2.63846,0 -4.52842,2.114512 -4.52842,4.734262 0,2.8443 1.98352,4.752975 4.67812,4.752975 z m 2.60104,-5.407912 h -5.52019 c 0.0936,-1.235025 0.95434,-2.6946 2.76945,-2.6946 1.90868,0 2.71332,1.497 2.75074,2.6946 z m 9.89389,5.183362 v -6.100275 c 0,-2.301637 -1.66541,-3.162412 -3.63022,-3.162412 -1.45958,0 -2.6946,0.486525 -3.70508,1.478287 l 0.72979,1.160175 c 0.80464,-0.804637 1.68413,-1.1976 2.71331,-1.1976 1.29117,0 2.20808,0.67365 2.20808,1.7964 v 1.497 c -0.69236,-0.804637 -1.74026,-1.1976 -2.95658,-1.1976 -1.51571,0 -3.1437,0.8982 -3.1437,2.956575 0,1.983525 1.6467,2.994 3.1437,2.994 1.21632,0 2.2455,-0.430387 2.95658,-1.216312 v 0.991762 z m -4.00447,-0.954337 c -1.21631,0 -2.07709,-0.729788 -2.07709,-1.7964 0,-1.066613 0.86078,-1.7964 2.07709,-1.7964 0.93562,0 1.81511,0.355537 2.32035,1.029187 v 1.534425 c -0.50524,0.67365 -1.38473,1.029188 -2.32035,1.029188 z m 13.35571,0.954337 v -6.343537 c 0,-1.908675 -0.99177,-2.91915 -2.90044,-2.91915 -1.40344,0 -2.60104,0.767212 -3.19984,1.497 v -1.27245 h -1.68412 v 9.038137 h 1.68412 v -6.455812 c 0.48653,-0.67365 1.44086,-1.309875 2.48876,-1.309875 1.16018,0 1.92739,0.486525 1.92739,1.983525 v 5.782162 z m 6.9323,0 V 52.378382 h -1.68412 v 12.481237 z m 5.5526,0.22455 c 2.82559,0 4.56585,-2.133225 4.56585,-4.752975 0,-2.601037 -1.74026,-4.734262 -4.56585,-4.734262 -2.80687,0 -4.56585,2.133225 -4.56585,4.734262 0,2.61975 1.75898,4.752975 4.56585,4.752975 z m 0,-1.497 c -1.7964,0 -2.80687,-1.534425 -2.80687,-3.255975 0,-1.702837 1.01047,-3.237262 2.80687,-3.237262 1.81511,0 2.80688,1.534425 2.80688,3.237262 0,1.72155 -0.99177,3.255975 -2.80688,3.255975 z m 9.78164,1.27245 3.72379,-9.038137 h -1.81512 l -2.82558,7.092037 -2.82559,-7.092037 h -1.7964 l 3.72379,9.038137 z m 8.07878,0.22455 c 1.45958,0 2.73203,-0.467812 3.63023,-1.3473 l -0.78593,-1.104037 c -0.67365,0.692362 -1.72155,1.066612 -2.67588,1.066612 -1.81512,0 -2.93787,-1.27245 -3.06885,-2.806875 h 7.14817 v -0.411675 c 0,-2.76945 -1.68412,-4.883962 -4.39744,-4.883962 -2.63846,0 -4.52842,2.114512 -4.52842,4.734262 0,2.8443 1.98352,4.752975 4.67812,4.752975 z m 2.60104,-5.407912 h -5.52019 c 0.0936,-1.235025 0.95434,-2.6946 2.76945,-2.6946 1.90868,0 2.71332,1.497 2.75074,2.6946 z m 5.60873,5.407912 c 2.37649,0 3.64894,-1.216312 3.64894,-2.76945 0,-2.077087 -1.87125,-2.507475 -3.4431,-2.863012 -1.12275,-0.261975 -2.0958,-0.467813 -2.0958,-1.235025 0,-0.729788 0.71107,-1.253738 1.85254,-1.253738 1.14146,0 2.15193,0.467813 2.67588,1.104038 l 0.7485,-1.178888 c -0.76721,-0.729787 -1.88996,-1.291162 -3.4431,-1.291162 -2.20807,0 -3.4431,1.235025 -3.4431,2.675887 0,1.9461 1.7964,2.357775 3.33083,2.713313 1.16017,0.261975 2.18936,0.505237 2.18936,1.366012 0,0.804638 -0.67365,1.384725 -1.9461,1.384725 -1.21631,0 -2.41391,-0.617512 -3.03142,-1.291162 l -0.80464,1.235025 c 0.91691,0.935625 2.2455,1.403437 3.76121,1.403437 z m 12.0034,-0.01871 c 3.55538,0 5.29564,-2.956575 5.29564,-6.4371 0,-3.4431 -1.40344,-6.455813 -4.99624,-6.455813 -2.75074,0 -4.491,1.908675 -4.491,4.135463 0,2.657175 1.90868,4.023187 4.15418,4.023187 1.51571,0 2.86301,-1.010475 3.4431,-1.852537 0,0.1497 0,0.280687 0,0.430387 0,2.208075 -1.01048,4.491 -3.40568,4.491 -1.23502,0 -1.98352,-0.467812 -2.61975,-1.178887 l -0.8982,1.403437 c 0.80464,0.860775 1.9461,1.440863 3.51795,1.440863 z m 0.43039,-6.36225 c -1.47829,0 -2.71331,-0.785925 -2.71331,-2.451338 0,-1.104037 0.8982,-2.413912 2.67588,-2.413912 2.03967,0 2.8443,1.758975 2.95658,3.199837 -0.63623,1.010475 -1.77769,1.665413 -2.91915,1.665413 z m 14.3662,6.156412 v -1.6467 h -5.81959 c 3.42439,-2.638462 5.76345,-4.827825 5.76345,-7.26045 0,-2.488762 -2.11451,-3.761212 -4.36001,-3.761212 -1.74026,0 -3.4431,0.692362 -4.47229,1.983525 l 1.10404,1.216312 c 0.76721,-0.916912 1.90868,-1.534425 3.38696,-1.534425 1.21632,0 2.43263,0.636225 2.43263,2.0958 0,1.964813 -2.15194,3.836063 -6.83006,7.428863 v 1.478287 z m 5.83328,0.22455 c 2.63847,0 4.58457,-1.609275 4.58457,-4.172887 0,-2.563613 -1.88997,-4.004475 -3.98577,-4.004475 -1.21631,0 -2.26421,0.505237 -2.86301,1.104037 v -3.985762 h 6.02543 v -1.6467 h -7.89668 v 6.848775 l 1.3473,0.430387 c 0.82335,-0.785925 1.72155,-1.12275 2.80688,-1.12275 1.60927,0 2.67588,0.954338 2.67588,2.451338 0,1.366012 -1.08532,2.432625 -2.71331,2.432625 -1.45957,0 -2.58232,-0.561375 -3.40567,-1.57185 l -1.10404,1.27245 c 0.97305,1.216312 2.3952,1.964812 4.52842,1.964812 z"
     id="text2"
     style="font-weight:500;font-size:18.7125px;line-height:0.7;font-family:'Proxima Nova';-inkscape-font-specification:'Proxima Nova Medium';text-align:center;letter-spacing:-1.12776px;text-anchor:middle;fill:#ffffff;stroke-width:1.46446;stroke-linejoin:round;paint-order:stroke markers fill"
     aria-label="Sean loves 925" /></svg>
