<?xml version="1.0" encoding="UTF-8" standalone="no"?>
<!-- Created with Inkscape (http://www.inkscape.org/) -->

<svg
   width="536.89886mm"
   height="148.82382mm"
   viewBox="0 0 536.89886 148.82382"
   version="1.1"
   id="svg1"
   xml:space="preserve"
   sodipodi:docname="GladeTimesbruh.svg"
   inkscape:export-filename="GladeTimes.svg"
   inkscape:export-xdpi="96"
   inkscape:export-ydpi="96"
   inkscape:version="1.4 (86a8ad7, 2024-10-11)"
   xmlns:inkscape="http://www.inkscape.org/namespaces/inkscape"
   xmlns:sodipodi="http://sodipodi.sourceforge.net/DTD/sodipodi-0.dtd"
   xmlns="http://www.w3.org/2000/svg"
   xmlns:svg="http://www.w3.org/2000/svg"><sodipodi:namedview
     id="namedview1"
     pagecolor="#505050"
     bordercolor="#eeeeee"
     borderopacity="1"
     inkscape:showpageshadow="0"
     inkscape:pageopacity="0"
     inkscape:pagecheckerboard="0"
     inkscape:deskcolor="#505050"
     inkscape:document-units="mm"
     inkscape:zoom="0.21230609"
     inkscape:cx="2063.059"
     inkscape:cy="1674.4692"
     inkscape:window-width="1920"
     inkscape:window-height="1009"
     inkscape:window-x="-8"
     inkscape:window-y="-8"
     inkscape:window-maximized="1"
     inkscape:current-layer="svg1"><inkscape:page
       x="0"
       y="9.6574127e-13"
       width="536.89886"
       height="148.82384"
       id="page2"
       margin="0"
       bleed="0" /></sodipodi:namedview><defs
     id="defs1"><clipPath
       clipPathUnits="userSpaceOnUse"
       id="clipPath189"><g
         id="g191"
         transform="translate(-636.86334,-107.88903)"><path
           style="font-style:italic;font-weight:900;font-size:71.5576px;font-family:'Circular Std Black Italic';-inkscape-font-specification:'Circular Std Black Italic,  Heavy Italic';text-align:center;letter-spacing:-5.18414px;text-anchor:middle;fill:#ffffff;stroke-width:6.97244"
           d="m 1604.0448,64.464655 c 0,9.108287 -6.2259,14.757735 -12.6824,14.757735 -6.1106,0 -10.2613,-3.920025 -10.2613,-10.261245 0,-8.531821 5.5342,-14.642438 13.1437,-14.642438 5.5341,0 9.8,3.920006 9.8,10.145948 z m -47.3862,34.357851 c 0,10.261244 8.0707,22.136604 27.0943,22.136604 17.986,0 28.939,-12.45183 32.2826,-28.477824 l 11.0683,-52.459151 h -16.9484 l -1.1529,5.995339 c -1.8447,-3.22825 -7.1483,-7.263576 -16.7178,-7.263576 -16.4871,0 -28.7084,13.950675 -28.7084,31.475493 0,13.604786 8.993,23.635428 23.1743,23.635428 6.2259,0 10.6071,-2.767066 12.5671,-5.188261 l -0.807,3.574144 c -2.0753,8.877688 -7.6095,13.604788 -14.9884,13.604788 -7.6094,0 -11.5295,-4.49649 -11.5295,-10.030653 z m 81.6926,-1.498839 17.7554,-83.473453 h -17.5248 l -17.7554,83.473453 z m 39.3792,-42.774376 c 5.7647,0 9.8,3.804728 9.8,10.953007 0,11.875372 -6.6871,17.640117 -13.0283,17.640117 -5.7647,0 -10.0306,-4.035331 -10.0306,-11.414203 0,-8.301219 4.6118,-17.178921 13.2589,-17.178921 z m 15.7954,-14.527156 -1.153,6.110638 c -1.1529,-2.190611 -5.3035,-7.494174 -16.2565,-7.494174 -16.1413,0 -28.9391,13.950675 -28.9391,33.89669 0,14.527151 8.6472,25.710743 22.4825,25.710743 7.8401,0 12.2213,-4.265906 14.4119,-7.724763 -0.2306,1.498839 -0.3459,3.112976 -0.3459,4.727093 0,0.461187 0,1.383552 0.1154,2.075305 h 15.9107 c -0.1154,-1.037653 -0.1154,-1.844711 -0.1154,-2.190592 0,-2.882373 0.3459,-6.34122 1.0377,-9.33889 l 9.8,-45.77205 z m 81.6924,-26.171921 h -17.5248 l -6.6871,31.475484 c -1.6141,-2.421192 -5.88,-6.687099 -15.5648,-6.687099 -16.1412,0 -28.939,13.950675 -28.939,33.89669 0,14.527151 8.6471,25.710743 22.4825,25.710743 7.8401,0 12.2213,-4.265906 14.4119,-7.724763 -0.1154,1.152958 -0.3459,2.536492 -0.3459,4.265915 0,1.152949 0,1.84473 0.1154,2.536483 h 15.9106 c -0.1153,-0.691753 -0.1153,-1.729415 -0.1153,-2.65177 0,-2.99767 0.4611,-6.456517 1.0376,-8.877712 z m -38.1625,40.699077 c 5.7647,0 9.8,3.804728 9.8,10.953007 0,11.875372 -6.6871,17.640117 -13.0283,17.640117 -5.7648,0 -10.0307,-4.035331 -10.0307,-11.414203 0,-8.301219 4.6118,-17.178921 13.259,-17.178921 z m 46.6429,7.263576 c 1.8447,-5.649449 5.7647,-9.569473 12.6824,-9.569473 7.3789,0 9.8001,5.072964 9.8001,8.762414 v 0.807059 z m 37.0097,11.298897 c 1.1529,-3.458847 1.6141,-7.609466 1.6141,-10.261245 0,-14.181271 -9.6848,-24.5578 -25.8261,-24.5578 -15.2189,0 -30.4378,13.028318 -30.4378,34.127274 0,15.795387 12.1059,26.633107 26.5178,26.633107 14.066,0 22.1366,-7.263576 25.826,-14.757745 l -13.6047,-6.110626 c -1.8448,3.689431 -5.7648,6.456516 -10.7225,6.456516 -8.0706,0 -11.9906,-5.303558 -11.9906,-11.414194 z"
           id="path190" /><path
           style="font-weight:450;font-size:71.5576px;font-family:'Circular Std Book';-inkscape-font-specification:'Circular Std Book,  weight=450';text-align:center;letter-spacing:-6.78651px;text-anchor:middle;fill:#ffffff;stroke-width:6.97244"
           d="m 1843.4851,24.342044 v 17.524822 h 11.9907 v 9.800051 h -11.9907 v 28.82371 q 0,3.920025 1.7295,5.764736 1.8447,1.84472 5.9953,1.84472 2.4212,0 4.2659,-0.461177 v 9.223583 q -2.7671,1.037662 -7.3789,1.037662 -7.1482,0 -11.2989,-4.15061 -4.1506,-4.150628 -4.1506,-11.644787 V 51.666917 h -10.6071 v -9.800051 h 2.9977 q 4.2659,0 6.3412,-2.305909 2.1906,-2.421192 2.1906,-6.225916 v -8.992997 z m 26.1904,72.981623 h -10.7224 V 41.866866 h 10.7224 z m -10.9531,-70.906316 q -2.1905,-2.305896 -2.1905,-5.534152 0,-3.228256 2.1905,-5.534152 2.306,-2.305897 5.5342,-2.305897 3.2283,0 5.5342,2.305897 2.3059,2.190601 2.3059,5.534152 0,3.228256 -2.3059,5.534152 -2.3059,2.190602 -5.5342,2.190602 -3.2282,0 -5.5342,-2.190602 z m 29.1882,70.906316 h -10.7224 V 41.866866 h 10.3765 v 7.378859 q 2.5365,-4.381205 7.1483,-6.687099 4.6118,-2.305893 9.6847,-2.305893 5.4189,0 9.9154,2.651773 4.4965,2.65179 6.6871,7.840054 5.7647,-10.491827 18.5625,-10.491827 7.9553,0 13.4895,5.418861 5.6494,5.418845 5.6494,15.680095 v 35.971978 h -10.7224 V 62.504638 q 0,-5.764736 -2.9977,-9.223588 -2.8823,-3.458847 -8.7624,-3.458847 -5.6494,0 -9.2236,4.035324 -3.5741,3.920008 -3.5741,9.915347 v 33.550793 h -10.8377 V 62.504638 q 0,-5.764736 -2.9977,-9.223588 -2.8824,-3.458847 -8.7624,-3.458847 -5.7648,0 -9.3389,3.920026 -3.5741,3.920028 -3.5741,10.145952 z m 84.1837,-33.435486 h 30.3225 q -0.2305,-6.225924 -4.1506,-10.145952 -3.92,-4.035325 -11.0683,-4.035325 -6.4565,0 -10.6071,4.265903 -4.1506,4.150628 -4.4965,9.915374 z m 31.9367,14.411844 9.3389,3.228254 q -2.4212,7.724753 -8.9931,12.68244 -6.5717,4.842381 -15.9106,4.842381 -11.6448,0 -19.8307,-7.955347 -8.0707,-8.070634 -8.0707,-21.67543 0,-12.682421 7.8401,-20.983656 7.84,-8.301233 18.6777,-8.301233 12.5672,0 19.6002,7.955353 7.0329,7.840037 7.0329,21.098952 0,2.075295 -0.2306,3.458828 h -41.7367 q 0.1154,7.378882 4.8424,12.105966 4.8424,4.727084 11.8754,4.727084 11.8753,0 15.5648,-11.183592 z m 7.3973,4.611787 9.8,-3.458847 q 0.5765,4.496509 3.9201,7.494179 3.3435,2.882372 8.993,2.882372 4.3812,0 6.9177,-2.075314 2.5365,-2.190592 2.5365,-5.303567 0,-5.534143 -7.1483,-7.14827 l -9.4542,-2.075314 q -6.4565,-1.383542 -10.146,-5.534142 -3.6894,-4.150628 -3.6894,-10.030652 0,-7.148278 5.7648,-12.336559 5.88,-5.188264 13.9506,-5.188264 5.3036,0 9.4542,1.614134 4.1506,1.498834 6.4565,4.035309 2.3059,2.536491 3.4589,4.727102 1.1529,2.190594 1.7294,4.49649 l -9.5695,3.574144 q -0.2306,-1.383533 -0.807,-2.651789 -0.5765,-1.383533 -1.8448,-2.997654 -1.1529,-1.614133 -3.4588,-2.53649 -2.3059,-1.037656 -5.4189,-1.037656 -4.0353,0 -6.6871,2.190594 -2.5365,2.190611 -2.5365,5.188284 0,5.303558 6.3413,6.687091 l 8.993,1.960018 q 7.3788,1.614117 11.2989,5.99532 4.0353,4.265906 4.0353,10.491829 0,6.571814 -5.4189,11.875381 -5.3035,5.303559 -14.873,5.303559 -10.2613,0 -16.026,-5.072974 -5.7647,-5.188271 -6.5718,-11.068314 z"
           id="path191" /></g></clipPath><filter
       inkscape:collect="always"
       style="color-interpolation-filters:sRGB"
       id="filter233"
       x="-0.033571136"
       y="0.29975599"
       width="1.0727732"
       height="0.46945862"><feGaussianBlur
         inkscape:collect="always"
         stdDeviation="8.1748912"
         id="feGaussianBlur233" /></filter></defs><g
     id="g234"
     transform="translate(-952.91405,113.03477)"><g
       id="g197"
       transform="translate(-584.12478,-104.78979)"
       style="fill:#000000;filter:url(#filter233)"><g
         id="g57"
         transform="matrix(0.94722974,0,0,0.94722974,1531.9576,-40.822611)"
         style="fill:#000000"><path
           style="font-style:italic;font-weight:900;font-size:71.5576px;font-family:'Circular Std Black Italic';-inkscape-font-specification:'Circular Std Black Italic,  Heavy Italic';text-align:center;letter-spacing:-5.18414px;text-anchor:middle;fill:#000000;fill-opacity:1;stroke-width:7.36088"
           d="m 76.103205,111.15283 c 0,9.61571 -6.572775,15.57989 -13.388979,15.57989 -6.45105,0 -10.832896,-4.13841 -10.832896,-10.8329 0,-9.00713 5.842461,-15.45817 13.875844,-15.45817 5.84246,0 10.346031,4.13839 10.346031,10.71118 z m -50.026073,36.27193 c 0,10.8329 8.520254,23.36984 28.603711,23.36984 18.98799,0 30.551206,-13.14553 34.081025,-30.06433 L 100.44679,85.348615 H 82.55425 l -1.217186,6.32934 C 79.38958,88.269858 73.790555,84.009724 63.68797,84.009724 c -17.405663,0 -30.307763,14.727868 -30.307763,33.228996 0,14.36271 9.493998,24.95216 24.465302,24.95216 6.572767,0 11.198048,-2.92122 13.267254,-5.4773 l -0.852026,3.77326 c -2.190922,9.37227 -8.033382,14.36271 -15.82333,14.36271 -8.033383,0 -12.171792,-4.74699 -12.171792,-10.58946 z m 86.243638,-1.58234 18.74456,-88.123767 H 112.5642 L 93.819642,145.84242 Z m 41.57303,-45.15734 c 6.0859,0 10.34602,4.01669 10.34602,11.5632 0,12.53695 -7.05964,18.62285 -13.75413,18.62285 -6.0859,0 -10.58946,-4.26014 -10.58946,-12.05009 0,-8.76368 4.86873,-18.13596 13.99757,-18.13596 z m 16.67536,-15.336465 -1.21719,6.451062 c -1.21717,-2.31265 -5.59902,-7.911675 -17.16222,-7.911675 -17.04051,0 -30.55121,14.727868 -30.55121,35.785078 0,15.33646 9.12885,27.14309 23.735,27.14309 8.27682,0 12.9021,-4.50356 15.21474,-8.15511 -0.24343,1.58234 -0.36515,3.2864 -0.36515,4.99044 0,0.48688 0,1.46063 0.12179,2.19092 h 16.79707 c -0.12179,-1.09546 -0.12179,-1.94748 -0.12179,-2.31263 0,-3.04295 0.36515,-6.69449 1.09546,-9.85916 L 188.46169,85.348615 Z M 256.81271,57.718653 H 238.3116 l -7.05964,33.228987 c -1.70406,-2.556077 -6.20762,-7.059638 -16.43192,-7.059638 -17.04051,0 -30.55121,14.727868 -30.55121,35.785078 0,15.33646 9.12885,27.14309 23.73499,27.14309 8.27683,0 12.90211,-4.50356 15.21474,-8.15511 -0.12179,1.21719 -0.36514,2.6778 -0.36514,4.50357 0,1.21718 0,1.9475 0.12179,2.67779 h 16.79707 c -0.12179,-0.73029 -0.12179,-1.82576 -0.12179,-2.7995 0,-3.16467 0.48687,-6.81621 1.09546,-9.37229 z m -40.28862,42.966427 c 6.0859,0 10.34602,4.01669 10.34602,11.5632 0,12.53695 -7.05964,18.62285 -13.75413,18.62285 -6.0859,0 -10.58946,-4.26014 -10.58946,-12.05009 0,-8.76368 4.86873,-18.13596 13.99757,-18.13596 z m 49.24143,7.66823 c 1.94749,-5.96418 6.0859,-10.102589 13.38896,-10.102589 7.78996,0 10.34603,5.355579 10.34603,9.250569 v 0.85202 z m 39.07146,11.92836 c 1.21716,-3.65154 1.70404,-8.03339 1.70404,-10.8329 0,-14.971311 -10.22431,-25.925917 -27.26481,-25.925917 -16.06676,0 -32.13354,13.754126 -32.13354,36.028507 0,16.67535 12.78038,28.11684 27.99512,28.11684 14.8496,0 23.36985,-7.66823 27.26481,-15.5799 l -14.3627,-6.45105 c -1.94748,3.89497 -6.08589,6.81621 -11.31977,6.81621 -8.52025,0 -12.65866,-5.59902 -12.65866,-12.05008 z"
           id="path56" /><path
           style="font-weight:450;font-size:71.5576px;font-family:'Circular Std Book';-inkscape-font-specification:'Circular Std Book,  weight=450';text-align:center;letter-spacing:-6.78651px;text-anchor:middle;fill:#000000;stroke-width:7.36088"
           d="m 328.88277,68.794984 v 18.501132 h 12.65866 v 10.346012 h -12.65866 v 30.429482 q 0,4.13841 1.82578,6.08589 1.94748,1.94749 6.32932,1.94749 2.55608,0 4.50356,-0.48687 v 9.73743 q -2.92122,1.09547 -7.78993,1.09547 -7.54651,0 -11.92837,-4.38184 -4.38184,-4.38186 -4.38184,-12.29352 V 97.642128 H 306.24324 V 87.296116 h 3.16467 q 4.50356,0 6.69449,-2.434372 2.31263,-2.556077 2.31263,-6.572762 v -9.493998 z m 27.6494,77.047436 H 345.2124 V 87.296116 h 11.31977 z M 344.96895,70.985907 q -2.31263,-2.434358 -2.31263,-5.84246 0,-3.408103 2.31263,-5.842461 2.43438,-2.434358 5.84247,-2.434358 3.4081,0 5.84245,2.434358 2.43438,2.31264 2.43438,5.842461 0,3.408102 -2.43438,5.84246 -2.43435,2.31264 -5.84245,2.31264 -3.40809,0 -5.84247,-2.31264 z m 30.81419,74.856513 H 364.46339 V 87.296116 h 10.9546 v 7.789936 q 2.6778,-4.625283 7.54651,-7.059638 4.86873,-2.434355 10.22431,-2.434355 5.72075,0 10.46774,2.799504 4.747,2.799521 7.05963,8.276824 6.0859,-11.076328 19.5966,-11.076328 8.39853,0 14.241,5.720747 5.96417,5.720729 5.96417,16.553634 v 37.97598 h -11.31977 v -36.7588 q 0,-6.08589 -3.16465,-9.737435 -3.04295,-3.65154 -9.25057,-3.65154 -5.96417,0 -9.73744,4.260133 -3.77326,4.138392 -3.77326,10.467732 v 35.41991 h -11.44148 v -36.7588 q 0,-6.08589 -3.16467,-9.737435 -3.04294,-3.65154 -9.25056,-3.65154 -6.0859,0 -9.85914,4.138411 -3.77327,4.138414 -3.77327,10.711184 z m 88.87363,-35.29818 h 32.0118 q -0.24343,-6.57277 -4.38184,-10.711184 -4.13841,-4.260133 -11.68492,-4.260133 -6.8162,0 -11.19805,4.503557 -4.38184,4.38186 -4.74699,10.46776 z m 33.71586,15.21473 9.85915,3.4081 q -2.55607,8.1551 -9.49401,13.38898 -6.93791,5.11215 -16.79705,5.11215 -12.29352,0 -20.93549,-8.39854 -8.52025,-8.52025 -8.52025,-22.88297 0,-13.38896 8.27681,-22.152658 8.27682,-8.763695 19.7183,-8.763695 13.26725,0 20.69206,8.398546 7.42478,8.276807 7.42478,22.274377 0,2.19091 -0.24344,3.65152 h -44.06188 q 0.12179,7.78996 5.11215,12.78039 5.11215,4.99043 12.53696,4.99043 12.53694,0 16.43191,-11.80663 z m 7.80942,4.86871 10.34602,-3.65154 q 0.60859,4.74701 4.13841,7.91168 3.52982,3.04295 9.49399,3.04295 4.62528,0 7.30308,-2.19093 2.6778,-2.31263 2.6778,-5.59903 0,-5.84245 -7.54651,-7.5465 l -9.98088,-2.19093 q -6.81619,-1.46062 -10.71118,-5.84245 -3.89496,-4.38186 -3.89496,-10.58946 0,-7.54651 6.08589,-13.02383 6.20762,-5.477303 14.72787,-5.477303 5.59903,0 9.98086,1.704057 4.38186,1.582335 6.81622,4.260117 2.43435,2.677799 3.65154,4.990449 1.21717,2.312632 1.82576,4.74699 l -10.10259,3.77326 q -0.24344,-1.46061 -0.85202,-2.79952 -0.60859,-1.46061 -1.9475,-3.164654 -1.21717,-1.704057 -3.65152,-2.677798 -2.43437,-1.095464 -5.72075,-1.095464 -4.26013,0 -7.05964,2.312632 -2.6778,2.31265 -2.6778,5.477324 0,5.59902 6.69449,7.05963 l 9.494,2.06921 q 7.78995,1.70404 11.92836,6.32932 4.26012,4.50356 4.26012,11.07633 0,6.93793 -5.72073,12.53696 -5.59903,5.59902 -15.70161,5.59902 -10.8329,0 -16.9188,-5.35559 -6.0859,-5.47731 -6.93792,-11.68493 z"
           id="path57" /></g><g
         id="g49"
         transform="translate(636.86334,107.88903)"
         clip-path="url(#clipPath189)"
         style="fill:#000000"><rect
           style="opacity:1;fill:#000000;fill-opacity:1;stroke:none;stroke-width:37.8302;stroke-linejoin:round;paint-order:stroke markers fill"
           id="rect254"
           width="72.07296"
           height="447.85876"
           x="1169.1145"
           y="-298.61945"
           ry="0.0558425"
           transform="matrix(1,0,0.70710678,0.70710678,0,0)" /><rect
           style="opacity:1;fill:#000000;fill-opacity:1;stroke:none;stroke-width:20.2241;stroke-linejoin:round;paint-order:stroke markers fill"
           id="rect255"
           width="20.598249"
           height="447.85876"
           x="1128.1061"
           y="-298.61945"
           ry="0.0558425"
           transform="matrix(1,0,0.70710678,0.70710678,0,0)" /><path
           id="path257"
           style="opacity:1;fill:#000000;fill-opacity:1;stroke:none;stroke-width:2.22307;stroke-linejoin:round;paint-order:stroke markers fill"
           sodipodi:type="inkscape:offset"
           inkscape:radius="0"
           inkscape:original="M -3502.043 1452.0293 C -3502.0451 1452.0293 -3502.0469 1452.0311 -3502.0469 1452.0332 L -3502.0469 1482.6699 C -3502.0469 1482.672 -3502.0451 1482.6738 -3502.043 1482.6738 L -3498.4141 1482.6738 C -3498.4119 1482.6738 -3498.4102 1482.672 -3498.4102 1482.6699 L -3498.4102 1452.0332 C -3498.4102 1452.0311 -3498.4119 1452.0293 -3498.4141 1452.0293 L -3502.043 1452.0293 z "
           d="m -3502.043,1452.0293 c -0,0 -0,0 -0,0 v 30.6367 c 0,0 0,0 0,0 h 3.6289 c 0,0 0,-0 0,-0 v -30.6367 c 0,-0 -0,-0 -0,-0 z"
           transform="matrix(3.0058122,0,2.1254302,2.1254302,8560.6636,-3069.7425)" /><path
           id="path268"
           style="opacity:1;fill:#000000;fill-opacity:1;stroke:none;stroke-width:2.22307;stroke-linejoin:round;paint-order:stroke markers fill"
           sodipodi:type="inkscape:offset"
           inkscape:radius="0"
           inkscape:original="M -3502.043 1452.0293 C -3502.0451 1452.0293 -3502.0469 1452.0311 -3502.0469 1452.0332 L -3502.0469 1482.6699 C -3502.0469 1482.672 -3502.0451 1482.6738 -3502.043 1482.6738 L -3498.4141 1482.6738 C -3498.4119 1482.6738 -3498.4102 1482.672 -3498.4102 1482.6699 L -3498.4102 1452.0332 C -3498.4102 1452.0311 -3498.4119 1452.0293 -3498.4141 1452.0293 L -3502.043 1452.0293 z "
           d="m -3502.043,1452.0293 c -0,0 -0,0 -0,0 v 30.6367 c 0,0 0,0 0,0 h 3.6289 c 0,0 0,-0 0,-0 v -30.6367 c 0,-0 -0,-0 -0,-0 z"
           transform="matrix(1.4949553,0,1.0570931,1.0570931,4824.5209,-1507.4781)" /><path
           id="path269"
           style="opacity:1;fill:#000000;fill-opacity:1;stroke:none;stroke-width:2.22307;stroke-linejoin:round;paint-order:stroke markers fill"
           sodipodi:type="inkscape:offset"
           inkscape:radius="0"
           inkscape:original="M -3502.043 1452.0293 C -3502.0451 1452.0293 -3502.0469 1452.0311 -3502.0469 1452.0332 L -3502.0469 1482.6699 C -3502.0469 1482.672 -3502.0451 1482.6738 -3502.043 1482.6738 L -3498.4141 1482.6738 C -3498.4119 1482.6738 -3498.4102 1482.672 -3498.4102 1482.6699 L -3498.4102 1452.0332 C -3498.4102 1452.0311 -3498.4119 1452.0293 -3498.4141 1452.0293 L -3502.043 1452.0293 z "
           d="m -3502.043,1452.0293 c -0,0 -0,0 -0,0 v 30.6367 c 0,0 0,0 0,0 h 3.6289 c 0,0 0,-0 0,-0 v -30.6367 c 0,-0 -0,-0 -0,-0 z"
           transform="matrix(1.4949553,0,1.0570931,1.0570931,4826.7957,-1527.2796)" /><path
           id="path271"
           style="opacity:1;fill:#000000;fill-opacity:1;stroke:none;stroke-width:2.22307;stroke-linejoin:round;paint-order:stroke markers fill"
           sodipodi:type="inkscape:offset"
           inkscape:radius="0"
           inkscape:original="M -3502.043 1452.0293 C -3502.0451 1452.0293 -3502.0469 1452.0311 -3502.0469 1452.0332 L -3502.0469 1482.6699 C -3502.0469 1482.672 -3502.0451 1482.6738 -3502.043 1482.6738 L -3498.4141 1482.6738 C -3498.4119 1482.6738 -3498.4102 1482.672 -3498.4102 1482.6699 L -3498.4102 1452.0332 C -3498.4102 1452.0311 -3498.4119 1452.0293 -3498.4141 1452.0293 L -3502.043 1452.0293 z "
           d="m -3502.043,1452.0293 c -0,0 -0,0 -0,0 v 30.6367 c 0,0 0,0 0,0 h 3.6289 c 0,0 0,-0 0,-0 v -30.6367 c 0,-0 -0,-0 -0,-0 z"
           transform="matrix(1.4949553,0,1.0570931,1.0570931,4864.8959,-1461.7962)" /><path
           id="path272"
           style="opacity:1;fill:#000000;fill-opacity:1;stroke:none;stroke-width:2.22307;stroke-linejoin:round;paint-order:stroke markers fill"
           sodipodi:type="inkscape:offset"
           inkscape:radius="0"
           inkscape:original="M -3502.043 1452.0293 C -3502.0451 1452.0293 -3502.0469 1452.0311 -3502.0469 1452.0332 L -3502.0469 1482.6699 C -3502.0469 1482.672 -3502.0451 1482.6738 -3502.043 1482.6738 L -3498.4141 1482.6738 C -3498.4119 1482.6738 -3498.4102 1482.672 -3498.4102 1482.6699 L -3498.4102 1452.0332 C -3498.4102 1452.0311 -3498.4119 1452.0293 -3498.4141 1452.0293 L -3502.043 1452.0293 z "
           d="m -3502.043,1452.0293 c -0,0 -0,0 -0,0 v 30.6367 c 0,0 0,0 0,0 h 3.6289 c 0,0 0,-0 0,-0 v -30.6367 c 0,-0 -0,-0 -0,-0 z"
           transform="matrix(1.4949553,0,1.0570931,1.0570931,4890.6316,-1461.7962)" /><path
           id="path273"
           style="opacity:1;fill:#000000;fill-opacity:1;stroke:none;stroke-width:2.22307;stroke-linejoin:round;paint-order:stroke markers fill"
           sodipodi:type="inkscape:offset"
           inkscape:radius="0"
           inkscape:original="M -3502.043 1452.0293 C -3502.0451 1452.0293 -3502.0469 1452.0311 -3502.0469 1452.0332 L -3502.0469 1482.6699 C -3502.0469 1482.672 -3502.0451 1482.6738 -3502.043 1482.6738 L -3498.4141 1482.6738 C -3498.4119 1482.6738 -3498.4102 1482.672 -3498.4102 1482.6699 L -3498.4102 1452.0332 C -3498.4102 1452.0311 -3498.4119 1452.0293 -3498.4141 1452.0293 L -3502.043 1452.0293 z "
           d="m -3502.043,1452.0293 c -0,0 -0,0 -0,0 v 30.6367 c 0,0 0,0 0,0 h 3.6289 c 0,0 0,-0 0,-0 v -30.6367 c 0,-0 -0,-0 -0,-0 z"
           transform="matrix(-3.0058122,0,-2.1254302,-2.1254302,-6061.166,3192.0384)" /><path
           id="path274"
           style="opacity:1;fill:#000000;fill-opacity:1;stroke:none;stroke-width:2.22307;stroke-linejoin:round;paint-order:stroke markers fill"
           sodipodi:type="inkscape:offset"
           inkscape:radius="0"
           inkscape:original="M -3502.043 1452.0293 C -3502.0451 1452.0293 -3502.0469 1452.0311 -3502.0469 1452.0332 L -3502.0469 1482.6699 C -3502.0469 1482.672 -3502.0451 1482.6738 -3502.043 1482.6738 L -3498.4141 1482.6738 C -3498.4119 1482.6738 -3498.4102 1482.672 -3498.4102 1482.6699 L -3498.4102 1452.0332 C -3498.4102 1452.0311 -3498.4119 1452.0293 -3498.4141 1452.0293 L -3502.043 1452.0293 z "
           d="m -3502.043,1452.0293 c -0,0 -0,0 -0,0 v 30.6367 c 0,0 0,0 0,0 h 3.6289 c 0,0 0,-0 0,-0 v -30.6367 c 0,-0 -0,-0 -0,-0 z"
           transform="matrix(-3.0058122,0,-2.1254302,-2.1254302,-6083.5145,3147.7751)" /><path
           id="path275"
           style="opacity:1;fill:#000000;fill-opacity:1;stroke:none;stroke-width:2.22307;stroke-linejoin:round;paint-order:stroke markers fill"
           sodipodi:type="inkscape:offset"
           inkscape:radius="0"
           inkscape:original="M -3502.043 1452.0293 C -3502.0451 1452.0293 -3502.0469 1452.0311 -3502.0469 1452.0332 L -3502.0469 1482.6699 C -3502.0469 1482.672 -3502.0451 1482.6738 -3502.043 1482.6738 L -3498.4141 1482.6738 C -3498.4119 1482.6738 -3498.4102 1482.672 -3498.4102 1482.6699 L -3498.4102 1452.0332 C -3498.4102 1452.0311 -3498.4119 1452.0293 -3498.4141 1452.0293 L -3502.043 1452.0293 z "
           d="m -3502.043,1452.0293 c -0,0 -0,0 -0,0 v 30.6367 c 0,0 0,0 0,0 h 3.6289 c 0,0 0,-0 0,-0 v -30.6367 c 0,-0 -0,-0 -0,-0 z"
           transform="matrix(-3.0058122,0,-2.1254302,-2.1254302,-6286.8985,2964.1104)" /><path
           id="path276"
           style="opacity:1;fill:#000000;fill-opacity:1;stroke:none;stroke-width:2.22307;stroke-linejoin:round;paint-order:stroke markers fill"
           sodipodi:type="inkscape:offset"
           inkscape:radius="0"
           inkscape:original="M -3502.043 1452.0293 C -3502.0451 1452.0293 -3502.0469 1452.0311 -3502.0469 1452.0332 L -3502.0469 1482.6699 C -3502.0469 1482.672 -3502.0451 1482.6738 -3502.043 1482.6738 L -3498.4141 1482.6738 C -3498.4119 1482.6738 -3498.4102 1482.672 -3498.4102 1482.6699 L -3498.4102 1452.0332 C -3498.4102 1452.0311 -3498.4119 1452.0293 -3498.4141 1452.0293 L -3502.043 1452.0293 z "
           d="m -3502.043,1452.0293 c -0,0 -0,0 -0,0 v 30.6367 c 0,0 0,0 0,0 h 3.6289 c 0,0 0,-0 0,-0 v -30.6367 c 0,-0 -0,-0 -0,-0 z"
           transform="matrix(-3.0058122,0,-2.1254302,-2.1254302,-6156.6005,3096.6039)" /><path
           id="path277"
           style="opacity:1;fill:#000000;fill-opacity:1;stroke:none;stroke-width:2.22307;stroke-linejoin:round;paint-order:stroke markers fill"
           sodipodi:type="inkscape:offset"
           inkscape:radius="0"
           inkscape:original="M -3502.043 1452.0293 C -3502.0451 1452.0293 -3502.0469 1452.0311 -3502.0469 1452.0332 L -3502.0469 1482.6699 C -3502.0469 1482.672 -3502.0451 1482.6738 -3502.043 1482.6738 L -3498.4141 1482.6738 C -3498.4119 1482.6738 -3498.4102 1482.672 -3498.4102 1482.6699 L -3498.4102 1452.0332 C -3498.4102 1452.0311 -3498.4119 1452.0293 -3498.4141 1452.0293 L -3502.043 1452.0293 z "
           d="m -3502.043,1452.0293 c -0,0 -0,0 -0,0 v 30.6367 c 0,0 0,0 0,0 h 3.6289 c 0,0 0,-0 0,-0 v -30.6367 c 0,-0 -0,-0 -0,-0 z"
           transform="matrix(-1.4949553,0,-1.0570931,-1.0570931,-2459.9396,1491.0676)" /><path
           id="path278"
           style="opacity:1;fill:#000000;fill-opacity:1;stroke:none;stroke-width:2.22307;stroke-linejoin:round;paint-order:stroke markers fill"
           sodipodi:type="inkscape:offset"
           inkscape:radius="0"
           inkscape:original="M -3502.043 1452.0293 C -3502.0451 1452.0293 -3502.0469 1452.0311 -3502.0469 1452.0332 L -3502.0469 1482.6699 C -3502.0469 1482.672 -3502.0451 1482.6738 -3502.043 1482.6738 L -3498.4141 1482.6738 C -3498.4119 1482.6738 -3498.4102 1482.672 -3498.4102 1482.6699 L -3498.4102 1452.0332 C -3498.4102 1452.0311 -3498.4119 1452.0293 -3498.4141 1452.0293 L -3502.043 1452.0293 z "
           d="m -3502.043,1452.0293 c -0,0 -0,0 -0,0 v 30.6367 c 0,0 0,0 0,0 h 3.6289 c 0,0 0,-0 0,-0 v -30.6367 c 0,-0 -0,-0 -0,-0 z"
           transform="matrix(-1.4949553,0,-1.0570931,-1.0570931,-2459.1707,1516.4)" /><path
           id="path279"
           style="opacity:1;fill:#000000;fill-opacity:1;stroke:none;stroke-width:2.22307;stroke-linejoin:round;paint-order:stroke markers fill"
           sodipodi:type="inkscape:offset"
           inkscape:radius="0"
           inkscape:original="M -3502.043 1452.0293 C -3502.0451 1452.0293 -3502.0469 1452.0311 -3502.0469 1452.0332 L -3502.0469 1482.6699 C -3502.0469 1482.672 -3502.0451 1482.6738 -3502.043 1482.6738 L -3498.4141 1482.6738 C -3498.4119 1482.6738 -3498.4102 1482.672 -3498.4102 1482.6699 L -3498.4102 1452.0332 C -3498.4102 1452.0311 -3498.4119 1452.0293 -3498.4141 1452.0293 L -3502.043 1452.0293 z "
           d="m -3502.043,1452.0293 c -0,0 -0,0 -0,0 v 30.6367 c 0,0 0,0 0,0 h 3.6289 c 0,0 0,-0 0,-0 v -30.6367 c 0,-0 -0,-0 -0,-0 z"
           transform="matrix(-1.4949553,0,-1.0570931,-1.0570931,-2500.1673,1470.81)" /><path
           id="path280"
           style="opacity:1;fill:#000000;fill-opacity:1;stroke:none;stroke-width:2.22307;stroke-linejoin:round;paint-order:stroke markers fill"
           sodipodi:type="inkscape:offset"
           inkscape:radius="0"
           inkscape:original="M -3502.043 1452.0293 C -3502.0451 1452.0293 -3502.0469 1452.0311 -3502.0469 1452.0332 L -3502.0469 1482.6699 C -3502.0469 1482.672 -3502.0451 1482.6738 -3502.043 1482.6738 L -3498.4141 1482.6738 C -3498.4119 1482.6738 -3498.4102 1482.672 -3498.4102 1482.6699 L -3498.4102 1452.0332 C -3498.4102 1452.0311 -3498.4119 1452.0293 -3498.4141 1452.0293 L -3502.043 1452.0293 z "
           d="m -3502.043,1452.0293 c -0,0 -0,0 -0,0 v 30.6367 c 0,0 0,0 0,0 h 3.6289 c 0,0 0,-0 0,-0 v -30.6367 c 0,-0 -0,-0 -0,-0 z"
           transform="matrix(-1.4949553,0,-1.0570931,-1.0570931,-2360.9531,1592.9271)" /><path
           id="path281"
           style="opacity:1;fill:#000000;fill-opacity:1;stroke:none;stroke-width:2.22307;stroke-linejoin:round;paint-order:stroke markers fill"
           sodipodi:type="inkscape:offset"
           inkscape:radius="0"
           inkscape:original="M -3502.043 1452.0293 C -3502.0451 1452.0293 -3502.0469 1452.0311 -3502.0469 1452.0332 L -3502.0469 1482.6699 C -3502.0469 1482.672 -3502.0451 1482.6738 -3502.043 1482.6738 L -3498.4141 1482.6738 C -3498.4119 1482.6738 -3498.4102 1482.672 -3498.4102 1482.6699 L -3498.4102 1452.0332 C -3498.4102 1452.0311 -3498.4119 1452.0293 -3498.4141 1452.0293 L -3502.043 1452.0293 z "
           d="m -3502.043,1452.0293 c -0,0 -0,0 -0,0 v 30.6367 c 0,0 0,0 0,0 h 3.6289 c 0,0 0,-0 0,-0 v -30.6367 c 0,-0 -0,-0 -0,-0 z"
           transform="matrix(-1.4949553,0,-1.0570931,-1.0570931,-2363.2279,1612.7285)" /><path
           id="path282"
           style="opacity:1;fill:#000000;fill-opacity:1;stroke:none;stroke-width:2.22307;stroke-linejoin:round;paint-order:stroke markers fill"
           sodipodi:type="inkscape:offset"
           inkscape:radius="0"
           inkscape:original="M -3502.043 1452.0293 C -3502.0451 1452.0293 -3502.0469 1452.0311 -3502.0469 1452.0332 L -3502.0469 1482.6699 C -3502.0469 1482.672 -3502.0451 1482.6738 -3502.043 1482.6738 L -3498.4141 1482.6738 C -3498.4119 1482.6738 -3498.4102 1482.672 -3498.4102 1482.6699 L -3498.4102 1452.0332 C -3498.4102 1452.0311 -3498.4119 1452.0293 -3498.4141 1452.0293 L -3502.043 1452.0293 z "
           d="m -3502.043,1452.0293 c -0,0 -0,0 -0,0 v 30.6367 c 0,0 0,0 0,0 h 3.6289 c 0,0 0,-0 0,-0 v -30.6367 c 0,-0 -0,-0 -0,-0 z"
           transform="matrix(-1.4949553,0,-1.0570931,-1.0570931,-2386.6131,1545.3472)" /><path
           id="path283"
           style="opacity:1;fill:#000000;fill-opacity:1;stroke:none;stroke-width:2.22307;stroke-linejoin:round;paint-order:stroke markers fill"
           sodipodi:type="inkscape:offset"
           inkscape:radius="0"
           inkscape:original="M -3502.043 1452.0293 C -3502.0451 1452.0293 -3502.0469 1452.0311 -3502.0469 1452.0332 L -3502.0469 1482.6699 C -3502.0469 1482.672 -3502.0451 1482.6738 -3502.043 1482.6738 L -3498.4141 1482.6738 C -3498.4119 1482.6738 -3498.4102 1482.672 -3498.4102 1482.6699 L -3498.4102 1452.0332 C -3498.4102 1452.0311 -3498.4119 1452.0293 -3498.4141 1452.0293 L -3502.043 1452.0293 z "
           d="m -3502.043,1452.0293 c -0,0 -0,0 -0,0 v 30.6367 c 0,0 0,0 0,0 h 3.6289 c 0,0 0,-0 0,-0 v -30.6367 c 0,-0 -0,-0 -0,-0 z"
           transform="matrix(-1.4949553,0,-1.0570931,-1.0570931,-2515.9511,1429.4346)" /><path
           id="path284"
           style="opacity:1;fill:#000000;fill-opacity:1;stroke:none;stroke-width:2.22307;stroke-linejoin:round;paint-order:stroke markers fill"
           sodipodi:type="inkscape:offset"
           inkscape:radius="0"
           inkscape:original="M -3502.043 1452.0293 C -3502.0451 1452.0293 -3502.0469 1452.0311 -3502.0469 1452.0332 L -3502.0469 1482.6699 C -3502.0469 1482.672 -3502.0451 1482.6738 -3502.043 1482.6738 L -3498.4141 1482.6738 C -3498.4119 1482.6738 -3498.4102 1482.672 -3498.4102 1482.6699 L -3498.4102 1452.0332 C -3498.4102 1452.0311 -3498.4119 1452.0293 -3498.4141 1452.0293 L -3502.043 1452.0293 z "
           d="m -3502.043,1452.0293 c -0,0 -0,0 -0,0 v 30.6367 c 0,0 0,0 0,0 h 3.6289 c 0,0 0,-0 0,-0 v -30.6367 c 0,-0 -0,-0 -0,-0 z"
           transform="matrix(-1.4949553,0,-1.0570931,-1.0570931,-2309.6373,1640.4538)" /><path
           id="path285"
           style="opacity:1;fill:#000000;fill-opacity:1;stroke:none;stroke-width:2.22307;stroke-linejoin:round;paint-order:stroke markers fill"
           sodipodi:type="inkscape:offset"
           inkscape:radius="0"
           inkscape:original="M -3502.043 1452.0293 C -3502.0451 1452.0293 -3502.0469 1452.0311 -3502.0469 1452.0332 L -3502.0469 1482.6699 C -3502.0469 1482.672 -3502.0451 1482.6738 -3502.043 1482.6738 L -3498.4141 1482.6738 C -3498.4119 1482.6738 -3498.4102 1482.672 -3498.4102 1482.6699 L -3498.4102 1452.0332 C -3498.4102 1452.0311 -3498.4119 1452.0293 -3498.4141 1452.0293 L -3502.043 1452.0293 z "
           d="m -3502.043,1452.0293 c -0,0 -0,0 -0,0 v 30.6367 c 0,0 0,0 0,0 h 3.6289 c 0,0 0,-0 0,-0 v -30.6367 c 0,-0 -0,-0 -0,-0 z"
           transform="matrix(-1.4949553,0,-1.0570931,-1.0570931,-2309.6373,1618.0518)" /><path
           id="path286"
           style="opacity:1;fill:#000000;fill-opacity:1;stroke:none;stroke-width:2.22307;stroke-linejoin:round;paint-order:stroke markers fill"
           sodipodi:type="inkscape:offset"
           inkscape:radius="0"
           inkscape:original="M -3502.043 1452.0293 C -3502.0451 1452.0293 -3502.0469 1452.0311 -3502.0469 1452.0332 L -3502.0469 1482.6699 C -3502.0469 1482.672 -3502.0451 1482.6738 -3502.043 1482.6738 L -3498.4141 1482.6738 C -3498.4119 1482.6738 -3498.4102 1482.672 -3498.4102 1482.6699 L -3498.4102 1452.0332 C -3498.4102 1452.0311 -3498.4119 1452.0293 -3498.4141 1452.0293 L -3502.043 1452.0293 z "
           d="m -3502.043,1452.0293 c -0,0 -0,0 -0,0 v 30.6367 c 0,0 0,0 0,0 h 3.6289 c 0,0 0,-0 0,-0 v -30.6367 c 0,-0 -0,-0 -0,-0 z"
           transform="matrix(-1.4949553,0,-1.0570931,-1.0570931,-2550.7557,1401.8458)" /><path
           id="path287"
           style="opacity:1;fill:#000000;fill-opacity:1;stroke:none;stroke-width:2.22307;stroke-linejoin:round;paint-order:stroke markers fill"
           sodipodi:type="inkscape:offset"
           inkscape:radius="0"
           inkscape:original="M -3502.043 1452.0293 C -3502.0451 1452.0293 -3502.0469 1452.0311 -3502.0469 1452.0332 L -3502.0469 1482.6699 C -3502.0469 1482.672 -3502.0451 1482.6738 -3502.043 1482.6738 L -3498.4141 1482.6738 C -3498.4119 1482.6738 -3498.4102 1482.672 -3498.4102 1482.6699 L -3498.4102 1452.0332 C -3498.4102 1452.0311 -3498.4119 1452.0293 -3498.4141 1452.0293 L -3502.043 1452.0293 z "
           d="m -3502.043,1452.0293 c -0,0 -0,0 -0,0 v 30.6367 c 0,0 0,0 0,0 h 3.6289 c 0,0 0,-0 0,-0 v -30.6367 c 0,-0 -0,-0 -0,-0 z"
           transform="matrix(-1.4949553,0,-1.0570931,-1.0570931,-2553.0305,1421.6472)" /><path
           id="path288"
           style="opacity:1;fill:#000000;fill-opacity:1;stroke:none;stroke-width:2.22307;stroke-linejoin:round;paint-order:stroke markers fill"
           sodipodi:type="inkscape:offset"
           inkscape:radius="0"
           inkscape:original="M -3502.043 1452.0293 C -3502.0451 1452.0293 -3502.0469 1452.0311 -3502.0469 1452.0332 L -3502.0469 1482.6699 C -3502.0469 1482.672 -3502.0451 1482.6738 -3502.043 1482.6738 L -3498.4141 1482.6738 C -3498.4119 1482.6738 -3498.4102 1482.672 -3498.4102 1482.6699 L -3498.4102 1452.0332 C -3498.4102 1452.0311 -3498.4119 1452.0293 -3498.4141 1452.0293 L -3502.043 1452.0293 z "
           d="m -3502.043,1452.0293 c -0,0 -0,0 -0,0 v 30.6367 c 0,0 0,0 0,0 h 3.6289 c 0,0 0,-0 0,-0 v -30.6367 c 0,-0 -0,-0 -0,-0 z"
           transform="matrix(-1.4949553,0,-1.0570931,-1.0570931,-2493.2266,1442.6587)" /><path
           id="path289"
           style="opacity:1;fill:#000000;fill-opacity:1;stroke:none;stroke-width:2.22307;stroke-linejoin:round;paint-order:stroke markers fill"
           sodipodi:type="inkscape:offset"
           inkscape:radius="0"
           inkscape:original="M -3502.043 1452.0293 C -3502.0451 1452.0293 -3502.0469 1452.0311 -3502.0469 1452.0332 L -3502.0469 1482.6699 C -3502.0469 1482.672 -3502.0451 1482.6738 -3502.043 1482.6738 L -3498.4141 1482.6738 C -3498.4119 1482.6738 -3498.4102 1482.672 -3498.4102 1482.6699 L -3498.4102 1452.0332 C -3498.4102 1452.0311 -3498.4119 1452.0293 -3498.4141 1452.0293 L -3502.043 1452.0293 z "
           d="m -3502.043,1452.0293 c -0,0 -0,0 -0,0 v 30.6367 c 0,0 0,0 0,0 h 3.6289 c 0,0 0,-0 0,-0 v -30.6367 c 0,-0 -0,-0 -0,-0 z"
           transform="matrix(-1.4949553,0,-1.0570931,-1.0570931,-2591.1307,1356.1641)" /><path
           id="path290"
           style="opacity:1;fill:#000000;fill-opacity:1;stroke:none;stroke-width:2.22307;stroke-linejoin:round;paint-order:stroke markers fill"
           sodipodi:type="inkscape:offset"
           inkscape:radius="0"
           inkscape:original="M -3502.043 1452.0293 C -3502.0451 1452.0293 -3502.0469 1452.0311 -3502.0469 1452.0332 L -3502.0469 1482.6699 C -3502.0469 1482.672 -3502.0451 1482.6738 -3502.043 1482.6738 L -3498.4141 1482.6738 C -3498.4119 1482.6738 -3498.4102 1482.672 -3498.4102 1482.6699 L -3498.4102 1452.0332 C -3498.4102 1452.0311 -3498.4119 1452.0293 -3498.4141 1452.0293 L -3502.043 1452.0293 z "
           d="m -3502.043,1452.0293 c -0,0 -0,0 -0,0 v 30.6367 c 0,0 0,0 0,0 h 3.6289 c 0,0 0,-0 0,-0 v -30.6367 c 0,-0 -0,-0 -0,-0 z"
           transform="matrix(-1.4949553,0,-1.0570931,-1.0570931,-2616.8665,1356.1641)" /></g><path
         id="path175"
         style="fill:#000000;fill-opacity:1;stroke:none;stroke-width:2.22307;stroke-linejoin:round;paint-order:stroke markers fill"
         sodipodi:type="inkscape:offset"
         inkscape:radius="0"
         inkscape:original="M -3502.043 1452.0293 C -3502.0451 1452.0293 -3502.0469 1452.0311 -3502.0469 1452.0332 L -3502.0469 1482.6699 C -3502.0469 1482.672 -3502.0451 1482.6738 -3502.043 1482.6738 L -3498.4141 1482.6738 C -3498.4119 1482.6738 -3498.4102 1482.672 -3498.4102 1482.6699 L -3498.4102 1452.0332 C -3498.4102 1452.0311 -3498.4119 1452.0293 -3498.4141 1452.0293 L -3502.043 1452.0293 z "
         d="m -3502.043,1452.0293 c -0,0 -0,0 -0,0 v 30.6367 c 0,0 0,0 0,0 h 3.6289 c 0,0 0,-0 0,-0 v -30.6367 c 0,-0 -0,-0 -0,-0 z"
         transform="matrix(-3.0058122,0,-2.1254302,-2.1254302,-5519.7372,3204.4929)" /><path
         id="path176"
         style="fill:#000000;fill-opacity:1;stroke:none;stroke-width:2.22307;stroke-linejoin:round;paint-order:stroke markers fill"
         sodipodi:type="inkscape:offset"
         inkscape:radius="0"
         inkscape:original="M -3502.043 1452.0293 C -3502.0451 1452.0293 -3502.0469 1452.0311 -3502.0469 1452.0332 L -3502.0469 1482.6699 C -3502.0469 1482.672 -3502.0451 1482.6738 -3502.043 1482.6738 L -3498.4141 1482.6738 C -3498.4119 1482.6738 -3498.4102 1482.672 -3498.4102 1482.6699 L -3498.4102 1452.0332 C -3498.4102 1452.0311 -3498.4119 1452.0293 -3498.4141 1452.0293 L -3502.043 1452.0293 z "
         d="m -3502.043,1452.0293 c -0,0 -0,0 -0,0 v 30.6367 c 0,0 0,0 0,0 h 3.6289 c 0,0 0,-0 0,-0 v -30.6367 c 0,-0 -0,-0 -0,-0 z"
         transform="matrix(-1.4949553,0,-1.0570931,-1.0570931,-1823.0763,1598.9566)" /><path
         id="path177"
         style="fill:#000000;fill-opacity:1;stroke:none;stroke-width:2.22307;stroke-linejoin:round;paint-order:stroke markers fill"
         sodipodi:type="inkscape:offset"
         inkscape:radius="0"
         inkscape:original="M -3502.043 1452.0293 C -3502.0451 1452.0293 -3502.0469 1452.0311 -3502.0469 1452.0332 L -3502.0469 1482.6699 C -3502.0469 1482.672 -3502.0451 1482.6738 -3502.043 1482.6738 L -3498.4141 1482.6738 C -3498.4119 1482.6738 -3498.4102 1482.672 -3498.4102 1482.6699 L -3498.4102 1452.0332 C -3498.4102 1452.0311 -3498.4119 1452.0293 -3498.4141 1452.0293 L -3502.043 1452.0293 z "
         d="m -3502.043,1452.0293 c -0,0 -0,0 -0,0 v 30.6367 c 0,0 0,0 0,0 h 3.6289 c 0,0 0,-0 0,-0 v -30.6367 c 0,-0 -0,-0 -0,-0 z"
         transform="matrix(-1.4949553,0,-1.0570931,-1.0570931,-1822.3074,1624.289)" /><path
         id="path178"
         style="fill:#000000;fill-opacity:1;stroke:none;stroke-width:2.22307;stroke-linejoin:round;paint-order:stroke markers fill"
         sodipodi:type="inkscape:offset"
         inkscape:radius="0"
         inkscape:original="M -3502.043 1452.0293 C -3502.0451 1452.0293 -3502.0469 1452.0311 -3502.0469 1452.0332 L -3502.0469 1482.6699 C -3502.0469 1482.672 -3502.0451 1482.6738 -3502.043 1482.6738 L -3498.4141 1482.6738 C -3498.4119 1482.6738 -3498.4102 1482.672 -3498.4102 1482.6699 L -3498.4102 1452.0332 C -3498.4102 1452.0311 -3498.4119 1452.0293 -3498.4141 1452.0293 L -3502.043 1452.0293 z "
         d="m -3502.043,1452.0293 c -0,0 -0,0 -0,0 v 30.6367 c 0,0 0,0 0,0 h 3.6289 c 0,0 0,-0 0,-0 v -30.6367 c 0,-0 -0,-0 -0,-0 z"
         transform="matrix(-1.4949553,0,-1.0570931,-1.0570931,-1863.304,1578.699)" /><path
         id="path181"
         style="fill:#000000;fill-opacity:1;stroke:none;stroke-width:2.22307;stroke-linejoin:round;paint-order:stroke markers fill"
         sodipodi:type="inkscape:offset"
         inkscape:radius="0"
         inkscape:original="M -3502.043 1452.0293 C -3502.0451 1452.0293 -3502.0469 1452.0311 -3502.0469 1452.0332 L -3502.0469 1482.6699 C -3502.0469 1482.672 -3502.0451 1482.6738 -3502.043 1482.6738 L -3498.4141 1482.6738 C -3498.4119 1482.6738 -3498.4102 1482.672 -3498.4102 1482.6699 L -3498.4102 1452.0332 C -3498.4102 1452.0311 -3498.4119 1452.0293 -3498.4141 1452.0293 L -3502.043 1452.0293 z "
         d="m -3502.043,1452.0293 c -0,0 -0,0 -0,0 v 30.6367 c 0,0 0,0 0,0 h 3.6289 c 0,0 0,-0 0,-0 v -30.6367 c 0,-0 -0,-0 -0,-0 z"
         transform="matrix(-1.4949553,0,-1.0570931,-1.0570931,-1766.256,1613.6318)" /><path
         style="font-weight:450;font-size:71.5576px;font-family:'Circular Std Book';-inkscape-font-specification:'Circular Std Book,  weight=450';text-align:center;letter-spacing:-6.78651px;text-anchor:middle;opacity:1;fill:#000000;stroke-width:7.36088"
         d="m 328.88277,68.794984 v 18.501132 h 12.65866 V 97.642128 H 328.88277 317.44129 306.24324 V 87.296116 h 3.16467 c 3.00237,0 5.23387,-0.811457 6.69449,-2.434372 1.54175,-1.704051 2.31263,-3.894972 2.31263,-6.572762 v -9.493998 z m 46.90037,77.047436 H 364.46339 V 87.296116 h 10.9546 v 7.789936 c 1.7852,-3.083522 4.3007,-5.436735 7.54651,-7.059638 3.24582,-1.622903 6.65392,-2.434355 10.22431,-2.434355 3.81383,0 7.30308,0.933168 10.46774,2.799504 3.16467,1.866347 5.51788,4.625289 7.05963,8.276824 4.05727,-7.384219 10.58947,-11.076328 19.5966,-11.076328 5.59902,0 10.34602,1.906916 14.241,5.720747 3.97611,3.813819 5.96417,9.331694 5.96417,16.553634 v 37.97598 h -11.31977 v -36.7588 c 0,-4.05726 -1.05488,-7.30307 -3.16465,-9.737435 -2.02863,-2.43436 -5.11216,-3.65154 -9.25057,-3.65154 -3.97611,0 -7.22193,1.420044 -9.73744,4.260133 -2.51551,2.758932 -3.77326,6.248172 -3.77326,10.467732 v 17.70995 h -11.44148 v -19.04884 c 0,-4.05726 -1.05489,-7.30307 -3.16467,-9.737435 -2.02863,-2.43436 -5.11215,-3.65154 -9.25056,-3.65154 -4.05727,0 -7.34365,1.37947 -9.85914,4.138411 -2.51551,2.758944 -3.77327,6.329334 -3.77327,10.711184 z m 88.87363,-35.29818 h 32.0118 c -0.16229,-4.38185 -1.6229,-7.95224 -4.38184,-10.711184 -2.75894,-2.840089 -6.65391,-4.260133 -11.68492,-4.260133 -4.54413,0 -8.27682,1.501186 -11.19805,4.503557 -2.92123,2.92124 -4.50356,6.41049 -4.74699,10.46776 z m 33.71586,15.21473 9.85915,3.4081 c -1.70405,5.43673 -4.86872,9.89973 -9.49401,13.38898 -4.62527,3.4081 -10.22429,5.11215 -16.79705,5.11215 -8.19568,0 -15.17418,-2.79951 -20.93549,-8.39854 -5.68017,-5.68017 -8.52025,-13.30782 -8.52025,-22.88297 0,-8.92597 2.75894,-16.31019 8.27681,-22.152658 5.51788,-5.842463 12.09065,-8.763695 19.7183,-8.763695 8.84483,0 15.74219,2.799515 20.69206,8.398546 4.94985,5.517871 7.42478,12.942667 7.42478,22.274377 0,1.46061 -0.0811,2.67778 -0.24344,3.65152 h -44.06188 c 0.0812,5.19331 1.78524,9.45344 5.11215,12.78039 3.4081,3.32695 7.58709,4.99043 12.53696,4.99043 8.35796,0 13.83526,-3.93554 16.43191,-11.80663 z m 7.80942,4.86871 10.34602,-3.65154 c 0.40573,3.16467 1.7852,5.8019 4.13841,7.91168 2.35321,2.02863 5.51788,3.04295 9.49399,3.04295 3.08352,0 5.51788,-0.73031 7.30308,-2.19093 1.7852,-1.54175 2.6778,-3.4081 2.6778,-5.59903 0,-3.89497 -2.5155,-6.41047 -7.54651,-7.5465 l -9.98088,-2.19093 c -4.54413,-0.97375 -8.11452,-2.92123 -10.71118,-5.84245 -2.59664,-2.92124 -3.89496,-6.45106 -3.89496,-10.58946 0,-5.031007 2.02863,-9.372283 6.08589,-13.02383 4.13841,-3.651535 9.0477,-5.477303 14.72787,-5.477303 3.73269,0 7.05964,0.568019 9.98086,1.704057 2.92124,1.05489 5.19331,2.474929 6.81622,4.260117 1.6229,1.785199 2.84008,3.448682 3.65154,4.990449 0.81145,1.541755 1.42003,3.124085 1.82576,4.74699 l -10.10259,3.77326 c -0.16229,-0.97374 -0.4463,-1.90691 -0.85202,-2.79952 -0.40573,-0.97374 -1.05489,-2.02862 -1.9475,-3.164654 -0.81145,-1.136038 -2.02862,-2.028637 -3.65152,-2.677798 -1.62291,-0.730309 -3.52983,-1.095464 -5.72075,-1.095464 -2.84009,0 -5.1933,0.770877 -7.05964,2.312632 -1.7852,1.541767 -2.6778,3.367544 -2.6778,5.477324 0,3.73268 2.2315,6.08589 6.69449,7.05963 l 9.494,2.06921 c 5.1933,1.13603 9.16942,3.2458 11.92836,6.32932 2.84008,3.00237 4.26012,6.69448 4.26012,11.07633 0,4.62529 -1.90691,8.80427 -5.72073,12.53696 -3.73269,3.73268 -8.96656,5.59902 -15.70161,5.59902 -7.22193,0 -12.86153,-1.7852 -16.9188,-5.35559 -4.05727,-3.65154 -6.36991,-7.54652 -6.93792,-11.68493 z"
         id="path192"
         transform="matrix(0.94722974,0,0,0.94722974,1531.9576,-40.82261)"
         sodipodi:nodetypes="ccccccccscscccccccssscscsccscscsccscsssccccscccccscssscscccsccccscsccsscscsscccccscscccscscc" /><path
         style="opacity:1;fill:#000000;fill-opacity:1;stroke-width:10.5833;stroke-linejoin:round;paint-order:stroke markers fill"
         d="m 1858.9531,55.186489 v 13.548778 l 10.7224,10.722401 V 65.182844 Z"
         id="path193" /><path
         style="opacity:1;fill:#000000;fill-opacity:1;stroke-width:10.5833;stroke-linejoin:round;paint-order:stroke markers fill"
         d="m 1843.4851,56.684232 v 4.6247 l -4.5524,-4.552347 z"
         id="path194" /><path
         style="opacity:1;fill:#000000;fill-opacity:1;stroke-width:10.5833;stroke-linejoin:round;paint-order:stroke markers fill"
         d="m 1858.953,88.685874 8.6378,8.637791 h -8.6377 z"
         id="path195" /><path
         style="opacity:1;fill:#000000;fill-opacity:1;stroke-width:10.5833;stroke-linejoin:round;paint-order:stroke markers fill"
         d="m 1673.8081,38.734814 c 0,0 3.6303,-0.325307 7.1426,0.290778 4.9292,1.211208 6.1596,2.072808 6.1596,2.072808 l -29.2447,-29.244742 h -10.9312 z"
         id="path196"
         sodipodi:nodetypes="cccccc" /><path
         style="font-style:italic;font-weight:900;font-size:71.5576px;font-family:'Circular Std Black Italic';-inkscape-font-specification:'Circular Std Black Italic,  Heavy Italic';text-align:center;letter-spacing:-5.18414px;text-anchor:middle;display:inline;fill:#000000;fill-opacity:1;stroke-width:7.36088"
         d="m 129.7358,63.969256 1.32953,-6.250603 -7.67735,-1e-6 z"
         id="path197"
         transform="matrix(0.94722974,0,0,0.94722974,1531.9576,-40.82261)"
         sodipodi:nodetypes="cccc" /></g><g
       id="g233"
       transform="translate(-578.83311,-110.08146)"><g
         id="g199"
         transform="matrix(0.94722974,0,0,0.94722974,1531.9576,-40.822611)"><path
           style="font-style:italic;font-weight:900;font-size:71.5576px;font-family:'Circular Std Black Italic';-inkscape-font-specification:'Circular Std Black Italic,  Heavy Italic';text-align:center;letter-spacing:-5.18414px;text-anchor:middle;fill:#efccf1;fill-opacity:1;stroke-width:7.36088"
           d="m 76.103205,111.15283 c 0,9.61571 -6.572775,15.57989 -13.388979,15.57989 -6.45105,0 -10.832896,-4.13841 -10.832896,-10.8329 0,-9.00713 5.842461,-15.45817 13.875844,-15.45817 5.84246,0 10.346031,4.13839 10.346031,10.71118 z m -50.026073,36.27193 c 0,10.8329 8.520254,23.36984 28.603711,23.36984 18.98799,0 30.551206,-13.14553 34.081025,-30.06433 L 100.44679,85.348615 H 82.55425 l -1.217186,6.32934 C 79.38958,88.269858 73.790555,84.009724 63.68797,84.009724 c -17.405663,0 -30.307763,14.727868 -30.307763,33.228996 0,14.36271 9.493998,24.95216 24.465302,24.95216 6.572767,0 11.198048,-2.92122 13.267254,-5.4773 l -0.852026,3.77326 c -2.190922,9.37227 -8.033382,14.36271 -15.82333,14.36271 -8.033383,0 -12.171792,-4.74699 -12.171792,-10.58946 z m 86.243638,-1.58234 18.74456,-88.123767 H 112.5642 L 93.819642,145.84242 Z m 41.57303,-45.15734 c 6.0859,0 10.34602,4.01669 10.34602,11.5632 0,12.53695 -7.05964,18.62285 -13.75413,18.62285 -6.0859,0 -10.58946,-4.26014 -10.58946,-12.05009 0,-8.76368 4.86873,-18.13596 13.99757,-18.13596 z m 16.67536,-15.336465 -1.21719,6.451062 c -1.21717,-2.31265 -5.59902,-7.911675 -17.16222,-7.911675 -17.04051,0 -30.55121,14.727868 -30.55121,35.785078 0,15.33646 9.12885,27.14309 23.735,27.14309 8.27682,0 12.9021,-4.50356 15.21474,-8.15511 -0.24343,1.58234 -0.36515,3.2864 -0.36515,4.99044 0,0.48688 0,1.46063 0.12179,2.19092 h 16.79707 c -0.12179,-1.09546 -0.12179,-1.94748 -0.12179,-2.31263 0,-3.04295 0.36515,-6.69449 1.09546,-9.85916 L 188.46169,85.348615 Z M 256.81271,57.718653 H 238.3116 l -7.05964,33.228987 c -1.70406,-2.556077 -6.20762,-7.059638 -16.43192,-7.059638 -17.04051,0 -30.55121,14.727868 -30.55121,35.785078 0,15.33646 9.12885,27.14309 23.73499,27.14309 8.27683,0 12.90211,-4.50356 15.21474,-8.15511 -0.12179,1.21719 -0.36514,2.6778 -0.36514,4.50357 0,1.21718 0,1.9475 0.12179,2.67779 h 16.79707 c -0.12179,-0.73029 -0.12179,-1.82576 -0.12179,-2.7995 0,-3.16467 0.48687,-6.81621 1.09546,-9.37229 z m -40.28862,42.966427 c 6.0859,0 10.34602,4.01669 10.34602,11.5632 0,12.53695 -7.05964,18.62285 -13.75413,18.62285 -6.0859,0 -10.58946,-4.26014 -10.58946,-12.05009 0,-8.76368 4.86873,-18.13596 13.99757,-18.13596 z m 49.24143,7.66823 c 1.94749,-5.96418 6.0859,-10.102589 13.38896,-10.102589 7.78996,0 10.34603,5.355579 10.34603,9.250569 v 0.85202 z m 39.07146,11.92836 c 1.21716,-3.65154 1.70404,-8.03339 1.70404,-10.8329 0,-14.971311 -10.22431,-25.925917 -27.26481,-25.925917 -16.06676,0 -32.13354,13.754126 -32.13354,36.028507 0,16.67535 12.78038,28.11684 27.99512,28.11684 14.8496,0 23.36985,-7.66823 27.26481,-15.5799 l -14.3627,-6.45105 c -1.94748,3.89497 -6.08589,6.81621 -11.31977,6.81621 -8.52025,0 -12.65866,-5.59902 -12.65866,-12.05008 z"
           id="path198" /><path
           style="font-weight:450;font-size:71.5576px;font-family:'Circular Std Book';-inkscape-font-specification:'Circular Std Book,  weight=450';text-align:center;letter-spacing:-6.78651px;text-anchor:middle;fill:#ffffff;stroke-width:7.36088"
           d="m 328.88277,68.794984 v 18.501132 h 12.65866 v 10.346012 h -12.65866 v 30.429482 q 0,4.13841 1.82578,6.08589 1.94748,1.94749 6.32932,1.94749 2.55608,0 4.50356,-0.48687 v 9.73743 q -2.92122,1.09547 -7.78993,1.09547 -7.54651,0 -11.92837,-4.38184 -4.38184,-4.38186 -4.38184,-12.29352 V 97.642128 H 306.24324 V 87.296116 h 3.16467 q 4.50356,0 6.69449,-2.434372 2.31263,-2.556077 2.31263,-6.572762 v -9.493998 z m 27.6494,77.047436 H 345.2124 V 87.296116 h 11.31977 z M 344.96895,70.985907 q -2.31263,-2.434358 -2.31263,-5.84246 0,-3.408103 2.31263,-5.842461 2.43438,-2.434358 5.84247,-2.434358 3.4081,0 5.84245,2.434358 2.43438,2.31264 2.43438,5.842461 0,3.408102 -2.43438,5.84246 -2.43435,2.31264 -5.84245,2.31264 -3.40809,0 -5.84247,-2.31264 z m 30.81419,74.856513 H 364.46339 V 87.296116 h 10.9546 v 7.789936 q 2.6778,-4.625283 7.54651,-7.059638 4.86873,-2.434355 10.22431,-2.434355 5.72075,0 10.46774,2.799504 4.747,2.799521 7.05963,8.276824 6.0859,-11.076328 19.5966,-11.076328 8.39853,0 14.241,5.720747 5.96417,5.720729 5.96417,16.553634 v 37.97598 h -11.31977 v -36.7588 q 0,-6.08589 -3.16465,-9.737435 -3.04295,-3.65154 -9.25057,-3.65154 -5.96417,0 -9.73744,4.260133 -3.77326,4.138392 -3.77326,10.467732 v 35.41991 h -11.44148 v -36.7588 q 0,-6.08589 -3.16467,-9.737435 -3.04294,-3.65154 -9.25056,-3.65154 -6.0859,0 -9.85914,4.138411 -3.77327,4.138414 -3.77327,10.711184 z m 88.87363,-35.29818 h 32.0118 q -0.24343,-6.57277 -4.38184,-10.711184 -4.13841,-4.260133 -11.68492,-4.260133 -6.8162,0 -11.19805,4.503557 -4.38184,4.38186 -4.74699,10.46776 z m 33.71586,15.21473 9.85915,3.4081 q -2.55607,8.1551 -9.49401,13.38898 -6.93791,5.11215 -16.79705,5.11215 -12.29352,0 -20.93549,-8.39854 -8.52025,-8.52025 -8.52025,-22.88297 0,-13.38896 8.27681,-22.152658 8.27682,-8.763695 19.7183,-8.763695 13.26725,0 20.69206,8.398546 7.42478,8.276807 7.42478,22.274377 0,2.19091 -0.24344,3.65152 h -44.06188 q 0.12179,7.78996 5.11215,12.78039 5.11215,4.99043 12.53696,4.99043 12.53694,0 16.43191,-11.80663 z m 7.80942,4.86871 10.34602,-3.65154 q 0.60859,4.74701 4.13841,7.91168 3.52982,3.04295 9.49399,3.04295 4.62528,0 7.30308,-2.19093 2.6778,-2.31263 2.6778,-5.59903 0,-5.84245 -7.54651,-7.5465 l -9.98088,-2.19093 q -6.81619,-1.46062 -10.71118,-5.84245 -3.89496,-4.38186 -3.89496,-10.58946 0,-7.54651 6.08589,-13.02383 6.20762,-5.477303 14.72787,-5.477303 5.59903,0 9.98086,1.704057 4.38186,1.582335 6.81622,4.260117 2.43435,2.677799 3.65154,4.990449 1.21717,2.312632 1.82576,4.74699 l -10.10259,3.77326 q -0.24344,-1.46061 -0.85202,-2.79952 -0.60859,-1.46061 -1.9475,-3.164654 -1.21717,-1.704057 -3.65152,-2.677798 -2.43437,-1.095464 -5.72075,-1.095464 -4.26013,0 -7.05964,2.312632 -2.6778,2.31265 -2.6778,5.477324 0,5.59902 6.69449,7.05963 l 9.494,2.06921 q 7.78995,1.70404 11.92836,6.32932 4.26012,4.50356 4.26012,11.07633 0,6.93793 -5.72073,12.53696 -5.59903,5.59902 -15.70161,5.59902 -10.8329,0 -16.9188,-5.35559 -6.0859,-5.47731 -6.93792,-11.68493 z"
           id="path199" /></g><g
         id="g222"
         transform="translate(636.86334,107.88903)"
         clip-path="url(#clipPath189)"><rect
           style="opacity:1;fill:#e3a6e9;fill-opacity:1;stroke:none;stroke-width:37.8302;stroke-linejoin:round;paint-order:stroke markers fill"
           id="rect199"
           width="72.07296"
           height="447.85876"
           x="1169.1145"
           y="-298.61945"
           ry="0.0558425"
           transform="matrix(1,0,0.70710678,0.70710678,0,0)" /><rect
           style="opacity:1;fill:#cc61d8;fill-opacity:1;stroke:none;stroke-width:20.2241;stroke-linejoin:round;paint-order:stroke markers fill"
           id="rect200"
           width="20.598249"
           height="447.85876"
           x="1128.1061"
           y="-298.61945"
           ry="0.0558425"
           transform="matrix(1,0,0.70710678,0.70710678,0,0)" /><path
           id="path200"
           style="opacity:1;fill:#cc61d8;fill-opacity:1;stroke:none;stroke-width:2.22307;stroke-linejoin:round;paint-order:stroke markers fill"
           sodipodi:type="inkscape:offset"
           inkscape:radius="0"
           inkscape:original="M -3502.043 1452.0293 C -3502.0451 1452.0293 -3502.0469 1452.0311 -3502.0469 1452.0332 L -3502.0469 1482.6699 C -3502.0469 1482.672 -3502.0451 1482.6738 -3502.043 1482.6738 L -3498.4141 1482.6738 C -3498.4119 1482.6738 -3498.4102 1482.672 -3498.4102 1482.6699 L -3498.4102 1452.0332 C -3498.4102 1452.0311 -3498.4119 1452.0293 -3498.4141 1452.0293 L -3502.043 1452.0293 z "
           d="m -3502.043,1452.0293 c -0,0 -0,0 -0,0 v 30.6367 c 0,0 0,0 0,0 h 3.6289 c 0,0 0,-0 0,-0 v -30.6367 c 0,-0 -0,-0 -0,-0 z"
           transform="matrix(3.0058122,0,2.1254302,2.1254302,8560.6636,-3069.7425)" /><path
           id="path201"
           style="opacity:1;fill:#421249;fill-opacity:1;stroke:none;stroke-width:2.22307;stroke-linejoin:round;paint-order:stroke markers fill"
           sodipodi:type="inkscape:offset"
           inkscape:radius="0"
           inkscape:original="M -3502.043 1452.0293 C -3502.0451 1452.0293 -3502.0469 1452.0311 -3502.0469 1452.0332 L -3502.0469 1482.6699 C -3502.0469 1482.672 -3502.0451 1482.6738 -3502.043 1482.6738 L -3498.4141 1482.6738 C -3498.4119 1482.6738 -3498.4102 1482.672 -3498.4102 1482.6699 L -3498.4102 1452.0332 C -3498.4102 1452.0311 -3498.4119 1452.0293 -3498.4141 1452.0293 L -3502.043 1452.0293 z "
           d="m -3502.043,1452.0293 c -0,0 -0,0 -0,0 v 30.6367 c 0,0 0,0 0,0 h 3.6289 c 0,0 0,-0 0,-0 v -30.6367 c 0,-0 -0,-0 -0,-0 z"
           transform="matrix(1.4949553,0,1.0570931,1.0570931,4824.5209,-1507.4781)" /><path
           id="path202"
           style="opacity:1;fill:#421249;fill-opacity:1;stroke:none;stroke-width:2.22307;stroke-linejoin:round;paint-order:stroke markers fill"
           sodipodi:type="inkscape:offset"
           inkscape:radius="0"
           inkscape:original="M -3502.043 1452.0293 C -3502.0451 1452.0293 -3502.0469 1452.0311 -3502.0469 1452.0332 L -3502.0469 1482.6699 C -3502.0469 1482.672 -3502.0451 1482.6738 -3502.043 1482.6738 L -3498.4141 1482.6738 C -3498.4119 1482.6738 -3498.4102 1482.672 -3498.4102 1482.6699 L -3498.4102 1452.0332 C -3498.4102 1452.0311 -3498.4119 1452.0293 -3498.4141 1452.0293 L -3502.043 1452.0293 z "
           d="m -3502.043,1452.0293 c -0,0 -0,0 -0,0 v 30.6367 c 0,0 0,0 0,0 h 3.6289 c 0,0 0,-0 0,-0 v -30.6367 c 0,-0 -0,-0 -0,-0 z"
           transform="matrix(1.4949553,0,1.0570931,1.0570931,4826.7957,-1527.2796)" /><path
           id="path203"
           style="opacity:1;fill:#a12baf;fill-opacity:1;stroke:none;stroke-width:2.22307;stroke-linejoin:round;paint-order:stroke markers fill"
           sodipodi:type="inkscape:offset"
           inkscape:radius="0"
           inkscape:original="M -3502.043 1452.0293 C -3502.0451 1452.0293 -3502.0469 1452.0311 -3502.0469 1452.0332 L -3502.0469 1482.6699 C -3502.0469 1482.672 -3502.0451 1482.6738 -3502.043 1482.6738 L -3498.4141 1482.6738 C -3498.4119 1482.6738 -3498.4102 1482.672 -3498.4102 1482.6699 L -3498.4102 1452.0332 C -3498.4102 1452.0311 -3498.4119 1452.0293 -3498.4141 1452.0293 L -3502.043 1452.0293 z "
           d="m -3502.043,1452.0293 c -0,0 -0,0 -0,0 v 30.6367 c 0,0 0,0 0,0 h 3.6289 c 0,0 0,-0 0,-0 v -30.6367 c 0,-0 -0,-0 -0,-0 z"
           transform="matrix(1.4949553,0,1.0570931,1.0570931,4864.8959,-1461.7962)" /><path
           id="path204"
           style="opacity:1;fill:#421249;fill-opacity:1;stroke:none;stroke-width:2.22307;stroke-linejoin:round;paint-order:stroke markers fill"
           sodipodi:type="inkscape:offset"
           inkscape:radius="0"
           inkscape:original="M -3502.043 1452.0293 C -3502.0451 1452.0293 -3502.0469 1452.0311 -3502.0469 1452.0332 L -3502.0469 1482.6699 C -3502.0469 1482.672 -3502.0451 1482.6738 -3502.043 1482.6738 L -3498.4141 1482.6738 C -3498.4119 1482.6738 -3498.4102 1482.672 -3498.4102 1482.6699 L -3498.4102 1452.0332 C -3498.4102 1452.0311 -3498.4119 1452.0293 -3498.4141 1452.0293 L -3502.043 1452.0293 z "
           d="m -3502.043,1452.0293 c -0,0 -0,0 -0,0 v 30.6367 c 0,0 0,0 0,0 h 3.6289 c 0,0 0,-0 0,-0 v -30.6367 c 0,-0 -0,-0 -0,-0 z"
           transform="matrix(1.4949553,0,1.0570931,1.0570931,4890.6316,-1461.7962)" /><path
           id="path205"
           style="opacity:1;fill:#cc61d8;fill-opacity:1;stroke:none;stroke-width:2.22307;stroke-linejoin:round;paint-order:stroke markers fill"
           sodipodi:type="inkscape:offset"
           inkscape:radius="0"
           inkscape:original="M -3502.043 1452.0293 C -3502.0451 1452.0293 -3502.0469 1452.0311 -3502.0469 1452.0332 L -3502.0469 1482.6699 C -3502.0469 1482.672 -3502.0451 1482.6738 -3502.043 1482.6738 L -3498.4141 1482.6738 C -3498.4119 1482.6738 -3498.4102 1482.672 -3498.4102 1482.6699 L -3498.4102 1452.0332 C -3498.4102 1452.0311 -3498.4119 1452.0293 -3498.4141 1452.0293 L -3502.043 1452.0293 z "
           d="m -3502.043,1452.0293 c -0,0 -0,0 -0,0 v 30.6367 c 0,0 0,0 0,0 h 3.6289 c 0,0 0,-0 0,-0 v -30.6367 c 0,-0 -0,-0 -0,-0 z"
           transform="matrix(-3.0058122,0,-2.1254302,-2.1254302,-6061.166,3192.0384)" /><path
           id="path206"
           style="opacity:1;fill:#cc61d8;fill-opacity:1;stroke:none;stroke-width:2.22307;stroke-linejoin:round;paint-order:stroke markers fill"
           sodipodi:type="inkscape:offset"
           inkscape:radius="0"
           inkscape:original="M -3502.043 1452.0293 C -3502.0451 1452.0293 -3502.0469 1452.0311 -3502.0469 1452.0332 L -3502.0469 1482.6699 C -3502.0469 1482.672 -3502.0451 1482.6738 -3502.043 1482.6738 L -3498.4141 1482.6738 C -3498.4119 1482.6738 -3498.4102 1482.672 -3498.4102 1482.6699 L -3498.4102 1452.0332 C -3498.4102 1452.0311 -3498.4119 1452.0293 -3498.4141 1452.0293 L -3502.043 1452.0293 z "
           d="m -3502.043,1452.0293 c -0,0 -0,0 -0,0 v 30.6367 c 0,0 0,0 0,0 h 3.6289 c 0,0 0,-0 0,-0 v -30.6367 c 0,-0 -0,-0 -0,-0 z"
           transform="matrix(-3.0058122,0,-2.1254302,-2.1254302,-6083.5145,3147.7751)" /><path
           id="path207"
           style="opacity:1;fill:#cc61d8;fill-opacity:1;stroke:none;stroke-width:2.22307;stroke-linejoin:round;paint-order:stroke markers fill"
           sodipodi:type="inkscape:offset"
           inkscape:radius="0"
           inkscape:original="M -3502.043 1452.0293 C -3502.0451 1452.0293 -3502.0469 1452.0311 -3502.0469 1452.0332 L -3502.0469 1482.6699 C -3502.0469 1482.672 -3502.0451 1482.6738 -3502.043 1482.6738 L -3498.4141 1482.6738 C -3498.4119 1482.6738 -3498.4102 1482.672 -3498.4102 1482.6699 L -3498.4102 1452.0332 C -3498.4102 1452.0311 -3498.4119 1452.0293 -3498.4141 1452.0293 L -3502.043 1452.0293 z "
           d="m -3502.043,1452.0293 c -0,0 -0,0 -0,0 v 30.6367 c 0,0 0,0 0,0 h 3.6289 c 0,0 0,-0 0,-0 v -30.6367 c 0,-0 -0,-0 -0,-0 z"
           transform="matrix(-3.0058122,0,-2.1254302,-2.1254302,-6286.8985,2964.1104)" /><path
           id="path208"
           style="opacity:1;fill:#cc61d8;fill-opacity:1;stroke:none;stroke-width:2.22307;stroke-linejoin:round;paint-order:stroke markers fill"
           sodipodi:type="inkscape:offset"
           inkscape:radius="0"
           inkscape:original="M -3502.043 1452.0293 C -3502.0451 1452.0293 -3502.0469 1452.0311 -3502.0469 1452.0332 L -3502.0469 1482.6699 C -3502.0469 1482.672 -3502.0451 1482.6738 -3502.043 1482.6738 L -3498.4141 1482.6738 C -3498.4119 1482.6738 -3498.4102 1482.672 -3498.4102 1482.6699 L -3498.4102 1452.0332 C -3498.4102 1452.0311 -3498.4119 1452.0293 -3498.4141 1452.0293 L -3502.043 1452.0293 z "
           d="m -3502.043,1452.0293 c -0,0 -0,0 -0,0 v 30.6367 c 0,0 0,0 0,0 h 3.6289 c 0,0 0,-0 0,-0 v -30.6367 c 0,-0 -0,-0 -0,-0 z"
           transform="matrix(-3.0058122,0,-2.1254302,-2.1254302,-6156.6005,3096.6039)" /><path
           id="path209"
           style="opacity:1;fill:#a12baf;fill-opacity:1;stroke:none;stroke-width:2.22307;stroke-linejoin:round;paint-order:stroke markers fill"
           sodipodi:type="inkscape:offset"
           inkscape:radius="0"
           inkscape:original="M -3502.043 1452.0293 C -3502.0451 1452.0293 -3502.0469 1452.0311 -3502.0469 1452.0332 L -3502.0469 1482.6699 C -3502.0469 1482.672 -3502.0451 1482.6738 -3502.043 1482.6738 L -3498.4141 1482.6738 C -3498.4119 1482.6738 -3498.4102 1482.672 -3498.4102 1482.6699 L -3498.4102 1452.0332 C -3498.4102 1452.0311 -3498.4119 1452.0293 -3498.4141 1452.0293 L -3502.043 1452.0293 z "
           d="m -3502.043,1452.0293 c -0,0 -0,0 -0,0 v 30.6367 c 0,0 0,0 0,0 h 3.6289 c 0,0 0,-0 0,-0 v -30.6367 c 0,-0 -0,-0 -0,-0 z"
           transform="matrix(-1.4949553,0,-1.0570931,-1.0570931,-2459.9396,1491.0676)" /><path
           id="path210"
           style="opacity:1;fill:#421249;fill-opacity:1;stroke:none;stroke-width:2.22307;stroke-linejoin:round;paint-order:stroke markers fill"
           sodipodi:type="inkscape:offset"
           inkscape:radius="0"
           inkscape:original="M -3502.043 1452.0293 C -3502.0451 1452.0293 -3502.0469 1452.0311 -3502.0469 1452.0332 L -3502.0469 1482.6699 C -3502.0469 1482.672 -3502.0451 1482.6738 -3502.043 1482.6738 L -3498.4141 1482.6738 C -3498.4119 1482.6738 -3498.4102 1482.672 -3498.4102 1482.6699 L -3498.4102 1452.0332 C -3498.4102 1452.0311 -3498.4119 1452.0293 -3498.4141 1452.0293 L -3502.043 1452.0293 z "
           d="m -3502.043,1452.0293 c -0,0 -0,0 -0,0 v 30.6367 c 0,0 0,0 0,0 h 3.6289 c 0,0 0,-0 0,-0 v -30.6367 c 0,-0 -0,-0 -0,-0 z"
           transform="matrix(-1.4949553,0,-1.0570931,-1.0570931,-2459.1707,1516.4)" /><path
           id="path211"
           style="opacity:1;fill:#a12baf;fill-opacity:1;stroke:none;stroke-width:2.22307;stroke-linejoin:round;paint-order:stroke markers fill"
           sodipodi:type="inkscape:offset"
           inkscape:radius="0"
           inkscape:original="M -3502.043 1452.0293 C -3502.0451 1452.0293 -3502.0469 1452.0311 -3502.0469 1452.0332 L -3502.0469 1482.6699 C -3502.0469 1482.672 -3502.0451 1482.6738 -3502.043 1482.6738 L -3498.4141 1482.6738 C -3498.4119 1482.6738 -3498.4102 1482.672 -3498.4102 1482.6699 L -3498.4102 1452.0332 C -3498.4102 1452.0311 -3498.4119 1452.0293 -3498.4141 1452.0293 L -3502.043 1452.0293 z "
           d="m -3502.043,1452.0293 c -0,0 -0,0 -0,0 v 30.6367 c 0,0 0,0 0,0 h 3.6289 c 0,0 0,-0 0,-0 v -30.6367 c 0,-0 -0,-0 -0,-0 z"
           transform="matrix(-1.4949553,0,-1.0570931,-1.0570931,-2500.1673,1470.81)" /><path
           id="path212"
           style="opacity:1;fill:#421249;fill-opacity:1;stroke:none;stroke-width:2.22307;stroke-linejoin:round;paint-order:stroke markers fill"
           sodipodi:type="inkscape:offset"
           inkscape:radius="0"
           inkscape:original="M -3502.043 1452.0293 C -3502.0451 1452.0293 -3502.0469 1452.0311 -3502.0469 1452.0332 L -3502.0469 1482.6699 C -3502.0469 1482.672 -3502.0451 1482.6738 -3502.043 1482.6738 L -3498.4141 1482.6738 C -3498.4119 1482.6738 -3498.4102 1482.672 -3498.4102 1482.6699 L -3498.4102 1452.0332 C -3498.4102 1452.0311 -3498.4119 1452.0293 -3498.4141 1452.0293 L -3502.043 1452.0293 z "
           d="m -3502.043,1452.0293 c -0,0 -0,0 -0,0 v 30.6367 c 0,0 0,0 0,0 h 3.6289 c 0,0 0,-0 0,-0 v -30.6367 c 0,-0 -0,-0 -0,-0 z"
           transform="matrix(-1.4949553,0,-1.0570931,-1.0570931,-2360.9531,1592.9271)" /><path
           id="path213"
           style="opacity:1;fill:#421249;fill-opacity:1;stroke:none;stroke-width:2.22307;stroke-linejoin:round;paint-order:stroke markers fill"
           sodipodi:type="inkscape:offset"
           inkscape:radius="0"
           inkscape:original="M -3502.043 1452.0293 C -3502.0451 1452.0293 -3502.0469 1452.0311 -3502.0469 1452.0332 L -3502.0469 1482.6699 C -3502.0469 1482.672 -3502.0451 1482.6738 -3502.043 1482.6738 L -3498.4141 1482.6738 C -3498.4119 1482.6738 -3498.4102 1482.672 -3498.4102 1482.6699 L -3498.4102 1452.0332 C -3498.4102 1452.0311 -3498.4119 1452.0293 -3498.4141 1452.0293 L -3502.043 1452.0293 z "
           d="m -3502.043,1452.0293 c -0,0 -0,0 -0,0 v 30.6367 c 0,0 0,0 0,0 h 3.6289 c 0,0 0,-0 0,-0 v -30.6367 c 0,-0 -0,-0 -0,-0 z"
           transform="matrix(-1.4949553,0,-1.0570931,-1.0570931,-2363.2279,1612.7285)" /><path
           id="path214"
           style="opacity:1;fill:#a12baf;fill-opacity:1;stroke:none;stroke-width:2.22307;stroke-linejoin:round;paint-order:stroke markers fill"
           sodipodi:type="inkscape:offset"
           inkscape:radius="0"
           inkscape:original="M -3502.043 1452.0293 C -3502.0451 1452.0293 -3502.0469 1452.0311 -3502.0469 1452.0332 L -3502.0469 1482.6699 C -3502.0469 1482.672 -3502.0451 1482.6738 -3502.043 1482.6738 L -3498.4141 1482.6738 C -3498.4119 1482.6738 -3498.4102 1482.672 -3498.4102 1482.6699 L -3498.4102 1452.0332 C -3498.4102 1452.0311 -3498.4119 1452.0293 -3498.4141 1452.0293 L -3502.043 1452.0293 z "
           d="m -3502.043,1452.0293 c -0,0 -0,0 -0,0 v 30.6367 c 0,0 0,0 0,0 h 3.6289 c 0,0 0,-0 0,-0 v -30.6367 c 0,-0 -0,-0 -0,-0 z"
           transform="matrix(-1.4949553,0,-1.0570931,-1.0570931,-2386.6131,1545.3472)" /><path
           id="path215"
           style="opacity:1;fill:#a12baf;fill-opacity:1;stroke:none;stroke-width:2.22307;stroke-linejoin:round;paint-order:stroke markers fill"
           sodipodi:type="inkscape:offset"
           inkscape:radius="0"
           inkscape:original="M -3502.043 1452.0293 C -3502.0451 1452.0293 -3502.0469 1452.0311 -3502.0469 1452.0332 L -3502.0469 1482.6699 C -3502.0469 1482.672 -3502.0451 1482.6738 -3502.043 1482.6738 L -3498.4141 1482.6738 C -3498.4119 1482.6738 -3498.4102 1482.672 -3498.4102 1482.6699 L -3498.4102 1452.0332 C -3498.4102 1452.0311 -3498.4119 1452.0293 -3498.4141 1452.0293 L -3502.043 1452.0293 z "
           d="m -3502.043,1452.0293 c -0,0 -0,0 -0,0 v 30.6367 c 0,0 0,0 0,0 h 3.6289 c 0,0 0,-0 0,-0 v -30.6367 c 0,-0 -0,-0 -0,-0 z"
           transform="matrix(-1.4949553,0,-1.0570931,-1.0570931,-2515.9511,1429.4346)" /><path
           id="path216"
           style="opacity:1;fill:#a12baf;fill-opacity:1;stroke:none;stroke-width:2.22307;stroke-linejoin:round;paint-order:stroke markers fill"
           sodipodi:type="inkscape:offset"
           inkscape:radius="0"
           inkscape:original="M -3502.043 1452.0293 C -3502.0451 1452.0293 -3502.0469 1452.0311 -3502.0469 1452.0332 L -3502.0469 1482.6699 C -3502.0469 1482.672 -3502.0451 1482.6738 -3502.043 1482.6738 L -3498.4141 1482.6738 C -3498.4119 1482.6738 -3498.4102 1482.672 -3498.4102 1482.6699 L -3498.4102 1452.0332 C -3498.4102 1452.0311 -3498.4119 1452.0293 -3498.4141 1452.0293 L -3502.043 1452.0293 z "
           d="m -3502.043,1452.0293 c -0,0 -0,0 -0,0 v 30.6367 c 0,0 0,0 0,0 h 3.6289 c 0,0 0,-0 0,-0 v -30.6367 c 0,-0 -0,-0 -0,-0 z"
           transform="matrix(-1.4949553,0,-1.0570931,-1.0570931,-2309.6373,1640.4538)" /><path
           id="path217"
           style="opacity:1;fill:#421249;fill-opacity:1;stroke:none;stroke-width:2.22307;stroke-linejoin:round;paint-order:stroke markers fill"
           sodipodi:type="inkscape:offset"
           inkscape:radius="0"
           inkscape:original="M -3502.043 1452.0293 C -3502.0451 1452.0293 -3502.0469 1452.0311 -3502.0469 1452.0332 L -3502.0469 1482.6699 C -3502.0469 1482.672 -3502.0451 1482.6738 -3502.043 1482.6738 L -3498.4141 1482.6738 C -3498.4119 1482.6738 -3498.4102 1482.672 -3498.4102 1482.6699 L -3498.4102 1452.0332 C -3498.4102 1452.0311 -3498.4119 1452.0293 -3498.4141 1452.0293 L -3502.043 1452.0293 z "
           d="m -3502.043,1452.0293 c -0,0 -0,0 -0,0 v 30.6367 c 0,0 0,0 0,0 h 3.6289 c 0,0 0,-0 0,-0 v -30.6367 c 0,-0 -0,-0 -0,-0 z"
           transform="matrix(-1.4949553,0,-1.0570931,-1.0570931,-2309.6373,1618.0518)" /><path
           id="path218"
           style="opacity:1;fill:#421249;fill-opacity:1;stroke:none;stroke-width:2.22307;stroke-linejoin:round;paint-order:stroke markers fill"
           sodipodi:type="inkscape:offset"
           inkscape:radius="0"
           inkscape:original="M -3502.043 1452.0293 C -3502.0451 1452.0293 -3502.0469 1452.0311 -3502.0469 1452.0332 L -3502.0469 1482.6699 C -3502.0469 1482.672 -3502.0451 1482.6738 -3502.043 1482.6738 L -3498.4141 1482.6738 C -3498.4119 1482.6738 -3498.4102 1482.672 -3498.4102 1482.6699 L -3498.4102 1452.0332 C -3498.4102 1452.0311 -3498.4119 1452.0293 -3498.4141 1452.0293 L -3502.043 1452.0293 z "
           d="m -3502.043,1452.0293 c -0,0 -0,0 -0,0 v 30.6367 c 0,0 0,0 0,0 h 3.6289 c 0,0 0,-0 0,-0 v -30.6367 c 0,-0 -0,-0 -0,-0 z"
           transform="matrix(-1.4949553,0,-1.0570931,-1.0570931,-2550.7557,1401.8458)" /><path
           id="path219"
           style="opacity:1;fill:#421249;fill-opacity:1;stroke:none;stroke-width:2.22307;stroke-linejoin:round;paint-order:stroke markers fill"
           sodipodi:type="inkscape:offset"
           inkscape:radius="0"
           inkscape:original="M -3502.043 1452.0293 C -3502.0451 1452.0293 -3502.0469 1452.0311 -3502.0469 1452.0332 L -3502.0469 1482.6699 C -3502.0469 1482.672 -3502.0451 1482.6738 -3502.043 1482.6738 L -3498.4141 1482.6738 C -3498.4119 1482.6738 -3498.4102 1482.672 -3498.4102 1482.6699 L -3498.4102 1452.0332 C -3498.4102 1452.0311 -3498.4119 1452.0293 -3498.4141 1452.0293 L -3502.043 1452.0293 z "
           d="m -3502.043,1452.0293 c -0,0 -0,0 -0,0 v 30.6367 c 0,0 0,0 0,0 h 3.6289 c 0,0 0,-0 0,-0 v -30.6367 c 0,-0 -0,-0 -0,-0 z"
           transform="matrix(-1.4949553,0,-1.0570931,-1.0570931,-2553.0305,1421.6472)" /><path
           id="path220"
           style="opacity:1;fill:#421249;fill-opacity:1;stroke:none;stroke-width:2.22307;stroke-linejoin:round;paint-order:stroke markers fill"
           sodipodi:type="inkscape:offset"
           inkscape:radius="0"
           inkscape:original="M -3502.043 1452.0293 C -3502.0451 1452.0293 -3502.0469 1452.0311 -3502.0469 1452.0332 L -3502.0469 1482.6699 C -3502.0469 1482.672 -3502.0451 1482.6738 -3502.043 1482.6738 L -3498.4141 1482.6738 C -3498.4119 1482.6738 -3498.4102 1482.672 -3498.4102 1482.6699 L -3498.4102 1452.0332 C -3498.4102 1452.0311 -3498.4119 1452.0293 -3498.4141 1452.0293 L -3502.043 1452.0293 z "
           d="m -3502.043,1452.0293 c -0,0 -0,0 -0,0 v 30.6367 c 0,0 0,0 0,0 h 3.6289 c 0,0 0,-0 0,-0 v -30.6367 c 0,-0 -0,-0 -0,-0 z"
           transform="matrix(-1.4949553,0,-1.0570931,-1.0570931,-2493.2266,1442.6587)" /><path
           id="path221"
           style="opacity:1;fill:#a12baf;fill-opacity:1;stroke:none;stroke-width:2.22307;stroke-linejoin:round;paint-order:stroke markers fill"
           sodipodi:type="inkscape:offset"
           inkscape:radius="0"
           inkscape:original="M -3502.043 1452.0293 C -3502.0451 1452.0293 -3502.0469 1452.0311 -3502.0469 1452.0332 L -3502.0469 1482.6699 C -3502.0469 1482.672 -3502.0451 1482.6738 -3502.043 1482.6738 L -3498.4141 1482.6738 C -3498.4119 1482.6738 -3498.4102 1482.672 -3498.4102 1482.6699 L -3498.4102 1452.0332 C -3498.4102 1452.0311 -3498.4119 1452.0293 -3498.4141 1452.0293 L -3502.043 1452.0293 z "
           d="m -3502.043,1452.0293 c -0,0 -0,0 -0,0 v 30.6367 c 0,0 0,0 0,0 h 3.6289 c 0,0 0,-0 0,-0 v -30.6367 c 0,-0 -0,-0 -0,-0 z"
           transform="matrix(-1.4949553,0,-1.0570931,-1.0570931,-2591.1307,1356.1641)" /><path
           id="path222"
           style="opacity:1;fill:#421249;fill-opacity:1;stroke:none;stroke-width:2.22307;stroke-linejoin:round;paint-order:stroke markers fill"
           sodipodi:type="inkscape:offset"
           inkscape:radius="0"
           inkscape:original="M -3502.043 1452.0293 C -3502.0451 1452.0293 -3502.0469 1452.0311 -3502.0469 1452.0332 L -3502.0469 1482.6699 C -3502.0469 1482.672 -3502.0451 1482.6738 -3502.043 1482.6738 L -3498.4141 1482.6738 C -3498.4119 1482.6738 -3498.4102 1482.672 -3498.4102 1482.6699 L -3498.4102 1452.0332 C -3498.4102 1452.0311 -3498.4119 1452.0293 -3498.4141 1452.0293 L -3502.043 1452.0293 z "
           d="m -3502.043,1452.0293 c -0,0 -0,0 -0,0 v 30.6367 c 0,0 0,0 0,0 h 3.6289 c 0,0 0,-0 0,-0 v -30.6367 c 0,-0 -0,-0 -0,-0 z"
           transform="matrix(-1.4949553,0,-1.0570931,-1.0570931,-2616.8665,1356.1641)" /></g><path
         id="path223"
         style="fill:#cc61d8;fill-opacity:1;stroke:none;stroke-width:2.22307;stroke-linejoin:round;paint-order:stroke markers fill"
         sodipodi:type="inkscape:offset"
         inkscape:radius="0"
         inkscape:original="M -3502.043 1452.0293 C -3502.0451 1452.0293 -3502.0469 1452.0311 -3502.0469 1452.0332 L -3502.0469 1482.6699 C -3502.0469 1482.672 -3502.0451 1482.6738 -3502.043 1482.6738 L -3498.4141 1482.6738 C -3498.4119 1482.6738 -3498.4102 1482.672 -3498.4102 1482.6699 L -3498.4102 1452.0332 C -3498.4102 1452.0311 -3498.4119 1452.0293 -3498.4141 1452.0293 L -3502.043 1452.0293 z "
         d="m -3502.043,1452.0293 c -0,0 -0,0 -0,0 v 30.6367 c 0,0 0,0 0,0 h 3.6289 c 0,0 0,-0 0,-0 v -30.6367 c 0,-0 -0,-0 -0,-0 z"
         transform="matrix(-3.0058122,0,-2.1254302,-2.1254302,-5519.7372,3204.4929)" /><path
         id="path224"
         style="fill:#a12baf;fill-opacity:1;stroke:none;stroke-width:2.22307;stroke-linejoin:round;paint-order:stroke markers fill"
         sodipodi:type="inkscape:offset"
         inkscape:radius="0"
         inkscape:original="M -3502.043 1452.0293 C -3502.0451 1452.0293 -3502.0469 1452.0311 -3502.0469 1452.0332 L -3502.0469 1482.6699 C -3502.0469 1482.672 -3502.0451 1482.6738 -3502.043 1482.6738 L -3498.4141 1482.6738 C -3498.4119 1482.6738 -3498.4102 1482.672 -3498.4102 1482.6699 L -3498.4102 1452.0332 C -3498.4102 1452.0311 -3498.4119 1452.0293 -3498.4141 1452.0293 L -3502.043 1452.0293 z "
         d="m -3502.043,1452.0293 c -0,0 -0,0 -0,0 v 30.6367 c 0,0 0,0 0,0 h 3.6289 c 0,0 0,-0 0,-0 v -30.6367 c 0,-0 -0,-0 -0,-0 z"
         transform="matrix(-1.4949553,0,-1.0570931,-1.0570931,-1823.0763,1598.9566)" /><path
         id="path225"
         style="fill:#421249;fill-opacity:1;stroke:none;stroke-width:2.22307;stroke-linejoin:round;paint-order:stroke markers fill"
         sodipodi:type="inkscape:offset"
         inkscape:radius="0"
         inkscape:original="M -3502.043 1452.0293 C -3502.0451 1452.0293 -3502.0469 1452.0311 -3502.0469 1452.0332 L -3502.0469 1482.6699 C -3502.0469 1482.672 -3502.0451 1482.6738 -3502.043 1482.6738 L -3498.4141 1482.6738 C -3498.4119 1482.6738 -3498.4102 1482.672 -3498.4102 1482.6699 L -3498.4102 1452.0332 C -3498.4102 1452.0311 -3498.4119 1452.0293 -3498.4141 1452.0293 L -3502.043 1452.0293 z "
         d="m -3502.043,1452.0293 c -0,0 -0,0 -0,0 v 30.6367 c 0,0 0,0 0,0 h 3.6289 c 0,0 0,-0 0,-0 v -30.6367 c 0,-0 -0,-0 -0,-0 z"
         transform="matrix(-1.4949553,0,-1.0570931,-1.0570931,-1822.3074,1624.289)" /><path
         id="path226"
         style="fill:#a12baf;fill-opacity:1;stroke:none;stroke-width:2.22307;stroke-linejoin:round;paint-order:stroke markers fill"
         sodipodi:type="inkscape:offset"
         inkscape:radius="0"
         inkscape:original="M -3502.043 1452.0293 C -3502.0451 1452.0293 -3502.0469 1452.0311 -3502.0469 1452.0332 L -3502.0469 1482.6699 C -3502.0469 1482.672 -3502.0451 1482.6738 -3502.043 1482.6738 L -3498.4141 1482.6738 C -3498.4119 1482.6738 -3498.4102 1482.672 -3498.4102 1482.6699 L -3498.4102 1452.0332 C -3498.4102 1452.0311 -3498.4119 1452.0293 -3498.4141 1452.0293 L -3502.043 1452.0293 z "
         d="m -3502.043,1452.0293 c -0,0 -0,0 -0,0 v 30.6367 c 0,0 0,0 0,0 h 3.6289 c 0,0 0,-0 0,-0 v -30.6367 c 0,-0 -0,-0 -0,-0 z"
         transform="matrix(-1.4949553,0,-1.0570931,-1.0570931,-1863.304,1578.699)" /><path
         id="path227"
         style="fill:#a12baf;fill-opacity:1;stroke:none;stroke-width:2.22307;stroke-linejoin:round;paint-order:stroke markers fill"
         sodipodi:type="inkscape:offset"
         inkscape:radius="0"
         inkscape:original="M -3502.043 1452.0293 C -3502.0451 1452.0293 -3502.0469 1452.0311 -3502.0469 1452.0332 L -3502.0469 1482.6699 C -3502.0469 1482.672 -3502.0451 1482.6738 -3502.043 1482.6738 L -3498.4141 1482.6738 C -3498.4119 1482.6738 -3498.4102 1482.672 -3498.4102 1482.6699 L -3498.4102 1452.0332 C -3498.4102 1452.0311 -3498.4119 1452.0293 -3498.4141 1452.0293 L -3502.043 1452.0293 z "
         d="m -3502.043,1452.0293 c -0,0 -0,0 -0,0 v 30.6367 c 0,0 0,0 0,0 h 3.6289 c 0,0 0,-0 0,-0 v -30.6367 c 0,-0 -0,-0 -0,-0 z"
         transform="matrix(-1.4949553,0,-1.0570931,-1.0570931,-1766.256,1613.6318)" /><path
         style="font-weight:450;font-size:71.5576px;font-family:'Circular Std Book';-inkscape-font-specification:'Circular Std Book,  weight=450';text-align:center;letter-spacing:-6.78651px;text-anchor:middle;opacity:1;fill:#ffffff;stroke-width:7.36088"
         d="m 328.88277,68.794984 v 18.501132 h 12.65866 V 97.642128 H 328.88277 317.44129 306.24324 V 87.296116 h 3.16467 c 3.00237,0 5.23387,-0.811457 6.69449,-2.434372 1.54175,-1.704051 2.31263,-3.894972 2.31263,-6.572762 v -9.493998 z m 46.90037,77.047436 H 364.46339 V 87.296116 h 10.9546 v 7.789936 c 1.7852,-3.083522 4.3007,-5.436735 7.54651,-7.059638 3.24582,-1.622903 6.65392,-2.434355 10.22431,-2.434355 3.81383,0 7.30308,0.933168 10.46774,2.799504 3.16467,1.866347 5.51788,4.625289 7.05963,8.276824 4.05727,-7.384219 10.58947,-11.076328 19.5966,-11.076328 5.59902,0 10.34602,1.906916 14.241,5.720747 3.97611,3.813819 5.96417,9.331694 5.96417,16.553634 v 37.97598 h -11.31977 v -36.7588 c 0,-4.05726 -1.05488,-7.30307 -3.16465,-9.737435 -2.02863,-2.43436 -5.11216,-3.65154 -9.25057,-3.65154 -3.97611,0 -7.22193,1.420044 -9.73744,4.260133 -2.51551,2.758932 -3.77326,6.248172 -3.77326,10.467732 v 17.70995 h -11.44148 v -19.04884 c 0,-4.05726 -1.05489,-7.30307 -3.16467,-9.737435 -2.02863,-2.43436 -5.11215,-3.65154 -9.25056,-3.65154 -4.05727,0 -7.34365,1.37947 -9.85914,4.138411 -2.51551,2.758944 -3.77327,6.329334 -3.77327,10.711184 z m 88.87363,-35.29818 h 32.0118 c -0.16229,-4.38185 -1.6229,-7.95224 -4.38184,-10.711184 -2.75894,-2.840089 -6.65391,-4.260133 -11.68492,-4.260133 -4.54413,0 -8.27682,1.501186 -11.19805,4.503557 -2.92123,2.92124 -4.50356,6.41049 -4.74699,10.46776 z m 33.71586,15.21473 9.85915,3.4081 c -1.70405,5.43673 -4.86872,9.89973 -9.49401,13.38898 -4.62527,3.4081 -10.22429,5.11215 -16.79705,5.11215 -8.19568,0 -15.17418,-2.79951 -20.93549,-8.39854 -5.68017,-5.68017 -8.52025,-13.30782 -8.52025,-22.88297 0,-8.92597 2.75894,-16.31019 8.27681,-22.152658 5.51788,-5.842463 12.09065,-8.763695 19.7183,-8.763695 8.84483,0 15.74219,2.799515 20.69206,8.398546 4.94985,5.517871 7.42478,12.942667 7.42478,22.274377 0,1.46061 -0.0811,2.67778 -0.24344,3.65152 h -44.06188 c 0.0812,5.19331 1.78524,9.45344 5.11215,12.78039 3.4081,3.32695 7.58709,4.99043 12.53696,4.99043 8.35796,0 13.83526,-3.93554 16.43191,-11.80663 z m 7.80942,4.86871 10.34602,-3.65154 c 0.40573,3.16467 1.7852,5.8019 4.13841,7.91168 2.35321,2.02863 5.51788,3.04295 9.49399,3.04295 3.08352,0 5.51788,-0.73031 7.30308,-2.19093 1.7852,-1.54175 2.6778,-3.4081 2.6778,-5.59903 0,-3.89497 -2.5155,-6.41047 -7.54651,-7.5465 l -9.98088,-2.19093 c -4.54413,-0.97375 -8.11452,-2.92123 -10.71118,-5.84245 -2.59664,-2.92124 -3.89496,-6.45106 -3.89496,-10.58946 0,-5.031007 2.02863,-9.372283 6.08589,-13.02383 4.13841,-3.651535 9.0477,-5.477303 14.72787,-5.477303 3.73269,0 7.05964,0.568019 9.98086,1.704057 2.92124,1.05489 5.19331,2.474929 6.81622,4.260117 1.6229,1.785199 2.84008,3.448682 3.65154,4.990449 0.81145,1.541755 1.42003,3.124085 1.82576,4.74699 l -10.10259,3.77326 c -0.16229,-0.97374 -0.4463,-1.90691 -0.85202,-2.79952 -0.40573,-0.97374 -1.05489,-2.02862 -1.9475,-3.164654 -0.81145,-1.136038 -2.02862,-2.028637 -3.65152,-2.677798 -1.62291,-0.730309 -3.52983,-1.095464 -5.72075,-1.095464 -2.84009,0 -5.1933,0.770877 -7.05964,2.312632 -1.7852,1.541767 -2.6778,3.367544 -2.6778,5.477324 0,3.73268 2.2315,6.08589 6.69449,7.05963 l 9.494,2.06921 c 5.1933,1.13603 9.16942,3.2458 11.92836,6.32932 2.84008,3.00237 4.26012,6.69448 4.26012,11.07633 0,4.62529 -1.90691,8.80427 -5.72073,12.53696 -3.73269,3.73268 -8.96656,5.59902 -15.70161,5.59902 -7.22193,0 -12.86153,-1.7852 -16.9188,-5.35559 -4.05727,-3.65154 -6.36991,-7.54652 -6.93792,-11.68493 z"
         id="path228"
         transform="matrix(0.94722974,0,0,0.94722974,1531.9576,-40.82261)"
         sodipodi:nodetypes="ccccccccscscccccccssscscsccscscsccscsssccccscccccscssscscccsccccscsccsscscsscccccscscccscscc" /><path
         style="opacity:1;fill:#ffffff;fill-opacity:1;stroke-width:10.5833;stroke-linejoin:round;paint-order:stroke markers fill"
         d="m 1858.9531,55.186489 v 13.548778 l 10.7224,10.722401 V 65.182844 Z"
         id="path229" /><path
         style="opacity:1;fill:#ffffff;fill-opacity:1;stroke-width:10.5833;stroke-linejoin:round;paint-order:stroke markers fill"
         d="m 1843.4851,56.684232 v 4.6247 l -4.5524,-4.552347 z"
         id="path230" /><path
         style="opacity:1;fill:#a12baf;fill-opacity:1;stroke-width:10.5833;stroke-linejoin:round;paint-order:stroke markers fill"
         d="m 1858.953,88.685874 8.6378,8.637791 h -8.6377 z"
         id="path231" /><path
         style="opacity:1;fill:#a12baf;fill-opacity:1;stroke-width:10.5833;stroke-linejoin:round;paint-order:stroke markers fill"
         d="m 1673.8081,38.734814 c 0,0 3.6303,-0.325307 7.1426,0.290778 4.9292,1.211208 6.1596,2.072808 6.1596,2.072808 l -29.2447,-29.244742 h -10.9312 z"
         id="path232"
         sodipodi:nodetypes="cccccc" /><path
         style="font-style:italic;font-weight:900;font-size:71.5576px;font-family:'Circular Std Black Italic';-inkscape-font-specification:'Circular Std Black Italic,  Heavy Italic';text-align:center;letter-spacing:-5.18414px;text-anchor:middle;display:inline;fill:#cc61d8;fill-opacity:1;stroke-width:7.36088"
         d="m 129.7358,63.969256 1.32953,-6.250603 -7.67735,-1e-6 z"
         id="path233"
         transform="matrix(0.94722974,0,0,0.94722974,1531.9576,-40.82261)"
         sodipodi:nodetypes="cccc" /></g></g></svg>
